SplineFontDB: 3.2
FontName: Yftoowhy-Regular
FullName: Yftoowhy Regular
FamilyName: Yftoowhy
Weight: Regular
Copyright: Copyright (c) 2022, Pootis Type Corp.
UComments: "2022-6-13: Created with FontForge (http://fontforge.org)+AAoACgAA-STILL IN DEVELOPMENT, THIS IS NOT A FINISHED BUILD!! WE RECOMMEND WAITING UNTIL THEN."
Version: 1.005
ItalicAngle: 0
UnderlinePosition: -100
UnderlineWidth: 50
Ascent: 1000
Descent: 200
InvalidEm: 0
LayerCount: 2
Layer: 0 0 "Back" 1
Layer: 1 0 "Fore" 0
XUID: [1021 649 -1568770205 31122]
FSType: 0
OS2Version: 0
OS2_WeightWidthSlopeOnly: 0
OS2_UseTypoMetrics: 1
CreationTime: 1649086480
ModificationTime: 1656433184
PfmFamily: 17
TTFWeight: 400
TTFWidth: 5
LineGap: 100
VLineGap: 0
OS2TypoAscent: 1000
OS2TypoAOffset: 0
OS2TypoDescent: -200
OS2TypoDOffset: 0
OS2TypoLinegap: 100
OS2WinAscent: 1000
OS2WinAOffset: 0
OS2WinDescent: 200
OS2WinDOffset: 0
HheadAscent: 1000
HheadAOffset: 0
HheadDescent: -200
HheadDOffset: 0
OS2CapHeight: 800
OS2XHeight: 600
OS2Vendor: 'PfEd'
Lookup: 1 0 0 "'pnum' Proportional Numbers lookup 0" { "'pnum' Proportional Numbers lookup 0-1" ("pnum") } ['pnum' ('DFLT' <'dflt' > 'arab' <'dflt' > 'armn' <'dflt' > 'brai' <'dflt' > 'cyrl' <'BGR ' 'MKD ' 'SRB ' 'dflt' > 'goth' <'dflt' > 'grek' <'dflt' > 'khmr' <'dflt' > 'latn' <'AZE ' 'CAT ' 'CRT ' 'KAZ ' 'LTH ' 'MOL ' 'NLD ' 'ROM ' 'TAT ' 'TRK ' 'dflt' > 'lisu' <'dflt' > ) ]
Lookup: 1 0 0 "'onum' Oldstyle Figures lookup 1" { "'onum' Oldstyle Figures lookup 1-1" ("onum") } ['onum' ('DFLT' <'dflt' > 'arab' <'dflt' > 'armn' <'dflt' > 'brai' <'dflt' > 'cyrl' <'BGR ' 'MKD ' 'SRB ' 'dflt' > 'goth' <'dflt' > 'grek' <'dflt' > 'khmr' <'dflt' > 'latn' <'AZE ' 'CAT ' 'CRT ' 'KAZ ' 'LTH ' 'MOL ' 'NLD ' 'ROM ' 'TAT ' 'TRK ' 'dflt' > 'lisu' <'dflt' > ) ]

StartChar: .notdef
Encoding: 0 -1 0
Width: 450
VWidth: 1000
Flags: HMW
LayerCount: 2
Fore
SplineSet
50 0 m 1
 50 800 l 1
 400 800 l 1
 400 0 l 1
 50 0 l 1
150 100 m 1
 300 100 l 1
 300 700 l 1
 150 700 l 1
 150 100 l 1
EndSplineSet
Validated: 1
EndChar

StartChar: exclam
Encoding: 2 33 2
Width: 200
Flags: HMW
LayerCount: 2
Fore
SplineSet
50 0 m 1
 50 100 l 1
 150 100 l 1
 150 0 l 1
 50 0 l 1
50 200 m 1
 50 800 l 1
 150 800 l 1
 150 200 l 1
 50 200 l 1
EndSplineSet
Validated: 1
EndChar

StartChar: quotedbl
Encoding: 3 34 3
Width: 400
Flags: HMW
LayerCount: 2
Fore
SplineSet
250 600 m 1
 250 800 l 1
 350 800 l 1
 350 600 l 1
 250 600 l 1
50 600 m 1
 50 800 l 1
 150 800 l 1
 150 600 l 1
 50 600 l 1
EndSplineSet
Validated: 1
EndChar

StartChar: numbersign
Encoding: 4 35 4
Width: 726
Flags: HMW
LayerCount: 2
Fore
SplineSet
268 300 m 1
 418 300 l 1
 442 500 l 1
 292 500 l 1
 268 300 l 1
50 200 m 1
 62 300 l 1
 168 300 l 1
 192 500 l 1
 88 500 l 1
 100 600 l 1
 205 600 l 1
 230 800 l 1
 330 800 l 1
 305 600 l 1
 455 600 l 1
 480 800 l 1
 580 800 l 1
 555 600 l 1
 676 600 l 1
 664 500 l 1
 542 500 l 1
 518 300 l 1
 638 300 l 1
 626 200 l 1
 505 200 l 1
 480 0 l 1
 380 0 l 1
 405 200 l 1
 255 200 l 1
 230 0 l 1
 130 0 l 1
 155 200 l 1
 50 200 l 1
EndSplineSet
Validated: 1
EndChar

StartChar: dollar
Encoding: 5 36 5
Width: 480
Flags: HMW
LayerCount: 2
Fore
SplineSet
46 66 m 1
 117 137 l 1
 140 114 171 100 205 100 c 0
 274 100 330 156 330 225 c 0
 330 324 50 421 50 575 c 0
 50 685 130 776 234 796 c 1
 245 900 l 1
 345 900 l 1
 333 792 l 1
 372 782 406 762 434 734 c 1
 363 663 l 1
 340 686 309 700 275 700 c 0
 206 700 150 644 150 575 c 0
 150 476 430 379 430 225 c 0
 430 115 350 24 246 4 c 1
 235 -100 l 1
 135 -100 l 1
 147 8 l 1
 108 18 74 38 46 66 c 1
EndSplineSet
Validated: 1
EndChar

StartChar: percent
Encoding: 6 37 6
Width: 500
Flags: HMW
LayerCount: 2
Fore
SplineSet
50 0 m 1
 350 800 l 1
 450 800 l 1
 150 0 l 1
 50 0 l 1
50 700 m 1
 50 800 l 1
 150 800 l 1
 150 700 l 1
 50 700 l 1
350 0 m 1
 350 100 l 1
 450 100 l 1
 450 0 l 1
 350 0 l 1
EndSplineSet
Validated: 1
EndChar

StartChar: ampersand
Encoding: 7 38 7
Width: 775
Flags: HMW
LayerCount: 2
Fore
SplineSet
150 225 m 0
 150 156 206 100 275 100 c 0
 382 100 479 149 543 225 c 1
 479 301 382 350 275 350 c 0
 206 350 150 294 150 225 c 0
150 575 m 0
 150 506 206 450 275 450 c 0
 344 450 400 506 400 575 c 0
 400 644 344 700 275 700 c 0
 206 700 150 644 150 575 c 0
50 225 m 0
 50 296 82 359 140 400 c 1
 82 441 50 504 50 575 c 0
 50 699 151 800 275 800 c 0
 399 800 500 699 500 575 c 0
 500 515 477 460 438 420 c 1
 499 396 552 360 597 314 c 1
 615 356 625 402 625 450 c 1
 725 450 l 1
 725 368 703 291 665 225 c 1
 703 159 725 82 725 0 c 1
 625 0 l 1
 625 48 615 94 597 136 c 1
 515 52 401 0 275 0 c 0
 151 0 50 101 50 225 c 0
EndSplineSet
Validated: 1
EndChar

StartChar: quotesingle
Encoding: 8 39 8
Width: 200
Flags: HMW
LayerCount: 2
Fore
SplineSet
50 600 m 1
 50 800 l 1
 150 800 l 1
 150 600 l 1
 50 600 l 1
EndSplineSet
Validated: 1
EndChar

StartChar: parenleft
Encoding: 9 40 9
Width: 350
Flags: HMW
LayerCount: 2
Fore
SplineSet
50 300 m 0
 50 467 100 633 200 800 c 1
 300 800 l 1
 200 633 150 467 150 300 c 0
 150 133 200 -33 300 -200 c 1
 200 -200 l 1
 100 -33 50 133 50 300 c 0
EndSplineSet
Validated: 1
EndChar

StartChar: parenright
Encoding: 10 41 10
Width: 350
Flags: HMW
LayerCount: 2
Fore
SplineSet
50 -200 m 1
 150 -33 200 133 200 300 c 0
 200 467 150 633 50 800 c 1
 150 800 l 1
 250 633 300 467 300 300 c 0
 300 133 250 -33 150 -200 c 1
 50 -200 l 1
EndSplineSet
Validated: 1
EndChar

StartChar: asterisk
Encoding: 11 42 11
Width: 450
Flags: HMW
LayerCount: 2
Fore
SplineSet
48 581 m 1
 125 625 l 1
 48 669 l 1
 98 756 l 1
 175 712 l 1
 175 800 l 1
 275 800 l 1
 275 712 l 1
 352 756 l 1
 402 669 l 1
 325 625 l 1
 402 581 l 1
 352 494 l 1
 275 538 l 1
 275 450 l 1
 175 450 l 1
 175 538 l 1
 98 494 l 1
 48 581 l 1
EndSplineSet
Validated: 1
EndChar

StartChar: plus
Encoding: 12 43 12
Width: 450
Flags: HMW
LayerCount: 2
Fore
SplineSet
50 350 m 1
 50 450 l 1
 175 450 l 1
 175 575 l 1
 275 575 l 1
 275 450 l 1
 400 450 l 1
 400 350 l 1
 275 350 l 1
 275 225 l 1
 175 225 l 1
 175 350 l 1
 50 350 l 1
EndSplineSet
Validated: 1
EndChar

StartChar: comma
Encoding: 13 44 13
Width: 200
Flags: HMW
LayerCount: 2
Fore
SplineSet
50 -100 m 1
 50 100 l 1
 150 100 l 1
 150 0 l 1
 100 -100 l 1
 50 -100 l 1
EndSplineSet
Validated: 1
EndChar

StartChar: hyphen
Encoding: 14 45 14
Width: 450
Flags: HMW
LayerCount: 2
Fore
SplineSet
50 350 m 1
 50 450 l 1
 400 450 l 1
 400 350 l 1
 50 350 l 1
EndSplineSet
Validated: 1
EndChar

StartChar: period
Encoding: 15 46 15
Width: 200
Flags: HMW
LayerCount: 2
Fore
SplineSet
50 0 m 1
 50 100 l 1
 150 100 l 1
 150 0 l 1
 50 0 l 1
EndSplineSet
Validated: 1
EndChar

StartChar: slash
Encoding: 16 47 16
Width: 300
Flags: HMW
LayerCount: 2
Fore
SplineSet
50 0 m 1
 150 800 l 1
 250 800 l 1
 150 0 l 1
 50 0 l 1
EndSplineSet
Validated: 1
EndChar

StartChar: zero
Encoding: 17 48 17
Width: 650
Flags: HMW
LayerCount: 2
Fore
SplineSet
50 400 m 0
 50 621 173 800 325 800 c 0
 477 800 600 621 600 400 c 0
 600 179 477 0 325 0 c 0
 173 0 50 179 50 400 c 0
150 400 m 0
 150 234 228 100 325 100 c 0
 422 100 500 234 500 400 c 0
 500 566 422 700 325 700 c 0
 228 700 150 566 150 400 c 0
EndSplineSet
Validated: 1
Substitution2: "'zero' Slashed Zero lookup 2-1" zero.zero
Substitution2: "'onum' Oldstyle Figures lookup 1-1" zero.onum
Substitution2: "'pnum' Proportional Numbers lookup 0-1" zero.pnum
EndChar

StartChar: one
Encoding: 18 49 18
Width: 650
Flags: HMW
LayerCount: 2
Fore
SplineSet
100 0 m 1
 100 100 l 1
 275 100 l 1
 275 660 l 1
 100 600 l 1
 100 700 l 1
 375 800 l 1
 375 100 l 1
 550 100 l 1
 550 0 l 1
 100 0 l 1
EndSplineSet
Validated: 1
Substitution2: "'onum' Oldstyle Figures lookup 1-1" one.onum
Substitution2: "'pnum' Proportional Numbers lookup 0-1" one.pnum
EndChar

StartChar: two
Encoding: 19 50 19
Width: 650
Flags: HMW
LayerCount: 2
Fore
SplineSet
50 0 m 1
 50 100 l 2
 50 320 500 406 500 545 c 0
 500 644 444 700 325 700 c 0
 206 700 150 644 150 575 c 1
 50 575 l 1
 50 699 151 800 325 800 c 0
 499 800 600 699 600 545 c 0
 600 331 150 250 150 100 c 1
 600 100 l 1
 600 0 l 1
 50 0 l 1
EndSplineSet
Validated: 1
Substitution2: "'onum' Oldstyle Figures lookup 1-1" two.onum
Substitution2: "'pnum' Proportional Numbers lookup 0-1" two.pnum
EndChar

StartChar: three
Encoding: 20 51 20
Width: 650
Flags: HMW
LayerCount: 2
Fore
SplineSet
50 225 m 1
 150 225 l 1
 150 156 206 100 325 100 c 0
 444 100 500 156 500 225 c 0
 500 294 444 350 325 350 c 2
 250 350 l 1
 250 450 l 1
 325 450 l 2
 444 450 500 506 500 575 c 0
 500 644 444 700 325 700 c 0
 206 700 150 644 150 575 c 1
 50 575 l 1
 50 699 151 800 325 800 c 0
 499 800 600 699 600 575 c 0
 600 504 568 441 505 400 c 1
 568 359 600 296 600 225 c 0
 600 101 499 0 325 0 c 0
 151 0 50 101 50 225 c 1
EndSplineSet
Validated: 1
Substitution2: "'onum' Oldstyle Figures lookup 1-1" three.onum
Substitution2: "'pnum' Proportional Numbers lookup 0-1" three.pnum
EndChar

StartChar: four
Encoding: 21 52 21
Width: 650
Flags: HMW
LayerCount: 2
Fore
SplineSet
50 200 m 1
 50 300 l 1
 400 800 l 1
 500 800 l 1
 500 300 l 1
 600 300 l 1
 600 200 l 1
 500 200 l 1
 500 0 l 1
 400 0 l 1
 400 200 l 1
 50 200 l 1
170 300 m 1
 400 300 l 1
 400 630 l 1
 170 300 l 1
EndSplineSet
Validated: 1
Substitution2: "'onum' Oldstyle Figures lookup 1-1" four.onum
Substitution2: "'pnum' Proportional Numbers lookup 0-1" four.pnum
EndChar

StartChar: five
Encoding: 22 53 22
Width: 650
Flags: HMW
LayerCount: 2
Fore
SplineSet
50 225 m 1
 150 225 l 1
 150 156 206 100 325 100 c 0
 422 100 500 175 500 275 c 0
 500 375 422 450 325 450 c 0
 248 450 180 416 170 375 c 1
 70 395 l 1
 140 800 l 1
 600 800 l 1
 600 700 l 1
 226 700 l 1
 196 523 l 1
 234 540 277 550 325 550 c 0
 477 550 600 431 600 275 c 0
 600 119 477 0 325 0 c 0
 151 0 50 101 50 225 c 1
EndSplineSet
Validated: 1
Substitution2: "'onum' Oldstyle Figures lookup 1-1" five.onum
Substitution2: "'pnum' Proportional Numbers lookup 0-1" five.pnum
EndChar

StartChar: six
Encoding: 23 54 23
Width: 650
Flags: HMW
LayerCount: 2
Fore
SplineSet
150 275 m 0
 150 156 206 100 325 100 c 0
 444 100 500 156 500 225 c 0
 500 294 444 350 325 350 c 0
 226 350 150 344 150 275 c 0
50 275 m 0
 50 542 252 800 500 800 c 1
 500 700 l 1
 355 700 230 580 177 430 c 1
 219 444 270 450 325 450 c 0
 499 450 600 349 600 225 c 0
 600 101 499 0 325 0 c 0
 151 0 50 101 50 275 c 0
EndSplineSet
Validated: 1
Substitution2: "'onum' Oldstyle Figures lookup 1-1" six.onum
Substitution2: "'pnum' Proportional Numbers lookup 0-1" six.pnum
EndChar

StartChar: seven
Encoding: 24 55 24
Width: 650
Flags: HMW
LayerCount: 2
Fore
SplineSet
50 700 m 1
 50 800 l 1
 600 800 l 1
 600 700 l 1
 450 550 350 250 350 0 c 1
 250 0 l 1
 250 290 350 570 480 700 c 1
 50 700 l 1
EndSplineSet
Validated: 1
Substitution2: "'onum' Oldstyle Figures lookup 1-1" seven.onum
Substitution2: "'pnum' Proportional Numbers lookup 0-1" seven.pnum
EndChar

StartChar: eight
Encoding: 25 56 25
Width: 650
Flags: HMW
LayerCount: 2
Fore
SplineSet
150 575 m 0
 150 506 206 450 325 450 c 0
 444 450 500 506 500 575 c 0
 500 644 444 700 325 700 c 0
 206 700 150 644 150 575 c 0
150 225 m 0
 150 156 206 100 325 100 c 0
 444 100 500 156 500 225 c 0
 500 294 444 350 325 350 c 0
 206 350 150 294 150 225 c 0
50 225 m 0
 50 296 82 359 145 400 c 1
 82 441 50 504 50 575 c 0
 50 699 151 800 325 800 c 0
 499 800 600 699 600 575 c 0
 600 504 568 441 505 400 c 1
 568 359 600 296 600 225 c 0
 600 101 499 0 325 0 c 0
 151 0 50 101 50 225 c 0
EndSplineSet
Validated: 1
Substitution2: "'onum' Oldstyle Figures lookup 1-1" eight.onum
Substitution2: "'pnum' Proportional Numbers lookup 0-1" eight.pnum
EndChar

StartChar: nine
Encoding: 26 57 26
Width: 650
Flags: HMW
LayerCount: 2
Fore
SplineSet
150 575 m 0
 150 506 206 450 325 450 c 0
 424 450 500 456 500 525 c 0
 500 644 444 700 325 700 c 0
 206 700 150 644 150 575 c 0
50 575 m 0
 50 699 151 800 325 800 c 0
 499 800 600 699 600 525 c 0
 600 258 398 0 150 0 c 1
 150 100 l 1
 295 100 420 220 473 370 c 1
 431 356 380 350 325 350 c 0
 151 350 50 451 50 575 c 0
EndSplineSet
Validated: 1
Substitution2: "'onum' Oldstyle Figures lookup 1-1" nine.onum
Substitution2: "'pnum' Proportional Numbers lookup 0-1" nine.pnum
EndChar

StartChar: colon
Encoding: 27 58 27
Width: 200
Flags: HMW
LayerCount: 2
Fore
SplineSet
50 0 m 1
 50 100 l 1
 150 100 l 1
 150 0 l 1
 50 0 l 1
50 500 m 1
 50 600 l 1
 150 600 l 1
 150 500 l 1
 50 500 l 1
EndSplineSet
Validated: 1
EndChar

StartChar: semicolon
Encoding: 28 59 28
Width: 200
Flags: HMW
LayerCount: 2
Fore
SplineSet
50 -100 m 1
 50 100 l 1
 150 100 l 1
 150 0 l 1
 100 -100 l 1
 50 -100 l 1
50 500 m 1
 50 600 l 1
 150 600 l 1
 150 500 l 1
 50 500 l 1
EndSplineSet
Validated: 1
EndChar

StartChar: less
Encoding: 29 60 29
Width: 450
Flags: HMW
LayerCount: 2
Fore
SplineSet
50 350 m 1
 50 450 l 1
 400 600 l 1
 400 500 l 1
 161 400 l 1
 400 300 l 1
 400 200 l 1
 50 350 l 1
EndSplineSet
Validated: 1
EndChar

StartChar: equal
Encoding: 30 61 30
Width: 450
Flags: HMW
LayerCount: 2
Fore
SplineSet
50 250 m 1
 50 350 l 1
 400 350 l 1
 400 250 l 1
 50 250 l 1
50 450 m 1
 50 550 l 1
 400 550 l 1
 400 450 l 1
 50 450 l 1
EndSplineSet
Validated: 1
EndChar

StartChar: greater
Encoding: 31 62 31
Width: 450
Flags: HMW
LayerCount: 2
Fore
SplineSet
50 200 m 1
 50 300 l 1
 289 400 l 1
 50 500 l 1
 50 600 l 1
 400 450 l 1
 400 350 l 1
 50 200 l 1
EndSplineSet
Validated: 1
EndChar

StartChar: question
Encoding: 32 63 32
Width: 395
Flags: HMW
LayerCount: 2
Fore
SplineSet
46 749 m 1
 78 781 122 800 170 800 c 0
 267 800 345 722 345 625 c 0
 345 508 150 436 150 375 c 0
 150 334 184 300 225 300 c 0
 245 300 264 308 278 322 c 1
 349 251 l 1
 317 219 273 200 225 200 c 0
 128 200 50 278 50 375 c 0
 50 492 245 564 245 625 c 0
 245 666 211 700 170 700 c 0
 150 700 131 692 117 678 c 1
 46 749 l 1
175 0 m 1
 175 100 l 1
 275 100 l 1
 275 0 l 1
 175 0 l 1
EndSplineSet
Validated: 1
EndChar

StartChar: at
Encoding: 33 64 33
Width: 650
Flags: HMW
LayerCount: 2
Fore
SplineSet
50 400 m 0
 50 621 229 800 450 800 c 2
 600 800 l 1
 600 225 l 1
 450 225 l 2
 353 225 275 303 275 400 c 0
 275 497 353 575 450 575 c 2
 500 575 l 1
 500 700 l 1
 450 700 l 2
 284 700 150 566 150 400 c 0
 150 234 284 100 450 100 c 0
 505 100 556 115 600 130 c 1
 600 30 l 1
 554 10 503 0 450 0 c 0
 229 0 50 179 50 400 c 0
375 400 m 0
 375 359 409 325 450 325 c 2
 500 325 l 1
 500 475 l 1
 450 475 l 2
 409 475 375 441 375 400 c 0
EndSplineSet
Validated: 1
EndChar

StartChar: A
Encoding: 34 65 34
Width: 700
Flags: HMW
LayerCount: 2
Fore
SplineSet
226 250 m 1
 474 250 l 1
 350 660 l 1
 226 250 l 1
50 0 m 1
 300 800 l 1
 400 800 l 1
 650 0 l 1
 550 0 l 1
 505 150 l 1
 195 150 l 1
 150 0 l 1
 50 0 l 1
EndSplineSet
Validated: 1
EndChar

StartChar: B
Encoding: 35 66 35
Width: 600
Flags: HMW
LayerCount: 2
Fore
SplineSet
150 100 m 1
 325 100 l 2
 394 100 450 156 450 225 c 0
 450 294 394 350 325 350 c 2
 150 350 l 1
 150 100 l 1
150 450 m 1
 325 450 l 2
 394 450 450 506 450 575 c 0
 450 644 394 700 325 700 c 2
 150 700 l 1
 150 450 l 1
50 0 m 1
 50 800 l 1
 325 800 l 2
 449 800 550 699 550 575 c 0
 550 504 518 441 455 400 c 1
 518 359 550 296 550 225 c 0
 550 101 449 0 325 0 c 2
 50 0 l 1
EndSplineSet
Validated: 1
EndChar

StartChar: C
Encoding: 36 67 36
Width: 780
Flags: HMW
LayerCount: 2
Fore
SplineSet
50 400 m 0
 50 621 229 800 450 800 c 0
 560 800 661 755 733 683 c 1
 662 612 l 1
 608 666 533 700 450 700 c 0
 284 700 150 566 150 400 c 0
 150 234 284 100 450 100 c 0
 534 100 609 134 663 189 c 1
 734 118 l 1
 662 45 561 0 450 0 c 0
 229 0 50 179 50 400 c 0
EndSplineSet
Validated: 1
EndChar

StartChar: D
Encoding: 37 68 37
Width: 650
Flags: HMW
LayerCount: 2
Fore
SplineSet
150 100 m 1
 200 100 l 2
 366 100 500 234 500 400 c 0
 500 566 366 700 200 700 c 2
 150 700 l 1
 150 100 l 1
50 0 m 1
 50 800 l 1
 200 800 l 2
 421 800 600 621 600 400 c 0
 600 179 421 0 200 0 c 2
 50 0 l 1
EndSplineSet
Validated: 1
EndChar

StartChar: E
Encoding: 38 69 38
Width: 550
Flags: HMW
LayerCount: 2
Fore
SplineSet
50 0 m 1
 50 800 l 1
 500 800 l 1
 500 700 l 1
 150 700 l 1
 150 450 l 1
 400 450 l 1
 400 350 l 1
 150 350 l 1
 150 100 l 1
 500 100 l 1
 500 0 l 1
 50 0 l 1
EndSplineSet
Validated: 1
EndChar

StartChar: F
Encoding: 39 70 39
Width: 550
Flags: HMW
LayerCount: 2
Fore
SplineSet
50 0 m 1
 50 800 l 1
 500 800 l 1
 500 700 l 1
 150 700 l 1
 150 450 l 1
 400 450 l 1
 400 350 l 1
 150 350 l 1
 150 0 l 1
 50 0 l 1
EndSplineSet
Validated: 1
EndChar

StartChar: G
Encoding: 40 71 40
Width: 870
Flags: HMW
LayerCount: 2
Fore
SplineSet
50 400 m 0
 50 621 229 800 450 800 c 0
 560 800 661 755 733 683 c 1
 662 612 l 1
 608 666 533 700 450 700 c 0
 284 700 150 566 150 400 c 0
 150 234 269 100 435 100 c 0
 568 100 695 186 717 350 c 1
 400 350 l 1
 400 450 l 1
 820 450 l 1
 820 400 l 2
 820 149 636 0 435 0 c 0
 214 0 50 179 50 400 c 0
EndSplineSet
Validated: 1
EndChar

StartChar: H
Encoding: 41 72 41
Width: 650
Flags: HMW
LayerCount: 2
Fore
SplineSet
50 0 m 1
 50 800 l 1
 150 800 l 1
 150 450 l 1
 500 450 l 1
 500 800 l 1
 600 800 l 1
 600 0 l 1
 500 0 l 1
 500 350 l 1
 150 350 l 1
 150 0 l 1
 50 0 l 1
EndSplineSet
Validated: 1
EndChar

StartChar: I
Encoding: 42 73 42
Width: 400
Flags: HMW
LayerCount: 2
Fore
SplineSet
50 0 m 1
 50 100 l 1
 150 100 l 1
 150 700 l 1
 50 700 l 1
 50 800 l 1
 350 800 l 1
 350 700 l 1
 250 700 l 1
 250 100 l 1
 350 100 l 1
 350 0 l 1
 50 0 l 1
EndSplineSet
Validated: 1
EndChar

StartChar: J
Encoding: 43 74 43
Width: 700
Flags: HMW
LayerCount: 2
Fore
SplineSet
48 88 m 1
 119 159 l 1
 155 123 205 100 260 100 c 0
 370 100 460 190 460 300 c 2
 460 700 l 1
 310 700 l 1
 310 800 l 1
 650 800 l 1
 650 700 l 1
 560 700 l 1
 560 300 l 2
 560 134 426 0 260 0 c 0
 177 0 102 34 48 88 c 1
EndSplineSet
Validated: 1
Substitution2: "Single Substitution lookup 11-1" Jacute
EndChar

StartChar: K
Encoding: 44 75 44
Width: 650
Flags: HMW
LayerCount: 2
Fore
SplineSet
50 0 m 1
 50 800 l 1
 150 800 l 1
 150 434 l 1
 470 800 l 1
 600 800 l 1
 250 400 l 1
 600 0 l 1
 470 0 l 1
 150 366 l 1
 150 0 l 1
 50 0 l 1
EndSplineSet
Validated: 1
EndChar

StartChar: L
Encoding: 45 76 45
Width: 550
Flags: HMW
LayerCount: 2
Fore
SplineSet
50 0 m 1
 50 800 l 1
 150 800 l 1
 150 100 l 1
 500 100 l 1
 500 0 l 1
 50 0 l 1
EndSplineSet
Validated: 1
EndChar

StartChar: M
Encoding: 46 77 46
Width: 900
Flags: HMW
LayerCount: 2
Fore
SplineSet
50 0 m 1
 50 800 l 1
 170 800 l 1
 450 220 l 1
 730 800 l 1
 850 800 l 1
 850 0 l 1
 750 0 l 1
 750 620 l 1
 500 100 l 1
 400 100 l 1
 150 620 l 1
 150 0 l 1
 50 0 l 1
EndSplineSet
Validated: 1
EndChar

StartChar: N
Encoding: 47 78 47
Width: 700
Flags: HMW
LayerCount: 2
Fore
SplineSet
50 0 m 1
 50 800 l 1
 150 800 l 1
 550 180 l 1
 550 800 l 1
 650 800 l 1
 650 0 l 1
 550 0 l 1
 150 620 l 1
 150 0 l 1
 50 0 l 1
EndSplineSet
Validated: 1
EndChar

StartChar: O
Encoding: 48 79 48
Width: 900
Flags: HMW
LayerCount: 2
Fore
SplineSet
50 400 m 0
 50 621 229 800 450 800 c 0
 671 800 850 621 850 400 c 0
 850 179 671 0 450 0 c 0
 229 0 50 179 50 400 c 0
150 400 m 0
 150 234 284 100 450 100 c 0
 616 100 750 234 750 400 c 0
 750 566 616 700 450 700 c 0
 284 700 150 566 150 400 c 0
EndSplineSet
Validated: 1
EndChar

StartChar: P
Encoding: 49 80 49
Width: 600
Flags: HMW
LayerCount: 2
Fore
SplineSet
150 450 m 1
 325 450 l 2
 394 450 450 506 450 575 c 0
 450 644 394 700 325 700 c 2
 150 700 l 1
 150 450 l 1
50 0 m 1
 50 800 l 1
 325 800 l 2
 449 800 550 699 550 575 c 0
 550 451 449 350 325 350 c 2
 150 350 l 1
 150 0 l 1
 50 0 l 1
EndSplineSet
Validated: 1
EndChar

StartChar: Q
Encoding: 50 81 50
Width: 900
Flags: HMW
LayerCount: 2
Fore
SplineSet
150 400 m 0
 150 234 284 100 450 100 c 0
 518 100 580 122 630 160 c 1
 480 400 l 1
 600 400 l 1
 702 237 l 1
 732 284 750 340 750 400 c 0
 750 566 616 700 450 700 c 0
 284 700 150 566 150 400 c 0
50 400 m 0
 50 621 229 800 450 800 c 0
 671 800 850 621 850 400 c 0
 850 303 816 215 759 146 c 1
 850 0 l 1
 730 0 l 1
 683 75 l 1
 617 28 537 0 450 0 c 0
 229 0 50 179 50 400 c 0
EndSplineSet
Validated: 1
EndChar

StartChar: R
Encoding: 51 82 51
Width: 600
Flags: HMW
LayerCount: 2
Fore
SplineSet
50 0 m 1
 50 800 l 1
 325 800 l 2
 449 800 550 699 550 575 c 0
 550 451 449 350 325 350 c 1
 550 0 l 1
 440 0 l 1
 215 350 l 1
 150 350 l 1
 150 0 l 1
 50 0 l 1
150 450 m 1
 325 450 l 2
 394 450 450 506 450 575 c 0
 450 644 394 700 325 700 c 2
 150 700 l 1
 150 450 l 1
EndSplineSet
Validated: 1
EndChar

StartChar: S
Encoding: 52 83 52
Width: 480
Flags: HMW
LayerCount: 2
Fore
SplineSet
46 66 m 1
 117 137 l 1
 140 114 171 100 205 100 c 0
 274 100 330 156 330 225 c 0
 330 324 50 421 50 575 c 0
 50 699 151 800 275 800 c 0
 337 800 393 775 434 734 c 1
 363 663 l 1
 340 686 309 700 275 700 c 0
 206 700 150 644 150 575 c 0
 150 476 430 379 430 225 c 0
 430 101 329 0 205 0 c 0
 143 0 87 25 46 66 c 1
EndSplineSet
Validated: 1
EndChar

StartChar: T
Encoding: 53 84 53
Width: 700
Flags: HMW
LayerCount: 2
Fore
SplineSet
50 700 m 1
 50 800 l 1
 650 800 l 1
 650 700 l 1
 400 700 l 1
 400 0 l 1
 300 0 l 1
 300 700 l 1
 50 700 l 1
EndSplineSet
Validated: 1
EndChar

StartChar: U
Encoding: 54 85 54
Width: 700
Flags: HMW
LayerCount: 2
Fore
SplineSet
50 300 m 2
 50 800 l 1
 150 800 l 1
 150 300 l 2
 150 190 240 100 350 100 c 0
 460 100 550 190 550 300 c 2
 550 800 l 1
 650 800 l 1
 650 300 l 2
 650 134 516 0 350 0 c 0
 184 0 50 134 50 300 c 2
EndSplineSet
Validated: 1
EndChar

StartChar: V
Encoding: 55 86 55
Width: 700
Flags: HMW
LayerCount: 2
Fore
SplineSet
50 800 m 1
 150 800 l 1
 350 140 l 1
 550 800 l 1
 650 800 l 1
 400 0 l 1
 300 0 l 1
 50 800 l 1
EndSplineSet
Validated: 1
EndChar

StartChar: W
Encoding: 56 87 56
Width: 1100
Flags: HMW
LayerCount: 2
Fore
SplineSet
50 800 m 1
 150 800 l 1
 310 150 l 1
 500 800 l 1
 600 800 l 1
 790 150 l 1
 950 800 l 1
 1050 800 l 1
 850 0 l 1
 740 0 l 1
 550 650 l 1
 360 0 l 1
 250 0 l 1
 50 800 l 1
EndSplineSet
Validated: 1
EndChar

StartChar: X
Encoding: 57 88 57
Width: 650
Flags: HMW
LayerCount: 2
Fore
SplineSet
50 0 m 1
 275 400 l 1
 50 800 l 1
 150 800 l 1
 325 480 l 1
 500 800 l 1
 600 800 l 1
 375 400 l 1
 600 0 l 1
 500 0 l 1
 325 320 l 1
 150 0 l 1
 50 0 l 1
EndSplineSet
Validated: 1
EndChar

StartChar: Y
Encoding: 58 89 58
Width: 650
Flags: HMW
LayerCount: 2
Fore
SplineSet
50 800 m 1
 150 800 l 1
 325 480 l 1
 500 800 l 1
 600 800 l 1
 375 400 l 1
 375 0 l 1
 275 0 l 1
 275 400 l 1
 50 800 l 1
EndSplineSet
Validated: 1
EndChar

StartChar: Z
Encoding: 59 90 59
Width: 700
Flags: HMW
LayerCount: 2
Fore
SplineSet
50 0 m 1
 50 100 l 1
 520 700 l 1
 50 700 l 1
 50 800 l 1
 650 800 l 1
 650 700 l 1
 180 100 l 1
 650 100 l 1
 650 0 l 1
 50 0 l 1
EndSplineSet
Validated: 1
EndChar

StartChar: bracketleft
Encoding: 60 91 60
Width: 350
Flags: HMW
LayerCount: 2
Fore
SplineSet
50 -200 m 1
 50 800 l 1
 300 800 l 1
 300 700 l 1
 150 700 l 1
 150 -100 l 1
 300 -100 l 1
 300 -200 l 1
 50 -200 l 1
EndSplineSet
Validated: 1
EndChar

StartChar: backslash
Encoding: 61 92 61
Width: 300
Flags: HMW
LayerCount: 2
Fore
SplineSet
50 800 m 1
 150 800 l 1
 250 0 l 1
 150 0 l 1
 50 800 l 1
EndSplineSet
Validated: 1
EndChar

StartChar: bracketright
Encoding: 62 93 62
Width: 350
Flags: HMW
LayerCount: 2
Fore
SplineSet
50 -100 m 1
 200 -100 l 1
 200 700 l 1
 50 700 l 1
 50 800 l 1
 300 800 l 1
 300 -200 l 1
 50 -200 l 1
 50 -100 l 1
EndSplineSet
Validated: 1
EndChar

StartChar: asciicircum
Encoding: 63 94 63
Width: 400
Flags: HMW
LayerCount: 2
Fore
SplineSet
50 600 m 1
 150 800 l 1
 250 800 l 1
 350 600 l 1
 250 600 l 1
 200 710 l 1
 150 600 l 1
 50 600 l 1
EndSplineSet
Validated: 1
EndChar

StartChar: underscore
Encoding: 64 95 64
Width: 400
Flags: HMW
LayerCount: 2
Fore
SplineSet
0 0 m 1
 400 0 l 1
 400 -100 l 1
 0 -100 l 1
 0 0 l 1
EndSplineSet
Validated: 1
EndChar

StartChar: grave
Encoding: 65 96 65
Width: 300
Flags: HMW
LayerCount: 2
Fore
SplineSet
50 800 m 1
 150 800 l 1
 250 600 l 1
 150 600 l 1
 50 800 l 1
EndSplineSet
Validated: 1
EndChar

StartChar: a
Encoding: 66 97 66
Width: 620
Flags: HMW
LayerCount: 2
Fore
SplineSet
150 175 m 0
 150 134 185 100 226 100 c 2
 270 100 l 2
 363 100 442 164 464 250 c 1
 226 250 l 2
 185 250 150 216 150 175 c 0
50 175 m 0
 50 272 128 350 225 350 c 2
 464 350 l 1
 442 436 363 500 270 500 c 0
 216 500 166 478 130 443 c 1
 60 514 l 1
 114 567 188 600 270 600 c 0
 436 600 570 466 570 300 c 2
 570 0 l 1
 470 0 l 1
 470 86 l 1
 417 29 347 0 270 0 c 2
 225 0 l 2
 128 0 50 78 50 175 c 0
EndSplineSet
Validated: 1
EndChar

StartChar: b
Encoding: 67 98 67
Width: 700
Flags: HMW
LayerCount: 2
Fore
SplineSet
50 0 m 1
 50 800 l 1
 150 800 l 1
 150 519 l 1
 203 571 274 600 350 600 c 0
 516 600 650 466 650 300 c 0
 650 134 516 0 350 0 c 0
 274 0 203 29 150 81 c 1
 150 0 l 1
 50 0 l 1
150 300 m 0
 150 190 240 100 350 100 c 0
 460 100 550 190 550 300 c 0
 550 410 460 500 350 500 c 0
 240 500 150 410 150 300 c 0
EndSplineSet
Validated: 1
EndChar

StartChar: c
Encoding: 68 99 68
Width: 610
Flags: HMW
LayerCount: 2
Fore
SplineSet
50 300 m 0
 50 466 184 600 350 600 c 0
 433 600 508 566 562 512 c 1
 491 441 l 1
 455 477 405 500 350 500 c 0
 240 500 150 410 150 300 c 0
 150 190 240 100 350 100 c 0
 404 100 454 122 490 157 c 1
 560 86 l 1
 506 33 432 0 350 0 c 0
 184 0 50 134 50 300 c 0
EndSplineSet
Validated: 1
EndChar

StartChar: d
Encoding: 69 100 69
Width: 700
Flags: HMW
LayerCount: 2
Fore
SplineSet
50 300 m 0
 50 466 184 600 350 600 c 0
 426 600 497 571 550 519 c 1
 550 800 l 1
 650 800 l 1
 650 0 l 1
 550 0 l 1
 550 81 l 1
 497 29 426 0 350 0 c 0
 184 0 50 134 50 300 c 0
150 300 m 0
 150 190 240 100 350 100 c 0
 460 100 550 190 550 300 c 0
 550 410 460 500 350 500 c 0
 240 500 150 410 150 300 c 0
EndSplineSet
Validated: 1
EndChar

StartChar: e
Encoding: 70 101 70
Width: 700
Flags: HMW
LayerCount: 2
Fore
SplineSet
156 350 m 1
 544 350 l 1
 522 436 443 500 350 500 c 0
 257 500 178 436 156 350 c 1
50 300 m 0
 50 466 184 600 350 600 c 0
 516 600 650 466 650 300 c 2
 650 250 l 1
 156 250 l 1
 178 164 257 100 350 100 c 0
 405 100 455 123 491 159 c 1
 562 88 l 1
 508 34 433 0 350 0 c 0
 184 0 50 134 50 300 c 0
EndSplineSet
Validated: 1
EndChar

StartChar: f
Encoding: 71 102 71
Width: 400
Flags: HMW
LayerCount: 2
Fore
SplineSet
50 500 m 1
 50 600 l 1
 150 600 l 1
 150 710 240 800 350 800 c 1
 350 700 l 1
 295 700 250 655 250 600 c 1
 350 600 l 1
 350 500 l 1
 250 500 l 1
 250 0 l 1
 150 0 l 1
 150 500 l 1
 50 500 l 1
EndSplineSet
Validated: 1
EndChar

StartChar: g
Encoding: 72 103 72
Width: 850
Flags: HMW
LayerCount: 2
Fore
SplineSet
150 430 m 0
 150 395 175 360 250 360 c 2
 450 360 l 1
 450 430 l 2
 450 465 425 500 350 500 c 2
 250 500 l 2
 175 500 150 465 150 430 c 0
50 -30 m 0
 50 60 120 140 250 140 c 1
 250 40 l 1
 175 40 150 5 150 -30 c 0
 150 -65 175 -100 250 -100 c 2
 600 -100 l 2
 675 -100 700 -65 700 -30 c 0
 700 5 675 40 600 40 c 2
 350 40 l 1
 350 140 l 1
 405 140 450 185 450 240 c 2
 450 260 l 1
 250 260 l 2
 120 260 50 340 50 430 c 0
 50 520 120 600 250 600 c 2
 350 600 l 2
 480 600 550 520 550 430 c 2
 550 360 l 1
 600 360 l 2
 655 360 700 405 700 460 c 2
 700 600 l 1
 800 600 l 1
 800 460 l 2
 800 350 710 260 600 260 c 2
 550 260 l 1
 550 240 l 2
 550 204 540 169 503 140 c 1
 600 140 l 2
 730 140 800 60 800 -30 c 0
 800 -120 730 -200 600 -200 c 2
 250 -200 l 2
 120 -200 50 -120 50 -30 c 0
EndSplineSet
Validated: 1
EndChar

StartChar: h
Encoding: 73 104 73
Width: 700
Flags: HMW
LayerCount: 2
Fore
SplineSet
50 0 m 1
 50 800 l 1
 150 800 l 1
 150 519 l 1
 203 571 274 600 350 600 c 0
 516 600 650 466 650 300 c 2
 650 0 l 1
 550 0 l 1
 550 300 l 2
 550 410 460 500 350 500 c 0
 240 500 150 410 150 300 c 2
 150 0 l 1
 50 0 l 1
EndSplineSet
Validated: 1
EndChar

StartChar: i
Encoding: 74 105 74
Width: 200
Flags: HMW
LayerCount: 2
Fore
SplineSet
50 0 m 1
 50 600 l 1
 150 600 l 1
 150 0 l 1
 50 0 l 1
50 700 m 1
 50 800 l 1
 150 800 l 1
 150 700 l 1
 50 700 l 1
EndSplineSet
Validated: 1
Substitution2: "'locl' Localized Forms in Latin lookup 6-1" i.locl
EndChar

StartChar: j
Encoding: 75 106 75
Width: 200
Flags: HMW
LayerCount: 2
Fore
SplineSet
50 -200 m 1
 50 600 l 1
 150 600 l 1
 150 -200 l 1
 50 -200 l 1
50 700 m 1
 50 800 l 1
 150 800 l 1
 150 700 l 1
 50 700 l 1
EndSplineSet
Validated: 1
Substitution2: "Single Substitution lookup 11-1" jacute
EndChar

StartChar: k
Encoding: 76 107 76
Width: 550
Flags: HMW
LayerCount: 2
Fore
SplineSet
50 0 m 1
 50 800 l 1
 150 800 l 1
 150 336 l 1
 370 600 l 1
 500 600 l 1
 250 300 l 1
 500 0 l 1
 370 0 l 1
 185 222 l 1
 150 180 l 1
 150 0 l 1
 50 0 l 1
EndSplineSet
Validated: 1
EndChar

StartChar: l
Encoding: 77 108 77
Width: 200
Flags: HMW
LayerCount: 2
Fore
SplineSet
50 0 m 1
 50 800 l 1
 150 800 l 1
 150 0 l 1
 50 0 l 1
EndSplineSet
Validated: 1
EndChar

StartChar: m
Encoding: 78 109 78
Width: 900
Flags: HMW
LayerCount: 2
Fore
SplineSet
50 0 m 1
 50 600 l 1
 150 600 l 1
 150 552 l 1
 186 586 229 600 275 600 c 0
 346 600 409 567 450 506 c 1
 491 567 554 600 625 600 c 0
 749 600 850 499 850 375 c 2
 850 0 l 1
 750 0 l 1
 750 375 l 2
 750 444 694 500 625 500 c 0
 556 500 500 444 500 375 c 2
 500 0 l 1
 400 0 l 1
 400 375 l 2
 400 444 344 500 275 500 c 0
 206 500 150 444 150 375 c 2
 150 0 l 1
 50 0 l 1
EndSplineSet
Validated: 1
EndChar

StartChar: n
Encoding: 79 110 79
Width: 700
Flags: HMW
LayerCount: 2
Fore
SplineSet
50 0 m 1
 50 600 l 1
 150 600 l 1
 150 519 l 1
 203 571 274 600 350 600 c 0
 516 600 650 466 650 300 c 2
 650 0 l 1
 550 0 l 1
 550 300 l 2
 550 410 460 500 350 500 c 0
 240 500 150 410 150 300 c 2
 150 0 l 1
 50 0 l 1
EndSplineSet
Validated: 1
EndChar

StartChar: o
Encoding: 80 111 80
Width: 700
Flags: HMW
LayerCount: 2
Fore
SplineSet
50 300 m 0
 50 466 184 600 350 600 c 0
 516 600 650 466 650 300 c 0
 650 134 516 0 350 0 c 0
 184 0 50 134 50 300 c 0
150 300 m 0
 150 190 240 100 350 100 c 0
 460 100 550 190 550 300 c 0
 550 410 460 500 350 500 c 0
 240 500 150 410 150 300 c 0
EndSplineSet
Validated: 1
EndChar

StartChar: p
Encoding: 81 112 81
Width: 700
Flags: HMW
LayerCount: 2
Fore
SplineSet
50 -200 m 1
 50 600 l 1
 150 600 l 1
 150 519 l 1
 203 571 274 600 350 600 c 0
 516 600 650 466 650 300 c 0
 650 134 516 0 350 0 c 0
 274 0 203 29 150 81 c 1
 150 -200 l 1
 50 -200 l 1
150 300 m 0
 150 190 240 100 350 100 c 0
 460 100 550 190 550 300 c 0
 550 410 460 500 350 500 c 0
 240 500 150 410 150 300 c 0
EndSplineSet
Validated: 1
EndChar

StartChar: q
Encoding: 82 113 82
Width: 700
Flags: HMW
LayerCount: 2
Fore
SplineSet
50 300 m 0
 50 466 184 600 350 600 c 0
 426 600 497 571 550 519 c 1
 550 600 l 1
 650 600 l 1
 650 -200 l 1
 550 -200 l 1
 550 81 l 1
 497 29 426 0 350 0 c 0
 184 0 50 134 50 300 c 0
150 300 m 0
 150 190 240 100 350 100 c 0
 460 100 550 190 550 300 c 0
 550 410 460 500 350 500 c 0
 240 500 150 410 150 300 c 0
EndSplineSet
Validated: 1
EndChar

StartChar: r
Encoding: 83 114 83
Width: 400
Flags: HMW
LayerCount: 2
Fore
SplineSet
50 0 m 1
 50 600 l 1
 150 600 l 1
 150 519 l 1
 203 571 274 600 350 600 c 1
 350 500 l 1
 240 500 150 410 150 300 c 2
 150 0 l 1
 50 0 l 1
EndSplineSet
Validated: 1
EndChar

StartChar: s
Encoding: 84 115 84
Width: 395
Flags: HMW
LayerCount: 2
Fore
SplineSet
46 51 m 1
 117 122 l 1
 131 108 150 100 170 100 c 0
 211 100 245 134 245 175 c 0
 245 236 50 308 50 425 c 0
 50 522 128 600 225 600 c 0
 273 600 317 581 349 549 c 1
 278 478 l 1
 264 492 245 500 225 500 c 0
 184 500 150 466 150 425 c 0
 150 364 345 292 345 175 c 0
 345 78 267 0 170 0 c 0
 122 0 78 19 46 51 c 1
EndSplineSet
Validated: 1
EndChar

StartChar: t
Encoding: 85 116 85
Width: 400
Flags: HMW
LayerCount: 2
Fore
SplineSet
50 500 m 1
 50 600 l 1
 150 600 l 1
 150 800 l 1
 250 800 l 1
 250 600 l 1
 350 600 l 1
 350 500 l 1
 250 500 l 1
 250 0 l 1
 150 0 l 1
 150 500 l 1
 50 500 l 1
EndSplineSet
Validated: 1
EndChar

StartChar: u
Encoding: 86 117 86
Width: 700
Flags: HMW
LayerCount: 2
Fore
SplineSet
50 300 m 2
 50 600 l 1
 150 600 l 1
 150 300 l 2
 150 190 240 100 350 100 c 0
 460 100 550 190 550 300 c 2
 550 600 l 1
 650 600 l 1
 650 0 l 1
 550 0 l 1
 550 81 l 1
 497 29 426 0 350 0 c 0
 184 0 50 134 50 300 c 2
EndSplineSet
Validated: 1
EndChar

StartChar: v
Encoding: 87 118 87
Width: 700
Flags: HMW
LayerCount: 2
Fore
SplineSet
50 600 m 1
 150 600 l 1
 350 110 l 1
 550 600 l 1
 650 600 l 1
 400 0 l 1
 300 0 l 1
 50 600 l 1
EndSplineSet
Validated: 1
EndChar

StartChar: w
Encoding: 88 119 88
Width: 1000
Flags: HMW
LayerCount: 2
Fore
SplineSet
50 600 m 1
 150 600 l 1
 300 110 l 1
 450 600 l 1
 550 600 l 1
 710 110 l 1
 850 600 l 1
 950 600 l 1
 760 0 l 1
 650 0 l 1
 500 480 l 1
 360 0 l 1
 250 0 l 1
 50 600 l 1
EndSplineSet
Validated: 1
EndChar

StartChar: x
Encoding: 89 120 89
Width: 550
Flags: HMW
LayerCount: 2
Fore
SplineSet
50 0 m 1
 225 300 l 1
 50 600 l 1
 150 600 l 1
 275 380 l 1
 400 600 l 1
 500 600 l 1
 325 300 l 1
 500 0 l 1
 400 0 l 1
 275 220 l 1
 150 0 l 1
 50 0 l 1
EndSplineSet
Validated: 1
EndChar

StartChar: y
Encoding: 90 121 90
Width: 700
Flags: HMW
LayerCount: 2
Fore
SplineSet
50 600 m 1
 150 600 l 1
 350 110 l 1
 550 600 l 1
 650 600 l 1
 318 -200 l 1
 218 -200 l 1
 300 0 l 1
 50 600 l 1
EndSplineSet
Validated: 1
EndChar

StartChar: z
Encoding: 91 122 91
Width: 550
Flags: HMW
LayerCount: 2
Fore
SplineSet
50 0 m 1
 50 100 l 1
 370 500 l 1
 50 500 l 1
 50 600 l 1
 500 600 l 1
 500 500 l 1
 180 100 l 1
 500 100 l 1
 500 0 l 1
 50 0 l 1
EndSplineSet
Validated: 1
EndChar

StartChar: braceleft
Encoding: 92 123 92
Width: 350
Flags: HMW
LayerCount: 2
Fore
SplineSet
50 250 m 1
 50 350 l 1
 105 350 150 395 150 450 c 0
 150 505 100 540 100 600 c 0
 100 710 190 800 300 800 c 1
 300 700 l 1
 245 700 200 655 200 600 c 0
 200 565 250 510 250 450 c 0
 250 390 224 337 172 300 c 1
 224 263 250 210 250 150 c 0
 250 90 200 35 200 0 c 0
 200 -55 245 -100 300 -100 c 1
 300 -200 l 1
 190 -200 100 -110 100 0 c 0
 100 60 150 95 150 150 c 0
 150 205 105 250 50 250 c 1
EndSplineSet
Validated: 1
EndChar

StartChar: bar
Encoding: 93 124 93
Width: 200
Flags: HMW
LayerCount: 2
Fore
SplineSet
50 -200 m 1
 50 800 l 1
 150 800 l 1
 150 -200 l 1
 50 -200 l 1
EndSplineSet
Validated: 1
EndChar

StartChar: braceright
Encoding: 94 125 94
Width: 350
Flags: HMW
LayerCount: 2
Fore
SplineSet
50 -100 m 1
 105 -100 150 -55 150 0 c 0
 150 35 100 90 100 150 c 0
 100 210 126 263 178 300 c 1
 126 337 100 390 100 450 c 0
 100 510 150 565 150 600 c 0
 150 655 105 700 50 700 c 1
 50 800 l 1
 160 800 250 710 250 600 c 0
 250 540 200 505 200 450 c 0
 200 395 245 350 300 350 c 1
 300 250 l 1
 245 250 200 205 200 150 c 0
 200 95 250 60 250 0 c 0
 250 -110 160 -200 50 -200 c 1
 50 -100 l 1
EndSplineSet
Validated: 1
EndChar

StartChar: asciitilde
Encoding: 95 126 95
Width: 700
Flags: HMW
LayerCount: 2
Fore
SplineSet
50 300 m 1
 50 410 140 500 250 500 c 0
 320 500 405 400 450 400 c 0
 505 400 550 445 550 500 c 1
 650 500 l 1
 650 390 560 300 450 300 c 0
 380 300 295 400 250 400 c 0
 195 400 150 355 150 300 c 1
 50 300 l 1
EndSplineSet
Validated: 1
EndChar

StartChar: Adieresis
Encoding: 96 196 96
Width: 700
Flags: HMW
LayerCount: 2
Fore
SplineSet
200 900 m 1
 200 1000 l 1
 300 1000 l 1
 300 900 l 1
 200 900 l 1
400 900 m 1
 400 1000 l 1
 500 1000 l 1
 500 900 l 1
 400 900 l 1
226 250 m 1
 474 250 l 1
 350 660 l 1
 226 250 l 1
50 0 m 1
 300 800 l 1
 400 800 l 1
 650 0 l 1
 550 0 l 1
 505 150 l 1
 195 150 l 1
 150 0 l 1
 50 0 l 1
EndSplineSet
Validated: 1
EndChar

StartChar: Aring
Encoding: 97 197 97
Width: 700
Flags: HMW
LayerCount: 2
Fore
SplineSet
270 920 m 0
 270 964 306 1000 350 1000 c 0
 394 1000 430 964 430 920 c 0
 430 876 394 840 350 840 c 0
 306 840 270 876 270 920 c 0
320 920 m 0
 320 903 333 890 350 890 c 0
 367 890 380 903 380 920 c 0
 380 937 367 950 350 950 c 0
 333 950 320 937 320 920 c 0
226 250 m 1
 474 250 l 1
 350 660 l 1
 226 250 l 1
50 0 m 1
 300 800 l 1
 400 800 l 1
 650 0 l 1
 550 0 l 1
 505 150 l 1
 195 150 l 1
 150 0 l 1
 50 0 l 1
EndSplineSet
Validated: 1
EndChar

StartChar: Ccedilla
Encoding: 98 199 98
Width: 780
Flags: HMW
LayerCount: 2
Fore
SplineSet
50 400 m 0
 50 621 229 800 450 800 c 0
 560 800 661 755 733 683 c 1
 662 612 l 1
 608 666 533 700 450 700 c 0
 284 700 150 566 150 400 c 0
 150 234 284 100 450 100 c 0
 534 100 609 134 663 189 c 1
 734 118 l 1
 668 51 577 8 477 1 c 1
 476 -5 l 1
 507 -16 530 -45 530 -80 c 0
 530 -124 494 -160 440 -160 c 0
 420 -160 400 -160 370 -140 c 1
 370 -90 l 1
 400 -110 423 -110 440 -110 c 0
 467 -110 480 -97 480 -80 c 0
 480 -63 467 -50 450 -50 c 2
 410 -50 l 1
 417 1 l 1
 211 18 50 190 50 400 c 0
EndSplineSet
Validated: 1
EndChar

StartChar: Eacute
Encoding: 99 201 99
Width: 550
Flags: HMW
LayerCount: 2
Fore
SplineSet
235 850 m 1
 285 1000 l 1
 385 1000 l 1
 315 850 l 1
 235 850 l 1
50 0 m 1
 50 800 l 1
 500 800 l 1
 500 700 l 1
 150 700 l 1
 150 450 l 1
 400 450 l 1
 400 350 l 1
 150 350 l 1
 150 100 l 1
 500 100 l 1
 500 0 l 1
 50 0 l 1
EndSplineSet
Validated: 1
EndChar

StartChar: Ntilde
Encoding: 100 209 100
Width: 700
Flags: HMW
LayerCount: 2
Fore
SplineSet
125 850 m 1
 125 933 192 1000 275 1000 c 0
 319 1000 381 950 425 950 c 0
 453 950 475 972 475 1000 c 1
 575 1000 l 1
 575 917 508 850 425 850 c 0
 381 850 319 900 275 900 c 0
 247 900 225 878 225 850 c 1
 125 850 l 1
50 0 m 1
 50 800 l 1
 150 800 l 1
 550 180 l 1
 550 800 l 1
 650 800 l 1
 650 0 l 1
 550 0 l 1
 150 620 l 1
 150 0 l 1
 50 0 l 1
EndSplineSet
Validated: 1
EndChar

StartChar: Odieresis
Encoding: 101 214 101
Width: 900
Flags: HMW
LayerCount: 2
Fore
SplineSet
300 900 m 1
 300 1000 l 1
 400 1000 l 1
 400 900 l 1
 300 900 l 1
500 900 m 1
 500 1000 l 1
 600 1000 l 1
 600 900 l 1
 500 900 l 1
50 400 m 0
 50 621 229 800 450 800 c 0
 671 800 850 621 850 400 c 0
 850 179 671 0 450 0 c 0
 229 0 50 179 50 400 c 0
150 400 m 0
 150 234 284 100 450 100 c 0
 616 100 750 234 750 400 c 0
 750 566 616 700 450 700 c 0
 284 700 150 566 150 400 c 0
EndSplineSet
Validated: 1
EndChar

StartChar: Udieresis
Encoding: 102 220 102
Width: 700
Flags: HMW
LayerCount: 2
Fore
SplineSet
200 900 m 1
 200 1000 l 1
 300 1000 l 1
 300 900 l 1
 200 900 l 1
400 900 m 1
 400 1000 l 1
 500 1000 l 1
 500 900 l 1
 400 900 l 1
50 300 m 2
 50 800 l 1
 150 800 l 1
 150 300 l 2
 150 190 240 100 350 100 c 0
 460 100 550 190 550 300 c 2
 550 800 l 1
 650 800 l 1
 650 300 l 2
 650 134 516 0 350 0 c 0
 184 0 50 134 50 300 c 2
EndSplineSet
Validated: 1
EndChar

StartChar: aacute
Encoding: 103 225 103
Width: 620
Flags: HMW
LayerCount: 2
Fore
SplineSet
230 650 m 1
 280 800 l 1
 380 800 l 1
 310 650 l 1
 230 650 l 1
150 175 m 0
 150 134 185 100 226 100 c 2
 270 100 l 2
 363 100 442 164 464 250 c 1
 226 250 l 2
 185 250 150 216 150 175 c 0
50 175 m 0
 50 272 128 350 225 350 c 2
 464 350 l 1
 442 436 363 500 270 500 c 0
 216 500 166 478 130 443 c 1
 60 514 l 1
 114 567 188 600 270 600 c 0
 436 600 570 466 570 300 c 2
 570 0 l 1
 470 0 l 1
 470 86 l 1
 417 29 347 0 270 0 c 2
 225 0 l 2
 128 0 50 78 50 175 c 0
EndSplineSet
Validated: 1
EndChar

StartChar: agrave
Encoding: 104 224 104
Width: 620
Flags: HMW
LayerCount: 2
Fore
SplineSet
160 800 m 1
 260 800 l 1
 310 650 l 1
 230 650 l 1
 160 800 l 1
150 175 m 0
 150 134 185 100 226 100 c 2
 270 100 l 2
 363 100 442 164 464 250 c 1
 226 250 l 2
 185 250 150 216 150 175 c 0
50 175 m 0
 50 272 128 350 225 350 c 2
 464 350 l 1
 442 436 363 500 270 500 c 0
 216 500 166 478 130 443 c 1
 60 514 l 1
 114 567 188 600 270 600 c 0
 436 600 570 466 570 300 c 2
 570 0 l 1
 470 0 l 1
 470 86 l 1
 417 29 347 0 270 0 c 2
 225 0 l 2
 128 0 50 78 50 175 c 0
EndSplineSet
Validated: 1
EndChar

StartChar: acircumflex
Encoding: 105 226 105
Width: 620
Flags: HMW
LayerCount: 2
Fore
SplineSet
120 650 m 1
 220 800 l 1
 320 800 l 1
 420 650 l 1
 320 650 l 1
 270 740 l 1
 220 650 l 1
 120 650 l 1
150 175 m 0
 150 134 185 100 226 100 c 2
 270 100 l 2
 363 100 442 164 464 250 c 1
 226 250 l 2
 185 250 150 216 150 175 c 0
50 175 m 0
 50 272 128 350 225 350 c 2
 464 350 l 1
 442 436 363 500 270 500 c 0
 216 500 166 478 130 443 c 1
 60 514 l 1
 114 567 188 600 270 600 c 0
 436 600 570 466 570 300 c 2
 570 0 l 1
 470 0 l 1
 470 86 l 1
 417 29 347 0 270 0 c 2
 225 0 l 2
 128 0 50 78 50 175 c 0
EndSplineSet
Validated: 1
EndChar

StartChar: adieresis
Encoding: 106 228 106
Width: 620
Flags: HMW
LayerCount: 2
Fore
SplineSet
120 700 m 1
 120 800 l 1
 220 800 l 1
 220 700 l 1
 120 700 l 1
320 700 m 1
 320 800 l 1
 420 800 l 1
 420 700 l 1
 320 700 l 1
150 175 m 0
 150 134 185 100 226 100 c 2
 270 100 l 2
 363 100 442 164 464 250 c 1
 226 250 l 2
 185 250 150 216 150 175 c 0
50 175 m 0
 50 272 128 350 225 350 c 2
 464 350 l 1
 442 436 363 500 270 500 c 0
 216 500 166 478 130 443 c 1
 60 514 l 1
 114 567 188 600 270 600 c 0
 436 600 570 466 570 300 c 2
 570 0 l 1
 470 0 l 1
 470 86 l 1
 417 29 347 0 270 0 c 2
 225 0 l 2
 128 0 50 78 50 175 c 0
EndSplineSet
Validated: 1
EndChar

StartChar: atilde
Encoding: 107 227 107
Width: 620
Flags: HMW
LayerCount: 2
Fore
SplineSet
45 650 m 1
 45 733 112 800 195 800 c 0
 239 800 301 750 345 750 c 0
 373 750 395 772 395 800 c 1
 495 800 l 1
 495 717 428 650 345 650 c 0
 301 650 239 700 195 700 c 0
 167 700 145 678 145 650 c 1
 45 650 l 1
150 175 m 0
 150 134 185 100 226 100 c 2
 270 100 l 2
 363 100 442 164 464 250 c 1
 226 250 l 2
 185 250 150 216 150 175 c 0
50 175 m 0
 50 272 128 350 225 350 c 2
 464 350 l 1
 442 436 363 500 270 500 c 0
 216 500 166 478 130 443 c 1
 60 514 l 1
 114 567 188 600 270 600 c 0
 436 600 570 466 570 300 c 2
 570 0 l 1
 470 0 l 1
 470 86 l 1
 417 29 347 0 270 0 c 2
 225 0 l 2
 128 0 50 78 50 175 c 0
EndSplineSet
Validated: 1
EndChar

StartChar: aring
Encoding: 108 229 108
Width: 620
Flags: HMW
LayerCount: 2
Fore
SplineSet
190 720 m 0
 190 764 226 800 270 800 c 0
 314 800 350 764 350 720 c 0
 350 676 314 640 270 640 c 0
 226 640 190 676 190 720 c 0
240 720 m 0
 240 703 253 690 270 690 c 0
 287 690 300 703 300 720 c 0
 300 737 287 750 270 750 c 0
 253 750 240 737 240 720 c 0
150 175 m 0
 150 134 185 100 226 100 c 2
 270 100 l 2
 363 100 442 164 464 250 c 1
 226 250 l 2
 185 250 150 216 150 175 c 0
50 175 m 0
 50 272 128 350 225 350 c 2
 464 350 l 1
 442 436 363 500 270 500 c 0
 216 500 166 478 130 443 c 1
 60 514 l 1
 114 567 188 600 270 600 c 0
 436 600 570 466 570 300 c 2
 570 0 l 1
 470 0 l 1
 470 86 l 1
 417 29 347 0 270 0 c 2
 225 0 l 2
 128 0 50 78 50 175 c 0
EndSplineSet
Validated: 1
EndChar

StartChar: ccedilla
Encoding: 109 231 109
Width: 610
Flags: HMW
LayerCount: 2
Fore
SplineSet
50 300 m 0
 50 466 184 600 350 600 c 0
 433 600 508 566 562 512 c 1
 491 441 l 1
 455 477 405 500 350 500 c 0
 240 500 150 410 150 300 c 0
 150 190 240 100 350 100 c 0
 404 100 454 122 490 157 c 1
 560 86 l 1
 512 39 448 7 377 1 c 1
 376 -5 l 1
 407 -16 430 -45 430 -80 c 0
 430 -124 394 -160 340 -160 c 0
 320 -160 300 -160 270 -140 c 1
 270 -90 l 1
 300 -110 323 -110 340 -110 c 0
 367 -110 380 -97 380 -80 c 0
 380 -63 367 -50 350 -50 c 2
 310 -50 l 1
 317 2 l 1
 166 18 50 145 50 300 c 0
EndSplineSet
Validated: 1
EndChar

StartChar: eacute
Encoding: 110 233 110
Width: 700
Flags: HMW
LayerCount: 2
Fore
SplineSet
310 650 m 1
 360 800 l 1
 460 800 l 1
 390 650 l 1
 310 650 l 1
156 350 m 1
 544 350 l 1
 522 436 443 500 350 500 c 0
 257 500 178 436 156 350 c 1
50 300 m 0
 50 466 184 600 350 600 c 0
 516 600 650 466 650 300 c 2
 650 250 l 1
 156 250 l 1
 178 164 257 100 350 100 c 0
 405 100 455 123 491 159 c 1
 562 88 l 1
 508 34 433 0 350 0 c 0
 184 0 50 134 50 300 c 0
EndSplineSet
Validated: 1
EndChar

StartChar: egrave
Encoding: 111 232 111
Width: 700
Flags: HMW
LayerCount: 2
Fore
SplineSet
240 800 m 1
 340 800 l 1
 390 650 l 1
 310 650 l 1
 240 800 l 1
156 350 m 1
 544 350 l 1
 522 436 443 500 350 500 c 0
 257 500 178 436 156 350 c 1
50 300 m 0
 50 466 184 600 350 600 c 0
 516 600 650 466 650 300 c 2
 650 250 l 1
 156 250 l 1
 178 164 257 100 350 100 c 0
 405 100 455 123 491 159 c 1
 562 88 l 1
 508 34 433 0 350 0 c 0
 184 0 50 134 50 300 c 0
EndSplineSet
Validated: 1
EndChar

StartChar: ecircumflex
Encoding: 112 234 112
Width: 700
Flags: HMW
LayerCount: 2
Fore
SplineSet
200 650 m 1
 300 800 l 1
 400 800 l 1
 500 650 l 1
 400 650 l 1
 350 740 l 1
 300 650 l 1
 200 650 l 1
156 350 m 1
 544 350 l 1
 522 436 443 500 350 500 c 0
 257 500 178 436 156 350 c 1
50 300 m 0
 50 466 184 600 350 600 c 0
 516 600 650 466 650 300 c 2
 650 250 l 1
 156 250 l 1
 178 164 257 100 350 100 c 0
 405 100 455 123 491 159 c 1
 562 88 l 1
 508 34 433 0 350 0 c 0
 184 0 50 134 50 300 c 0
EndSplineSet
Validated: 1
EndChar

StartChar: edieresis
Encoding: 113 235 113
Width: 700
Flags: HMW
LayerCount: 2
Fore
SplineSet
200 700 m 1
 200 800 l 1
 300 800 l 1
 300 700 l 1
 200 700 l 1
400 700 m 1
 400 800 l 1
 500 800 l 1
 500 700 l 1
 400 700 l 1
156 350 m 1
 544 350 l 1
 522 436 443 500 350 500 c 0
 257 500 178 436 156 350 c 1
50 300 m 0
 50 466 184 600 350 600 c 0
 516 600 650 466 650 300 c 2
 650 250 l 1
 156 250 l 1
 178 164 257 100 350 100 c 0
 405 100 455 123 491 159 c 1
 562 88 l 1
 508 34 433 0 350 0 c 0
 184 0 50 134 50 300 c 0
EndSplineSet
Validated: 1
EndChar

StartChar: iacute
Encoding: 114 237 114
Width: 200
Flags: HMW
LayerCount: 2
Fore
SplineSet
60 650 m 1
 110 800 l 1
 210 800 l 1
 140 650 l 1
 60 650 l 1
50 0 m 1
 50 600 l 1
 150 600 l 1
 150 0 l 1
 50 0 l 1
EndSplineSet
Validated: 1
Substitution2: "'locl' Localized Forms in Latin lookup 7-1" iacute.locl
EndChar

StartChar: igrave
Encoding: 115 236 115
Width: 200
Flags: HMW
LayerCount: 2
Fore
SplineSet
-10 800 m 1
 90 800 l 1
 140 650 l 1
 60 650 l 1
 -10 800 l 1
50 0 m 1
 50 600 l 1
 150 600 l 1
 150 0 l 1
 50 0 l 1
EndSplineSet
Validated: 1
EndChar

StartChar: icircumflex
Encoding: 116 238 116
Width: 200
Flags: HMW
LayerCount: 2
Fore
SplineSet
-50 650 m 1
 50 800 l 1
 150 800 l 1
 250 650 l 1
 150 650 l 1
 100 740 l 1
 50 650 l 1
 -50 650 l 1
50 0 m 1
 50 600 l 1
 150 600 l 1
 150 0 l 1
 50 0 l 1
EndSplineSet
Validated: 1
EndChar

StartChar: idieresis
Encoding: 117 239 117
Width: 200
Flags: HMW
LayerCount: 2
Fore
SplineSet
-50 700 m 1
 -50 800 l 1
 50 800 l 1
 50 700 l 1
 -50 700 l 1
150 700 m 1
 150 800 l 1
 250 800 l 1
 250 700 l 1
 150 700 l 1
50 0 m 1
 50 600 l 1
 150 600 l 1
 150 0 l 1
 50 0 l 1
EndSplineSet
Validated: 1
EndChar

StartChar: ntilde
Encoding: 118 241 118
Width: 700
Flags: HMW
LayerCount: 2
Fore
SplineSet
125 650 m 1
 125 733 192 800 275 800 c 0
 319 800 381 750 425 750 c 0
 453 750 475 772 475 800 c 1
 575 800 l 1
 575 717 508 650 425 650 c 0
 381 650 319 700 275 700 c 0
 247 700 225 678 225 650 c 1
 125 650 l 1
50 0 m 1
 50 600 l 1
 150 600 l 1
 150 519 l 1
 203 571 274 600 350 600 c 0
 516 600 650 466 650 300 c 2
 650 0 l 1
 550 0 l 1
 550 300 l 2
 550 410 460 500 350 500 c 0
 240 500 150 410 150 300 c 2
 150 0 l 1
 50 0 l 1
EndSplineSet
Validated: 1
EndChar

StartChar: oacute
Encoding: 119 243 119
Width: 700
Flags: HMW
LayerCount: 2
Fore
SplineSet
310 650 m 1
 360 800 l 1
 460 800 l 1
 390 650 l 1
 310 650 l 1
50 300 m 0
 50 466 184 600 350 600 c 0
 516 600 650 466 650 300 c 0
 650 134 516 0 350 0 c 0
 184 0 50 134 50 300 c 0
150 300 m 0
 150 190 240 100 350 100 c 0
 460 100 550 190 550 300 c 0
 550 410 460 500 350 500 c 0
 240 500 150 410 150 300 c 0
EndSplineSet
Validated: 1
EndChar

StartChar: ograve
Encoding: 120 242 120
Width: 700
Flags: HMW
LayerCount: 2
Fore
SplineSet
240 800 m 1
 340 800 l 1
 390 650 l 1
 310 650 l 1
 240 800 l 1
50 300 m 0
 50 466 184 600 350 600 c 0
 516 600 650 466 650 300 c 0
 650 134 516 0 350 0 c 0
 184 0 50 134 50 300 c 0
150 300 m 0
 150 190 240 100 350 100 c 0
 460 100 550 190 550 300 c 0
 550 410 460 500 350 500 c 0
 240 500 150 410 150 300 c 0
EndSplineSet
Validated: 1
EndChar

StartChar: ocircumflex
Encoding: 121 244 121
Width: 700
Flags: HMW
LayerCount: 2
Fore
SplineSet
200 650 m 1
 300 800 l 1
 400 800 l 1
 500 650 l 1
 400 650 l 1
 350 740 l 1
 300 650 l 1
 200 650 l 1
50 300 m 0
 50 466 184 600 350 600 c 0
 516 600 650 466 650 300 c 0
 650 134 516 0 350 0 c 0
 184 0 50 134 50 300 c 0
150 300 m 0
 150 190 240 100 350 100 c 0
 460 100 550 190 550 300 c 0
 550 410 460 500 350 500 c 0
 240 500 150 410 150 300 c 0
EndSplineSet
Validated: 1
EndChar

StartChar: odieresis
Encoding: 122 246 122
Width: 700
Flags: HMW
LayerCount: 2
Fore
SplineSet
200 700 m 1
 200 800 l 1
 300 800 l 1
 300 700 l 1
 200 700 l 1
400 700 m 1
 400 800 l 1
 500 800 l 1
 500 700 l 1
 400 700 l 1
50 300 m 0
 50 466 184 600 350 600 c 0
 516 600 650 466 650 300 c 0
 650 134 516 0 350 0 c 0
 184 0 50 134 50 300 c 0
150 300 m 0
 150 190 240 100 350 100 c 0
 460 100 550 190 550 300 c 0
 550 410 460 500 350 500 c 0
 240 500 150 410 150 300 c 0
EndSplineSet
Validated: 1
EndChar

StartChar: otilde
Encoding: 123 245 123
Width: 700
Flags: HMW
LayerCount: 2
Fore
SplineSet
125 650 m 1
 125 733 192 800 275 800 c 0
 319 800 381 750 425 750 c 0
 453 750 475 772 475 800 c 1
 575 800 l 1
 575 717 508 650 425 650 c 0
 381 650 319 700 275 700 c 0
 247 700 225 678 225 650 c 1
 125 650 l 1
50 300 m 0
 50 466 184 600 350 600 c 0
 516 600 650 466 650 300 c 0
 650 134 516 0 350 0 c 0
 184 0 50 134 50 300 c 0
150 300 m 0
 150 190 240 100 350 100 c 0
 460 100 550 190 550 300 c 0
 550 410 460 500 350 500 c 0
 240 500 150 410 150 300 c 0
EndSplineSet
Validated: 1
EndChar

StartChar: uacute
Encoding: 124 250 124
Width: 700
Flags: HMW
LayerCount: 2
Fore
SplineSet
310 650 m 1
 360 800 l 1
 460 800 l 1
 390 650 l 1
 310 650 l 1
50 300 m 2
 50 600 l 1
 150 600 l 1
 150 300 l 2
 150 190 240 100 350 100 c 0
 460 100 550 190 550 300 c 2
 550 600 l 1
 650 600 l 1
 650 0 l 1
 550 0 l 1
 550 81 l 1
 497 29 426 0 350 0 c 0
 184 0 50 134 50 300 c 2
EndSplineSet
Validated: 1
EndChar

StartChar: ugrave
Encoding: 125 249 125
Width: 700
Flags: HMW
LayerCount: 2
Fore
SplineSet
240 800 m 1
 340 800 l 1
 390 650 l 1
 310 650 l 1
 240 800 l 1
50 300 m 2
 50 600 l 1
 150 600 l 1
 150 300 l 2
 150 190 240 100 350 100 c 0
 460 100 550 190 550 300 c 2
 550 600 l 1
 650 600 l 1
 650 0 l 1
 550 0 l 1
 550 81 l 1
 497 29 426 0 350 0 c 0
 184 0 50 134 50 300 c 2
EndSplineSet
Validated: 1
EndChar

StartChar: ucircumflex
Encoding: 126 251 126
Width: 700
Flags: HMW
LayerCount: 2
Fore
SplineSet
200 650 m 1
 300 800 l 1
 400 800 l 1
 500 650 l 1
 400 650 l 1
 350 740 l 1
 300 650 l 1
 200 650 l 1
50 300 m 2
 50 600 l 1
 150 600 l 1
 150 300 l 2
 150 190 240 100 350 100 c 0
 460 100 550 190 550 300 c 2
 550 600 l 1
 650 600 l 1
 650 0 l 1
 550 0 l 1
 550 81 l 1
 497 29 426 0 350 0 c 0
 184 0 50 134 50 300 c 2
EndSplineSet
Validated: 1
EndChar

StartChar: udieresis
Encoding: 127 252 127
Width: 700
Flags: HMW
LayerCount: 2
Fore
SplineSet
200 700 m 1
 200 800 l 1
 300 800 l 1
 300 700 l 1
 200 700 l 1
400 700 m 1
 400 800 l 1
 500 800 l 1
 500 700 l 1
 400 700 l 1
50 300 m 2
 50 600 l 1
 150 600 l 1
 150 300 l 2
 150 190 240 100 350 100 c 0
 460 100 550 190 550 300 c 2
 550 600 l 1
 650 600 l 1
 650 0 l 1
 550 0 l 1
 550 81 l 1
 497 29 426 0 350 0 c 0
 184 0 50 134 50 300 c 2
EndSplineSet
Validated: 1
EndChar

StartChar: dagger
Encoding: 128 8224 128
Width: 400
Flags: HMW
LayerCount: 2
Fore
SplineSet
50 600 m 1
 50 700 l 1
 150 700 l 1
 150 800 l 1
 250 800 l 1
 250 700 l 1
 350 700 l 1
 350 600 l 1
 250 600 l 1
 250 300 l 1
 150 300 l 1
 150 600 l 1
 50 600 l 1
EndSplineSet
Validated: 1
EndChar

StartChar: degree
Encoding: 129 176 129
Width: 400
Flags: HMW
LayerCount: 2
Fore
SplineSet
150 650 m 0
 150 622 172 600 200 600 c 0
 228 600 250 622 250 650 c 0
 250 678 228 700 200 700 c 0
 172 700 150 678 150 650 c 0
50 650 m 0
 50 733 117 800 200 800 c 0
 283 800 350 733 350 650 c 0
 350 567 283 500 200 500 c 0
 117 500 50 567 50 650 c 0
EndSplineSet
Validated: 1
EndChar

StartChar: cent
Encoding: 130 162 130
Width: 610
Flags: HMW
LayerCount: 2
Fore
SplineSet
150 300 m 0
 150 207 214 128 300 106 c 1
 300 494 l 1
 214 472 150 393 150 300 c 0
50 300 m 0
 50 449 158 572 300 596 c 1
 300 700 l 1
 400 700 l 1
 400 596 l 1
 463 585 519 555 562 512 c 1
 491 441 l 1
 466 466 435 485 400 494 c 1
 400 106 l 1
 434 115 465 133 490 157 c 1
 560 86 l 1
 517 44 462 14 400 4 c 1
 400 -100 l 1
 300 -100 l 1
 300 4 l 1
 158 28 50 151 50 300 c 0
EndSplineSet
Validated: 1
EndChar

StartChar: sterling
Encoding: 131 163 131
Width: 800
Flags: HMW
LayerCount: 2
Fore
SplineSet
50 150 m 0
 50 233 140 300 250 300 c 0
 274 300 302 293 333 282 c 1
 326 320 317 361 310 400 c 1
 210 400 l 1
 210 500 l 1
 294 500 l 1
 292 519 290 536 290 550 c 0
 290 686 404 800 540 800 c 0
 623 800 698 766 752 712 c 1
 681 641 l 1
 645 677 595 700 540 700 c 0
 460 700 390 630 390 550 c 0
 390 536 392 519 394 500 c 1
 560 500 l 1
 560 400 l 1
 410 400 l 1
 421 343 434 282 442 231 c 1
 553 173 671 100 750 100 c 1
 750 0 l 1
 673 0 557 71 448 128 c 1
 434 55 350 0 250 0 c 0
 140 0 50 67 50 150 c 0
150 150 m 0
 150 122 195 100 250 100 c 0
 305 100 350 122 350 150 c 0
 350 158 350 166 349 175 c 1
 312 190 278 200 250 200 c 0
 195 200 150 178 150 150 c 0
EndSplineSet
Validated: 1
EndChar

StartChar: section
Encoding: 132 167 132
Width: 525
Flags: HMW
LayerCount: 2
Fore
SplineSet
150 425 m 0
 150 384 257 300 300 300 c 0
 341 300 375 334 375 375 c 0
 375 419 268 500 225 500 c 0
 184 500 150 454 150 425 c 0
46 51 m 1
 117 122 l 1
 131 108 150 100 170 100 c 0
 211 100 245 134 245 175 c 0
 245 236 50 308 50 425 c 0
 50 508 107 577 184 595 c 1
 181 605 180 615 180 625 c 0
 180 722 258 800 355 800 c 0
 403 800 447 781 479 749 c 1
 408 678 l 1
 394 692 375 700 355 700 c 0
 314 700 280 666 280 625 c 0
 280 564 475 492 475 375 c 0
 475 292 418 223 341 205 c 1
 344 195 345 185 345 175 c 0
 345 78 267 0 170 0 c 0
 122 0 78 19 46 51 c 1
EndSplineSet
Validated: 1
EndChar

StartChar: bullet
Encoding: 133 8226 133
Width: 300
Flags: HMW
LayerCount: 2
Fore
SplineSet
50 400 m 0
 50 455 95 500 150 500 c 0
 205 500 250 455 250 400 c 0
 250 345 205 300 150 300 c 0
 95 300 50 345 50 400 c 0
EndSplineSet
Validated: 1
EndChar

StartChar: paragraph
Encoding: 134 182 134
Width: 650
Flags: HMW
LayerCount: 2
Fore
SplineSet
50 600 m 0
 50 710 140 800 250 800 c 2
 600 800 l 1
 600 700 l 1
 550 700 l 1
 550 0 l 1
 450 0 l 1
 450 700 l 1
 400 700 l 1
 400 0 l 1
 300 0 l 1
 300 400 l 1
 250 400 l 2
 140 400 50 490 50 600 c 0
150 600 m 0
 150 545 195 500 250 500 c 2
 300 500 l 1
 300 700 l 1
 250 700 l 2
 195 700 150 655 150 600 c 0
EndSplineSet
Validated: 1
EndChar

StartChar: germandbls
Encoding: 135 223 135
Width: 650
Flags: HMW
LayerCount: 2
Fore
SplineSet
50 0 m 1
 50 575 l 2
 50 699 151 800 325 800 c 0
 499 800 600 699 600 575 c 0
 600 504 568 441 505 400 c 1
 568 359 600 296 600 225 c 0
 600 101 499 0 325 0 c 0
 288 0 255 10 225 18 c 1
 225 118 l 1
 251 107 284 100 325 100 c 0
 444 100 500 156 500 225 c 0
 500 294 444 350 325 350 c 2
 250 350 l 1
 250 450 l 1
 325 450 l 2
 444 450 500 506 500 575 c 0
 500 644 444 700 325 700 c 0
 206 700 150 644 150 575 c 2
 150 0 l 1
 50 0 l 1
EndSplineSet
Validated: 1
EndChar

StartChar: registered
Encoding: 136 174 136
Width: 900
Flags: HMW
LayerCount: 2
Fore
SplineSet
400 450 m 1
 475 450 l 2
 489 450 500 461 500 475 c 0
 500 489 489 500 475 500 c 2
 400 500 l 1
 400 450 l 1
300 200 m 1
 300 600 l 1
 475 600 l 2
 544 600 600 544 600 475 c 0
 600 422 567 377 521 359 c 1
 600 200 l 1
 500 200 l 1
 425 350 l 1
 400 350 l 1
 400 200 l 1
 300 200 l 1
150 400 m 0
 150 234 284 100 450 100 c 0
 616 100 750 234 750 400 c 0
 750 566 616 700 450 700 c 0
 284 700 150 566 150 400 c 0
50 400 m 0
 50 621 229 800 450 800 c 0
 671 800 850 621 850 400 c 0
 850 179 671 0 450 0 c 0
 229 0 50 179 50 400 c 0
EndSplineSet
Validated: 1
EndChar

StartChar: copyright
Encoding: 137 169 137
Width: 900
Flags: HMW
LayerCount: 2
Fore
SplineSet
50 400 m 0
 50 621 229 800 450 800 c 0
 671 800 850 621 850 400 c 0
 850 179 671 0 450 0 c 0
 229 0 50 179 50 400 c 0
150 400 m 0
 150 234 284 100 450 100 c 0
 616 100 750 234 750 400 c 0
 750 566 616 700 450 700 c 0
 284 700 150 566 150 400 c 0
250 400 m 0
 250 510 340 600 450 600 c 0
 505 600 555 577 591 541 c 1
 521 471 l 1
 503 489 478 500 450 500 c 0
 395 500 350 455 350 400 c 0
 350 345 395 300 450 300 c 0
 478 300 503 311 521 329 c 1
 591 259 l 1
 555 223 505 200 450 200 c 0
 340 200 250 290 250 400 c 0
EndSplineSet
Validated: 1
EndChar

StartChar: trademark
Encoding: 138 8482 138
Width: 1140
Flags: HMW
LayerCount: 2
Fore
SplineSet
50 750 m 1
 50 850 l 1
 450 850 l 1
 450 750 l 1
 300 750 l 1
 300 400 l 1
 200 400 l 1
 200 750 l 1
 50 750 l 1
550 400 m 1
 550 850 l 1
 670 850 l 1
 820 610 l 1
 970 850 l 1
 1090 850 l 1
 1090 400 l 1
 990 400 l 1
 990 710 l 1
 870 500 l 1
 770 500 l 1
 650 710 l 1
 650 400 l 1
 550 400 l 1
EndSplineSet
Validated: 1
EndChar

StartChar: acute
Encoding: 139 180 139
Width: 300
Flags: HMW
LayerCount: 2
Fore
SplineSet
50 600 m 1
 150 800 l 1
 250 800 l 1
 150 600 l 1
 50 600 l 1
EndSplineSet
Validated: 1
EndChar

StartChar: dieresis
Encoding: 140 168 140
Width: 400
Flags: HMW
LayerCount: 2
Fore
SplineSet
50 700 m 1
 50 800 l 1
 150 800 l 1
 150 700 l 1
 50 700 l 1
250 700 m 1
 250 800 l 1
 350 800 l 1
 350 700 l 1
 250 700 l 1
EndSplineSet
Validated: 1
EndChar

StartChar: notequal
Encoding: 141 8800 141
Width: 450
Flags: HMW
LayerCount: 2
Fore
SplineSet
50 250 m 1
 50 350 l 1
 160 350 l 1
 190 450 l 1
 50 450 l 1
 50 550 l 1
 220 550 l 1
 250 650 l 1
 350 650 l 1
 320 550 l 1
 400 550 l 1
 400 450 l 1
 290 450 l 1
 260 350 l 1
 400 350 l 1
 400 250 l 1
 230 250 l 1
 200 150 l 1
 100 150 l 1
 130 250 l 1
 50 250 l 1
EndSplineSet
Validated: 1
EndChar

StartChar: AE
Encoding: 142 198 142
Width: 980
Flags: HMW
LayerCount: 2
Fore
SplineSet
278 250 m 1
 480 250 l 1
 480 680 l 1
 278 250 l 1
50 0 m 1
 420 800 l 1
 930 800 l 1
 930 700 l 1
 580 700 l 1
 580 450 l 1
 830 450 l 1
 830 350 l 1
 580 350 l 1
 580 100 l 1
 930 100 l 1
 930 0 l 1
 480 0 l 1
 480 150 l 1
 231 150 l 1
 160 0 l 1
 50 0 l 1
EndSplineSet
Validated: 1
EndChar

StartChar: Oslash
Encoding: 143 216 143
Width: 900
Flags: HMW
LayerCount: 2
Fore
SplineSet
276 155 m 1
 325 120 385 100 450 100 c 0
 616 100 750 234 750 400 c 0
 750 465 730 525 695 574 c 1
 276 155 l 1
150 400 m 0
 150 335 170 275 205 226 c 1
 624 645 l 1
 575 680 515 700 450 700 c 0
 284 700 150 566 150 400 c 0
50 71 m 1
 134 155 l 1
 81 223 50 308 50 400 c 0
 50 621 229 800 450 800 c 0
 542 800 627 769 695 716 c 1
 779 800 l 1
 850 729 l 1
 766 645 l 1
 819 577 850 492 850 400 c 0
 850 179 671 0 450 0 c 0
 358 0 273 31 205 84 c 1
 121 0 l 1
 50 71 l 1
EndSplineSet
Validated: 1
EndChar

StartChar: infinity
Encoding: 144 8734 144
Width: 800
Flags: HMW
LayerCount: 2
Fore
SplineSet
50 400 m 0
 50 510 140 600 250 600 c 0
 310 600 363 574 400 522 c 1
 437 574 490 600 550 600 c 0
 660 600 750 510 750 400 c 0
 750 290 660 200 550 200 c 0
 490 200 437 226 400 278 c 1
 363 226 310 200 250 200 c 0
 140 200 50 290 50 400 c 0
150 400 m 0
 150 345 195 300 250 300 c 0
 305 300 350 345 350 400 c 0
 350 455 305 500 250 500 c 0
 195 500 150 455 150 400 c 0
450 400 m 0
 450 345 495 300 550 300 c 0
 605 300 650 345 650 400 c 0
 650 455 605 500 550 500 c 0
 495 500 450 455 450 400 c 0
EndSplineSet
Validated: 1
EndChar

StartChar: plusminus
Encoding: 145 177 145
Width: 450
Flags: HMW
LayerCount: 2
Fore
SplineSet
50 25 m 1
 50 125 l 1
 400 125 l 1
 400 25 l 1
 50 25 l 1
50 350 m 1
 50 450 l 1
 175 450 l 1
 175 575 l 1
 275 575 l 1
 275 450 l 1
 400 450 l 1
 400 350 l 1
 275 350 l 1
 275 225 l 1
 175 225 l 1
 175 350 l 1
 50 350 l 1
EndSplineSet
Validated: 1
EndChar

StartChar: lessequal
Encoding: 146 8804 146
Width: 450
Flags: HMW
LayerCount: 2
Fore
SplineSet
50 0 m 1
 50 100 l 1
 400 100 l 1
 400 0 l 1
 50 0 l 1
50 350 m 1
 50 450 l 1
 400 600 l 1
 400 500 l 1
 161 400 l 1
 400 300 l 1
 400 200 l 1
 50 350 l 1
EndSplineSet
Validated: 1
EndChar

StartChar: greaterequal
Encoding: 147 8805 147
Width: 450
Flags: HMW
LayerCount: 2
Fore
SplineSet
50 0 m 1
 50 100 l 1
 400 100 l 1
 400 0 l 1
 50 0 l 1
50 200 m 1
 50 300 l 1
 289 400 l 1
 50 500 l 1
 50 600 l 1
 400 450 l 1
 400 350 l 1
 50 200 l 1
EndSplineSet
Validated: 1
EndChar

StartChar: yen
Encoding: 148 165 148
Width: 650
Flags: HMW
LayerCount: 2
Fore
SplineSet
50 800 m 1
 150 800 l 1
 325 480 l 1
 500 800 l 1
 600 800 l 1
 375 400 l 1
 510 400 l 1
 510 300 l 1
 375 300 l 1
 375 200 l 1
 510 200 l 1
 510 100 l 1
 375 100 l 1
 375 0 l 1
 275 0 l 1
 275 100 l 1
 140 100 l 1
 140 200 l 1
 275 200 l 1
 275 300 l 1
 140 300 l 1
 140 400 l 1
 275 400 l 1
 50 800 l 1
EndSplineSet
Validated: 1
EndChar

StartChar: mu
Encoding: 149 181 149
Width: 700
Flags: HMW
LayerCount: 2
Fore
SplineSet
50 -200 m 1
 50 600 l 1
 150 600 l 1
 150 300 l 2
 150 190 240 100 350 100 c 0
 460 100 550 190 550 300 c 2
 550 600 l 1
 650 600 l 1
 650 300 l 2
 650 134 516 0 350 0 c 0
 274 0 203 29 150 81 c 1
 150 -200 l 1
 50 -200 l 1
EndSplineSet
Validated: 1
EndChar

StartChar: partialdiff
Encoding: 150 8706 150
Width: 700
Flags: HMW
LayerCount: 2
Fore
SplineSet
50 300 m 0
 50 466 184 600 350 600 c 0
 396 600 449 589 488 561 c 1
 426 640 349 700 250 700 c 1
 250 800 l 1
 493 800 650 576 650 300 c 0
 650 134 516 0 350 0 c 0
 184 0 50 134 50 300 c 0
150 300 m 0
 150 190 240 100 350 100 c 0
 460 100 550 190 550 300 c 0
 550 410 460 500 350 500 c 0
 240 500 150 410 150 300 c 0
EndSplineSet
Validated: 1
EndChar

StartChar: summation
Encoding: 151 8721 151
Width: 600
Flags: HMW
LayerCount: 2
Fore
SplineSet
50 0 m 1
 50 100 l 1
 300 400 l 1
 50 700 l 1
 50 800 l 1
 550 800 l 1
 550 650 l 1
 450 650 l 1
 450 700 l 1
 180 700 l 1
 430 400 l 1
 180 100 l 1
 450 100 l 1
 450 150 l 1
 550 150 l 1
 550 0 l 1
 50 0 l 1
EndSplineSet
Validated: 1
EndChar

StartChar: product
Encoding: 152 8719 152
Width: 750
Flags: HMW
LayerCount: 2
Fore
SplineSet
50 0 m 1
 50 100 l 1
 100 100 l 1
 100 700 l 1
 50 700 l 1
 50 800 l 1
 700 800 l 1
 700 700 l 1
 650 700 l 1
 650 100 l 1
 700 100 l 1
 700 0 l 1
 500 0 l 1
 500 100 l 1
 550 100 l 1
 550 700 l 1
 200 700 l 1
 200 100 l 1
 250 100 l 1
 250 0 l 1
 50 0 l 1
EndSplineSet
Validated: 1
EndChar

StartChar: pi
Encoding: 153 960 153
Width: 700
Flags: HMW
LayerCount: 2
Fore
SplineSet
50 500 m 1
 50 600 l 1
 650 600 l 1
 650 500 l 1
 550 500 l 1
 550 0 l 1
 450 0 l 1
 450 500 l 1
 250 500 l 1
 250 0 l 1
 150 0 l 1
 150 500 l 1
 50 500 l 1
EndSplineSet
Validated: 1
EndChar

StartChar: integral
Encoding: 154 8747 154
Width: 400
Flags: HMW
LayerCount: 2
Fore
SplineSet
50 0 m 1
 105 0 150 45 150 100 c 2
 150 700 l 2
 150 810 240 900 350 900 c 1
 350 800 l 1
 295 800 250 755 250 700 c 2
 250 100 l 2
 250 -10 160 -100 50 -100 c 1
 50 0 l 1
EndSplineSet
Validated: 1
EndChar

StartChar: ordfeminine
Encoding: 155 170 155
Width: 440
Flags: HMW
LayerCount: 2
Fore
SplineSet
130 520 m 0
 130 498 148 480 170 480 c 2
 190 480 l 2
 242 480 286 514 303 560 c 1
 170 560 l 2
 148 560 130 542 130 520 c 0
49 741 m 1
 85 777 135 800 190 800 c 0
 300 800 390 710 390 600 c 2
 390 400 l 1
 310 400 l 1
 310 440 l 1
 277 415 235 400 190 400 c 2
 170 400 l 2
 104 400 50 454 50 520 c 0
 50 586 104 640 170 640 c 2
 303 640 l 1
 286 686 242 720 190 720 c 0
 157 720 127 707 105 685 c 1
 49 741 l 1
100 200 m 1
 100 300 l 1
 340 300 l 1
 340 200 l 1
 100 200 l 1
EndSplineSet
Validated: 1
EndChar

StartChar: ordmasculine
Encoding: 156 186 156
Width: 500
Flags: HMW
LayerCount: 2
Fore
SplineSet
50 600 m 0
 50 710 140 800 250 800 c 0
 360 800 450 710 450 600 c 0
 450 490 360 400 250 400 c 0
 140 400 50 490 50 600 c 0
100 200 m 1
 100 300 l 1
 400 300 l 1
 400 200 l 1
 100 200 l 1
130 600 m 0
 130 534 184 480 250 480 c 0
 316 480 370 534 370 600 c 0
 370 666 316 720 250 720 c 0
 184 720 130 666 130 600 c 0
EndSplineSet
Validated: 1
EndChar

StartChar: Omega
Encoding: 157 8486 157
Width: 900
Flags: HMW
LayerCount: 2
Fore
SplineSet
50 0 m 1
 50 100 l 1
 190 100 l 1
 100 173 50 281 50 400 c 0
 50 621 229 800 450 800 c 0
 671 800 850 621 850 400 c 0
 850 281 800 173 710 100 c 1
 850 100 l 1
 850 0 l 1
 500 0 l 1
 500 100 l 1
 616 100 750 234 750 400 c 0
 750 566 616 700 450 700 c 0
 284 700 150 566 150 400 c 0
 150 234 284 100 400 100 c 1
 400 0 l 1
 50 0 l 1
EndSplineSet
Validated: 1
EndChar

StartChar: ae
Encoding: 158 230 158
Width: 1120
Flags: HMW
LayerCount: 2
Fore
SplineSet
150 175 m 0
 150 134 185 100 226 100 c 2
 270 100 l 2
 363 100 442 164 464 250 c 1
 226 250 l 2
 185 250 150 216 150 175 c 0
50 175 m 0
 50 272 128 350 225 350 c 2
 464 350 l 1
 442 436 363 500 270 500 c 0
 216 500 166 478 130 443 c 1
 60 514 l 1
 114 567 188 600 270 600 c 0
 374 600 466 547 520 456 c 1
 574 547 666 600 770 600 c 0
 936 600 1070 466 1070 300 c 2
 1070 250 l 1
 576 250 l 1
 598 164 677 100 770 100 c 0
 825 100 875 123 911 159 c 1
 982 88 l 1
 928 34 853 0 770 0 c 0
 666 0 574 53 520 144 c 1
 466 53 374 0 270 0 c 2
 225 0 l 2
 128 0 50 78 50 175 c 0
576 350 m 1
 964 350 l 1
 942 436 863 500 770 500 c 0
 677 500 598 436 576 350 c 1
EndSplineSet
Validated: 1
EndChar

StartChar: oslash
Encoding: 159 248 159
Width: 700
Flags: HMW
LayerCount: 2
Fore
SplineSet
249 128 m 1
 279 110 313 100 350 100 c 0
 460 100 550 190 550 300 c 0
 550 337 540 371 522 401 c 1
 249 128 l 1
150 300 m 0
 150 263 160 229 178 199 c 1
 451 472 l 1
 421 490 387 500 350 500 c 0
 240 500 150 410 150 300 c 0
50 71 m 1
 105 126 l 1
 70 175 50 235 50 300 c 0
 50 466 184 600 350 600 c 0
 415 600 475 580 524 545 c 1
 579 600 l 1
 650 529 l 1
 595 474 l 1
 630 425 650 365 650 300 c 0
 650 134 516 0 350 0 c 0
 285 0 225 20 176 55 c 1
 121 0 l 1
 50 71 l 1
EndSplineSet
Validated: 1
EndChar

StartChar: questiondown
Encoding: 160 191 160
Width: 395
Flags: HMW
LayerCount: 2
Fore
SplineSet
46 349 m 1
 78 381 122 400 170 400 c 0
 267 400 345 322 345 225 c 0
 345 108 150 36 150 -25 c 0
 150 -66 184 -100 225 -100 c 0
 245 -100 264 -92 278 -78 c 1
 349 -149 l 1
 317 -181 273 -200 225 -200 c 0
 128 -200 50 -122 50 -25 c 0
 50 92 245 164 245 225 c 0
 245 266 211 300 170 300 c 0
 150 300 131 292 117 278 c 1
 46 349 l 1
120 500 m 1
 120 600 l 1
 220 600 l 1
 220 500 l 1
 120 500 l 1
EndSplineSet
Validated: 1
EndChar

StartChar: exclamdown
Encoding: 161 161 161
Width: 200
Flags: HMW
LayerCount: 2
Fore
SplineSet
50 500 m 1
 50 600 l 1
 150 600 l 1
 150 500 l 1
 50 500 l 1
50 -200 m 1
 50 400 l 1
 150 400 l 1
 150 -200 l 1
 50 -200 l 1
EndSplineSet
Validated: 1
EndChar

StartChar: logicalnot
Encoding: 162 172 162
Width: 450
Flags: HMW
LayerCount: 2
Fore
SplineSet
50 450 m 1
 50 550 l 1
 400 550 l 1
 400 350 l 1
 300 350 l 1
 300 450 l 1
 50 450 l 1
EndSplineSet
Validated: 1
EndChar

StartChar: radical
Encoding: 163 8730 163
Width: 550
Flags: HMW
LayerCount: 2
Fore
SplineSet
50 220 m 1
 50 320 l 1
 150 350 l 1
 230 162 l 1
 350 800 l 1
 500 800 l 1
 500 700 l 1
 432 700 l 1
 300 0 l 1
 200 0 l 1
 99 235 l 1
 50 220 l 1
EndSplineSet
Validated: 1
EndChar

StartChar: florin
Encoding: 164 402 164
Width: 400
Flags: HMW
LayerCount: 2
Fore
SplineSet
50 -100 m 1
 105 -100 150 -55 150 0 c 2
 150 500 l 1
 50 500 l 1
 50 600 l 1
 150 600 l 1
 150 710 240 800 350 800 c 1
 350 700 l 1
 295 700 250 655 250 600 c 1
 350 600 l 1
 350 500 l 1
 250 500 l 1
 250 0 l 2
 250 -110 160 -200 50 -200 c 1
 50 -100 l 1
EndSplineSet
Validated: 1
EndChar

StartChar: approxequal
Encoding: 165 8776 165
Width: 700
Flags: HMW
LayerCount: 2
Fore
SplineSet
50 450 m 1
 50 560 140 650 250 650 c 0
 320 650 405 550 450 550 c 0
 505 550 550 595 550 650 c 1
 650 650 l 1
 650 540 560 450 450 450 c 0
 380 450 295 550 250 550 c 0
 195 550 150 505 150 450 c 1
 50 450 l 1
50 150 m 1
 50 260 140 350 250 350 c 0
 320 350 405 250 450 250 c 0
 505 250 550 295 550 350 c 1
 650 350 l 1
 650 240 560 150 450 150 c 0
 380 150 295 250 250 250 c 0
 195 250 150 205 150 150 c 1
 50 150 l 1
EndSplineSet
Validated: 1
EndChar

StartChar: Delta
Encoding: 166 8710 166
Width: 700
Flags: HMW
LayerCount: 2
Fore
SplineSet
50 0 m 1
 300 800 l 1
 400 800 l 1
 650 0 l 1
 50 0 l 1
180 100 m 1
 520 100 l 1
 350 660 l 1
 180 100 l 1
EndSplineSet
Validated: 1
EndChar

StartChar: guillemotleft
Encoding: 167 171 167
Width: 650
Flags: HMW
LayerCount: 2
Fore
SplineSet
50 350 m 1
 50 450 l 1
 300 600 l 1
 300 490 l 1
 140 400 l 1
 300 310 l 1
 300 200 l 1
 50 350 l 1
350 350 m 1
 350 450 l 1
 600 600 l 1
 600 490 l 1
 440 400 l 1
 600 310 l 1
 600 200 l 1
 350 350 l 1
EndSplineSet
Validated: 1
EndChar

StartChar: guillemotright
Encoding: 168 187 168
Width: 650
Flags: HMW
LayerCount: 2
Fore
SplineSet
350 200 m 1
 350 310 l 1
 510 400 l 1
 350 490 l 1
 350 600 l 1
 600 450 l 1
 600 350 l 1
 350 200 l 1
50 200 m 1
 50 310 l 1
 210 400 l 1
 50 490 l 1
 50 600 l 1
 300 450 l 1
 300 350 l 1
 50 200 l 1
EndSplineSet
Validated: 1
EndChar

StartChar: ellipsis
Encoding: 169 8230 169
Width: 600
Flags: HMW
LayerCount: 2
Fore
SplineSet
50 0 m 1
 50 100 l 1
 150 100 l 1
 150 0 l 1
 50 0 l 1
250 0 m 1
 250 100 l 1
 350 100 l 1
 350 0 l 1
 250 0 l 1
450 0 m 1
 450 100 l 1
 550 100 l 1
 550 0 l 1
 450 0 l 1
EndSplineSet
Validated: 1
EndChar

StartChar: Agrave
Encoding: 171 192 171
Width: 700
Flags: HMW
LayerCount: 2
Fore
SplineSet
240 1000 m 1
 340 1000 l 1
 390 850 l 1
 310 850 l 1
 240 1000 l 1
226 250 m 1
 474 250 l 1
 350 660 l 1
 226 250 l 1
50 0 m 1
 300 800 l 1
 400 800 l 1
 650 0 l 1
 550 0 l 1
 505 150 l 1
 195 150 l 1
 150 0 l 1
 50 0 l 1
EndSplineSet
Validated: 1
EndChar

StartChar: Atilde
Encoding: 172 195 172
Width: 700
Flags: HMW
LayerCount: 2
Fore
SplineSet
125 850 m 1
 125 933 192 1000 275 1000 c 0
 319 1000 381 950 425 950 c 0
 453 950 475 972 475 1000 c 1
 575 1000 l 1
 575 917 508 850 425 850 c 0
 381 850 319 900 275 900 c 0
 247 900 225 878 225 850 c 1
 125 850 l 1
226 250 m 1
 474 250 l 1
 350 660 l 1
 226 250 l 1
50 0 m 1
 300 800 l 1
 400 800 l 1
 650 0 l 1
 550 0 l 1
 505 150 l 1
 195 150 l 1
 150 0 l 1
 50 0 l 1
EndSplineSet
Validated: 1
EndChar

StartChar: Otilde
Encoding: 173 213 173
Width: 900
Flags: HMW
LayerCount: 2
Fore
SplineSet
225 850 m 1
 225 933 292 1000 375 1000 c 0
 419 1000 481 950 525 950 c 0
 553 950 575 972 575 1000 c 1
 675 1000 l 1
 675 917 608 850 525 850 c 0
 481 850 419 900 375 900 c 0
 347 900 325 878 325 850 c 1
 225 850 l 1
50 400 m 0
 50 621 229 800 450 800 c 0
 671 800 850 621 850 400 c 0
 850 179 671 0 450 0 c 0
 229 0 50 179 50 400 c 0
150 400 m 0
 150 234 284 100 450 100 c 0
 616 100 750 234 750 400 c 0
 750 566 616 700 450 700 c 0
 284 700 150 566 150 400 c 0
EndSplineSet
Validated: 1
EndChar

StartChar: OE
Encoding: 174 338 174
Width: 1150
Flags: HMW
LayerCount: 2
Fore
SplineSet
50 400 m 0
 50 621 229 800 450 800 c 0
 523 800 591 782 650 743 c 1
 650 800 l 1
 1100 800 l 1
 1100 700 l 1
 750 700 l 1
 750 450 l 1
 1000 450 l 1
 1000 350 l 1
 750 350 l 1
 750 100 l 1
 1100 100 l 1
 1100 0 l 1
 650 0 l 1
 650 58 l 1
 591 19 523 0 450 0 c 0
 229 0 50 179 50 400 c 0
150 400 m 0
 150 234 284 100 450 100 c 0
 527 100 597 129 650 176 c 1
 650 624 l 1
 597 671 527 700 450 700 c 0
 284 700 150 566 150 400 c 0
EndSplineSet
Validated: 1
EndChar

StartChar: oe
Encoding: 175 339 175
Width: 1200
Flags: HMW
LayerCount: 2
Fore
SplineSet
656 350 m 1
 1044 350 l 1
 1022 436 943 500 850 500 c 0
 757 500 678 436 656 350 c 1
150 300 m 0
 150 190 240 100 350 100 c 0
 460 100 550 190 550 300 c 0
 550 410 460 500 350 500 c 0
 240 500 150 410 150 300 c 0
50 300 m 0
 50 466 184 600 350 600 c 0
 454 600 546 547 600 456 c 1
 654 547 746 600 850 600 c 0
 1016 600 1150 466 1150 300 c 2
 1150 250 l 1
 656 250 l 1
 678 164 757 100 850 100 c 0
 905 100 955 123 991 159 c 1
 1062 88 l 1
 1008 34 933 0 850 0 c 0
 746 0 654 53 600 144 c 1
 546 53 454 0 350 0 c 0
 184 0 50 134 50 300 c 0
EndSplineSet
Validated: 1
EndChar

StartChar: endash
Encoding: 176 8211 176
Width: 600
Flags: HMW
LayerCount: 2
Fore
SplineSet
0 350 m 1
 0 450 l 1
 600 450 l 1
 600 350 l 1
 0 350 l 1
EndSplineSet
Validated: 1
EndChar

StartChar: emdash
Encoding: 177 8212 177
Width: 1200
Flags: HMW
LayerCount: 2
Fore
SplineSet
0 350 m 1
 0 450 l 1
 1200 450 l 1
 1200 350 l 1
 0 350 l 1
EndSplineSet
Validated: 1
EndChar

StartChar: quotedblleft
Encoding: 178 8220 178
Width: 400
Flags: HMW
LayerCount: 2
Fore
SplineSet
50 600 m 1
 50 700 l 1
 100 800 l 1
 150 800 l 1
 150 600 l 1
 50 600 l 1
250 600 m 1
 250 700 l 1
 300 800 l 1
 350 800 l 1
 350 600 l 1
 250 600 l 1
EndSplineSet
Validated: 1
EndChar

StartChar: quotedblright
Encoding: 179 8221 179
Width: 400
Flags: HMW
LayerCount: 2
Fore
SplineSet
50 600 m 1
 50 800 l 1
 150 800 l 1
 150 700 l 1
 100 600 l 1
 50 600 l 1
250 600 m 1
 250 800 l 1
 350 800 l 1
 350 700 l 1
 300 600 l 1
 250 600 l 1
EndSplineSet
Validated: 1
EndChar

StartChar: quoteleft
Encoding: 180 8216 180
Width: 200
Flags: HMW
LayerCount: 2
Fore
SplineSet
50 600 m 1
 50 700 l 1
 100 800 l 1
 150 800 l 1
 150 600 l 1
 50 600 l 1
EndSplineSet
Validated: 1
EndChar

StartChar: quoteright
Encoding: 181 8217 181
Width: 200
Flags: HMW
LayerCount: 2
Fore
SplineSet
50 600 m 1
 50 800 l 1
 150 800 l 1
 150 700 l 1
 100 600 l 1
 50 600 l 1
EndSplineSet
Validated: 1
EndChar

StartChar: divide
Encoding: 182 247 182
Width: 450
Flags: HMW
LayerCount: 2
Fore
SplineSet
50 350 m 1
 50 450 l 1
 400 450 l 1
 400 350 l 1
 50 350 l 1
175 500 m 1
 175 600 l 1
 275 600 l 1
 275 500 l 1
 175 500 l 1
175 200 m 1
 175 300 l 1
 275 300 l 1
 275 200 l 1
 175 200 l 1
EndSplineSet
Validated: 1
EndChar

StartChar: lozenge
Encoding: 183 9674 183
Width: 600
Flags: HMW
LayerCount: 2
Fore
SplineSet
150 400 m 1
 300 100 l 1
 450 400 l 1
 300 700 l 1
 150 400 l 1
50 400 m 1
 250 800 l 1
 350 800 l 1
 550 400 l 1
 350 0 l 1
 250 0 l 1
 50 400 l 1
EndSplineSet
Validated: 1
EndChar

StartChar: ydieresis
Encoding: 184 255 184
Width: 700
Flags: HMW
LayerCount: 2
Fore
SplineSet
200 700 m 1
 200 800 l 1
 300 800 l 1
 300 700 l 1
 200 700 l 1
400 700 m 1
 400 800 l 1
 500 800 l 1
 500 700 l 1
 400 700 l 1
50 600 m 1
 150 600 l 1
 350 110 l 1
 550 600 l 1
 650 600 l 1
 318 -200 l 1
 218 -200 l 1
 300 0 l 1
 50 600 l 1
EndSplineSet
Validated: 1
EndChar

StartChar: Ydieresis
Encoding: 185 376 185
Width: 650
Flags: HMW
LayerCount: 2
Fore
SplineSet
175 900 m 1
 175 1000 l 1
 275 1000 l 1
 275 900 l 1
 175 900 l 1
375 900 m 1
 375 1000 l 1
 475 1000 l 1
 475 900 l 1
 375 900 l 1
50 800 m 1
 150 800 l 1
 325 480 l 1
 500 800 l 1
 600 800 l 1
 375 400 l 1
 375 0 l 1
 275 0 l 1
 275 400 l 1
 50 800 l 1
EndSplineSet
Validated: 1
EndChar

StartChar: fraction
Encoding: 186 8260 186
Width: 100
Flags: HMW
LayerCount: 2
Fore
SplineSet
-150 0 m 1
 170 800 l 1
 250 800 l 1
 -70 0 l 1
 -150 0 l 1
EndSplineSet
Validated: 1
EndChar

StartChar: currency
Encoding: 187 164 187
Width: 700
Flags: HMW
LayerCount: 2
Fore
SplineSet
50 171 m 1
 105 226 l 1
 70 275 50 335 50 400 c 0
 50 465 70 525 105 574 c 1
 50 629 l 1
 121 700 l 1
 176 645 l 1
 225 680 285 700 350 700 c 0
 415 700 475 680 524 645 c 1
 579 700 l 1
 650 629 l 1
 595 574 l 1
 630 525 650 465 650 400 c 0
 650 335 630 275 595 226 c 1
 650 171 l 1
 579 100 l 1
 524 155 l 1
 475 120 415 100 350 100 c 0
 285 100 225 120 176 155 c 1
 121 100 l 1
 50 171 l 1
150 400 m 0
 150 290 240 200 350 200 c 0
 460 200 550 290 550 400 c 0
 550 510 460 600 350 600 c 0
 240 600 150 510 150 400 c 0
EndSplineSet
Validated: 1
EndChar

StartChar: guilsinglleft
Encoding: 188 8249 188
Width: 350
Flags: HMW
LayerCount: 2
Fore
SplineSet
50 350 m 1
 50 450 l 1
 300 600 l 1
 300 490 l 1
 140 400 l 1
 300 310 l 1
 300 200 l 1
 50 350 l 1
EndSplineSet
Validated: 1
EndChar

StartChar: guilsinglright
Encoding: 189 8250 189
Width: 350
Flags: HMW
LayerCount: 2
Fore
SplineSet
50 200 m 1
 50 310 l 1
 210 400 l 1
 50 490 l 1
 50 600 l 1
 300 450 l 1
 300 350 l 1
 50 200 l 1
EndSplineSet
Validated: 1
EndChar

StartChar: fi
Encoding: 190 64257 190
Width: 600
Flags: HMW
LayerCount: 2
Fore
SplineSet
50 500 m 1
 50 600 l 1
 150 600 l 1
 150 710 240 800 350 800 c 2
 450 800 l 1
 450 700 l 1
 350 700 l 2
 295 700 250 655 250 600 c 1
 550 600 l 1
 550 0 l 1
 450 0 l 1
 450 500 l 1
 250 500 l 1
 250 0 l 1
 150 0 l 1
 150 500 l 1
 50 500 l 1
EndSplineSet
Validated: 1
EndChar

StartChar: fl
Encoding: 191 64258 191
Width: 600
Flags: HMW
LayerCount: 2
Fore
SplineSet
50 500 m 1
 50 600 l 1
 150 600 l 1
 150 710 240 800 350 800 c 2
 550 800 l 1
 550 0 l 1
 450 0 l 1
 450 700 l 1
 350 700 l 2
 295 700 250 655 250 600 c 1
 350 600 l 1
 350 500 l 1
 250 500 l 1
 250 0 l 1
 150 0 l 1
 150 500 l 1
 50 500 l 1
EndSplineSet
Validated: 1
EndChar

StartChar: daggerdbl
Encoding: 192 8225 192
Width: 400
Flags: HMW
LayerCount: 2
Fore
SplineSet
50 400 m 1
 50 500 l 1
 150 500 l 1
 150 600 l 1
 50 600 l 1
 50 700 l 1
 150 700 l 1
 150 800 l 1
 250 800 l 1
 250 700 l 1
 350 700 l 1
 350 600 l 1
 250 600 l 1
 250 500 l 1
 350 500 l 1
 350 400 l 1
 250 400 l 1
 250 300 l 1
 150 300 l 1
 150 400 l 1
 50 400 l 1
EndSplineSet
Validated: 1
EndChar

StartChar: periodcentered
Encoding: 193 183 193
Width: 200
Flags: HMW
LayerCount: 2
Fore
SplineSet
50 350 m 1
 50 450 l 1
 150 450 l 1
 150 350 l 1
 50 350 l 1
EndSplineSet
Validated: 1
Substitution2: "Single Substitution lookup 13-1" periodcentered.CATL
Substitution2: "Single Subtitution lookup 12-1" periodcentered.CATC
EndChar

StartChar: quotesinglbase
Encoding: 194 8218 194
Width: 200
Flags: HMW
LayerCount: 2
Fore
SplineSet
50 -100 m 1
 50 100 l 1
 150 100 l 1
 150 0 l 1
 100 -100 l 1
 50 -100 l 1
EndSplineSet
Validated: 1
EndChar

StartChar: quotedblbase
Encoding: 195 8222 195
Width: 400
Flags: HMW
LayerCount: 2
Fore
SplineSet
50 -100 m 1
 50 100 l 1
 150 100 l 1
 150 0 l 1
 100 -100 l 1
 50 -100 l 1
250 -100 m 1
 250 100 l 1
 350 100 l 1
 350 0 l 1
 300 -100 l 1
 250 -100 l 1
EndSplineSet
Validated: 1
EndChar

StartChar: perthousand
Encoding: 196 8240 196
Width: 700
Flags: HMW
LayerCount: 2
Fore
SplineSet
50 0 m 1
 350 800 l 1
 450 800 l 1
 150 0 l 1
 50 0 l 1
50 700 m 1
 50 800 l 1
 150 800 l 1
 150 700 l 1
 50 700 l 1
350 0 m 1
 350 100 l 1
 450 100 l 1
 450 0 l 1
 350 0 l 1
550 0 m 1
 550 100 l 1
 650 100 l 1
 650 0 l 1
 550 0 l 1
EndSplineSet
Validated: 1
EndChar

StartChar: Acircumflex
Encoding: 197 194 197
Width: 700
Flags: HMW
LayerCount: 2
Fore
SplineSet
200 850 m 1
 300 1000 l 1
 400 1000 l 1
 500 850 l 1
 400 850 l 1
 350 940 l 1
 300 850 l 1
 200 850 l 1
226 250 m 1
 474 250 l 1
 350 660 l 1
 226 250 l 1
50 0 m 1
 300 800 l 1
 400 800 l 1
 650 0 l 1
 550 0 l 1
 505 150 l 1
 195 150 l 1
 150 0 l 1
 50 0 l 1
EndSplineSet
Validated: 1
EndChar

StartChar: Ecircumflex
Encoding: 198 202 198
Width: 550
Flags: HMW
LayerCount: 2
Fore
SplineSet
125 850 m 1
 225 1000 l 1
 325 1000 l 1
 425 850 l 1
 325 850 l 1
 275 940 l 1
 225 850 l 1
 125 850 l 1
50 0 m 1
 50 800 l 1
 500 800 l 1
 500 700 l 1
 150 700 l 1
 150 450 l 1
 400 450 l 1
 400 350 l 1
 150 350 l 1
 150 100 l 1
 500 100 l 1
 500 0 l 1
 50 0 l 1
EndSplineSet
Validated: 1
EndChar

StartChar: Aacute
Encoding: 199 193 199
Width: 700
Flags: HMW
LayerCount: 2
Fore
SplineSet
310 850 m 1
 360 1000 l 1
 460 1000 l 1
 390 850 l 1
 310 850 l 1
226 250 m 1
 474 250 l 1
 350 660 l 1
 226 250 l 1
50 0 m 1
 300 800 l 1
 400 800 l 1
 650 0 l 1
 550 0 l 1
 505 150 l 1
 195 150 l 1
 150 0 l 1
 50 0 l 1
EndSplineSet
Validated: 1
EndChar

StartChar: Edieresis
Encoding: 200 203 200
Width: 550
Flags: HMW
LayerCount: 2
Fore
SplineSet
125 900 m 1
 125 1000 l 1
 225 1000 l 1
 225 900 l 1
 125 900 l 1
325 900 m 1
 325 1000 l 1
 425 1000 l 1
 425 900 l 1
 325 900 l 1
50 0 m 1
 50 800 l 1
 500 800 l 1
 500 700 l 1
 150 700 l 1
 150 450 l 1
 400 450 l 1
 400 350 l 1
 150 350 l 1
 150 100 l 1
 500 100 l 1
 500 0 l 1
 50 0 l 1
EndSplineSet
Validated: 1
EndChar

StartChar: Egrave
Encoding: 201 200 201
Width: 550
Flags: HMW
LayerCount: 2
Fore
SplineSet
165 1000 m 1
 265 1000 l 1
 315 850 l 1
 235 850 l 1
 165 1000 l 1
50 0 m 1
 50 800 l 1
 500 800 l 1
 500 700 l 1
 150 700 l 1
 150 450 l 1
 400 450 l 1
 400 350 l 1
 150 350 l 1
 150 100 l 1
 500 100 l 1
 500 0 l 1
 50 0 l 1
EndSplineSet
Validated: 1
EndChar

StartChar: Iacute
Encoding: 202 205 202
Width: 400
Flags: HMW
LayerCount: 2
Fore
SplineSet
160 850 m 1
 210 1000 l 1
 310 1000 l 1
 240 850 l 1
 160 850 l 1
50 0 m 1
 50 100 l 1
 150 100 l 1
 150 700 l 1
 50 700 l 1
 50 800 l 1
 350 800 l 1
 350 700 l 1
 250 700 l 1
 250 100 l 1
 350 100 l 1
 350 0 l 1
 50 0 l 1
EndSplineSet
Validated: 1
EndChar

StartChar: Icircumflex
Encoding: 203 206 203
Width: 400
Flags: HMW
LayerCount: 2
Fore
SplineSet
50 850 m 1
 150 1000 l 1
 250 1000 l 1
 350 850 l 1
 250 850 l 1
 200 940 l 1
 150 850 l 1
 50 850 l 1
50 0 m 1
 50 100 l 1
 150 100 l 1
 150 700 l 1
 50 700 l 1
 50 800 l 1
 350 800 l 1
 350 700 l 1
 250 700 l 1
 250 100 l 1
 350 100 l 1
 350 0 l 1
 50 0 l 1
EndSplineSet
Validated: 1
EndChar

StartChar: Idieresis
Encoding: 204 207 204
Width: 400
Flags: HMW
LayerCount: 2
Fore
SplineSet
50 900 m 1
 50 1000 l 1
 150 1000 l 1
 150 900 l 1
 50 900 l 1
250 900 m 1
 250 1000 l 1
 350 1000 l 1
 350 900 l 1
 250 900 l 1
50 0 m 1
 50 100 l 1
 150 100 l 1
 150 700 l 1
 50 700 l 1
 50 800 l 1
 350 800 l 1
 350 700 l 1
 250 700 l 1
 250 100 l 1
 350 100 l 1
 350 0 l 1
 50 0 l 1
EndSplineSet
Validated: 1
EndChar

StartChar: Igrave
Encoding: 205 204 205
Width: 400
Flags: HMW
LayerCount: 2
Fore
SplineSet
90 1000 m 1
 190 1000 l 1
 240 850 l 1
 160 850 l 1
 90 1000 l 1
50 0 m 1
 50 100 l 1
 150 100 l 1
 150 700 l 1
 50 700 l 1
 50 800 l 1
 350 800 l 1
 350 700 l 1
 250 700 l 1
 250 100 l 1
 350 100 l 1
 350 0 l 1
 50 0 l 1
EndSplineSet
Validated: 1
EndChar

StartChar: Oacute
Encoding: 206 211 206
Width: 900
Flags: HMW
LayerCount: 2
Fore
SplineSet
410 850 m 1
 460 1000 l 1
 560 1000 l 1
 490 850 l 1
 410 850 l 1
50 400 m 0
 50 621 229 800 450 800 c 0
 671 800 850 621 850 400 c 0
 850 179 671 0 450 0 c 0
 229 0 50 179 50 400 c 0
150 400 m 0
 150 234 284 100 450 100 c 0
 616 100 750 234 750 400 c 0
 750 566 616 700 450 700 c 0
 284 700 150 566 150 400 c 0
EndSplineSet
Validated: 1
EndChar

StartChar: Ocircumflex
Encoding: 207 212 207
Width: 900
Flags: HMW
LayerCount: 2
Fore
SplineSet
300 850 m 1
 400 1000 l 1
 500 1000 l 1
 600 850 l 1
 500 850 l 1
 450 940 l 1
 400 850 l 1
 300 850 l 1
50 400 m 0
 50 621 229 800 450 800 c 0
 671 800 850 621 850 400 c 0
 850 179 671 0 450 0 c 0
 229 0 50 179 50 400 c 0
150 400 m 0
 150 234 284 100 450 100 c 0
 616 100 750 234 750 400 c 0
 750 566 616 700 450 700 c 0
 284 700 150 566 150 400 c 0
EndSplineSet
Validated: 1
EndChar

StartChar: Ograve
Encoding: 208 210 208
Width: 900
Flags: HMW
LayerCount: 2
Fore
SplineSet
340 1000 m 1
 440 1000 l 1
 490 850 l 1
 410 850 l 1
 340 1000 l 1
50 400 m 0
 50 621 229 800 450 800 c 0
 671 800 850 621 850 400 c 0
 850 179 671 0 450 0 c 0
 229 0 50 179 50 400 c 0
150 400 m 0
 150 234 284 100 450 100 c 0
 616 100 750 234 750 400 c 0
 750 566 616 700 450 700 c 0
 284 700 150 566 150 400 c 0
EndSplineSet
Validated: 1
EndChar

StartChar: Uacute
Encoding: 209 218 209
Width: 700
Flags: HMW
LayerCount: 2
Fore
SplineSet
310 850 m 1
 360 1000 l 1
 460 1000 l 1
 390 850 l 1
 310 850 l 1
50 300 m 2
 50 800 l 1
 150 800 l 1
 150 300 l 2
 150 190 240 100 350 100 c 0
 460 100 550 190 550 300 c 2
 550 800 l 1
 650 800 l 1
 650 300 l 2
 650 134 516 0 350 0 c 0
 184 0 50 134 50 300 c 2
EndSplineSet
Validated: 1
EndChar

StartChar: Ucircumflex
Encoding: 210 219 210
Width: 700
Flags: HMW
LayerCount: 2
Fore
SplineSet
200 850 m 1
 300 1000 l 1
 400 1000 l 1
 500 850 l 1
 400 850 l 1
 350 940 l 1
 300 850 l 1
 200 850 l 1
50 300 m 2
 50 800 l 1
 150 800 l 1
 150 300 l 2
 150 190 240 100 350 100 c 0
 460 100 550 190 550 300 c 2
 550 800 l 1
 650 800 l 1
 650 300 l 2
 650 134 516 0 350 0 c 0
 184 0 50 134 50 300 c 2
EndSplineSet
Validated: 1
EndChar

StartChar: Ugrave
Encoding: 211 217 211
Width: 700
Flags: HMW
LayerCount: 2
Fore
SplineSet
240 1000 m 1
 340 1000 l 1
 390 850 l 1
 310 850 l 1
 240 1000 l 1
50 300 m 2
 50 800 l 1
 150 800 l 1
 150 300 l 2
 150 190 240 100 350 100 c 0
 460 100 550 190 550 300 c 2
 550 800 l 1
 650 800 l 1
 650 300 l 2
 650 134 516 0 350 0 c 0
 184 0 50 134 50 300 c 2
EndSplineSet
Validated: 1
EndChar

StartChar: dotlessi
Encoding: 212 305 212
Width: 200
Flags: HMW
LayerCount: 2
Fore
SplineSet
50 0 m 1
 50 600 l 1
 150 600 l 1
 150 0 l 1
 50 0 l 1
EndSplineSet
Validated: 1
EndChar

StartChar: circumflex
Encoding: 213 710 213
Width: 400
Flags: HMW
LayerCount: 2
Fore
SplineSet
50 650 m 1
 150 800 l 1
 250 800 l 1
 350 650 l 1
 250 650 l 1
 200 740 l 1
 150 650 l 1
 50 650 l 1
EndSplineSet
Validated: 1
EndChar

StartChar: tilde
Encoding: 214 732 214
Width: 550
Flags: HMW
LayerCount: 2
Fore
SplineSet
50 650 m 1
 50 733 117 800 200 800 c 0
 244 800 306 750 350 750 c 0
 378 750 400 772 400 800 c 1
 500 800 l 1
 500 717 433 650 350 650 c 0
 306 650 244 700 200 700 c 0
 172 700 150 678 150 650 c 1
 50 650 l 1
EndSplineSet
Validated: 1
EndChar

StartChar: macron
Encoding: 215 175 215
Width: 400
Flags: HMW
LayerCount: 2
Fore
SplineSet
50 700 m 1
 50 800 l 1
 350 800 l 1
 350 700 l 1
 50 700 l 1
EndSplineSet
Validated: 1
EndChar

StartChar: breve
Encoding: 216 728 216
Width: 400
Flags: HMW
LayerCount: 2
Fore
SplineSet
50 800 m 1
 150 800 l 1
 150 772 172 750 200 750 c 0
 228 750 250 772 250 800 c 1
 350 800 l 1
 350 717 283 650 200 650 c 0
 117 650 50 717 50 800 c 1
EndSplineSet
Validated: 1
EndChar

StartChar: dotaccent
Encoding: 217 729 217
Width: 200
Flags: HMW
LayerCount: 2
Fore
SplineSet
50 700 m 1
 50 800 l 1
 150 800 l 1
 150 700 l 1
 50 700 l 1
EndSplineSet
Validated: 1
EndChar

StartChar: ring
Encoding: 218 730 218
Width: 260
Flags: HMW
LayerCount: 2
Fore
SplineSet
50 720 m 0
 50 764 86 800 130 800 c 0
 174 800 210 764 210 720 c 0
 210 676 174 640 130 640 c 0
 86 640 50 676 50 720 c 0
100 720 m 0
 100 703 113 690 130 690 c 0
 147 690 160 703 160 720 c 0
 160 737 147 750 130 750 c 0
 113 750 100 737 100 720 c 0
EndSplineSet
Validated: 1
EndChar

StartChar: cedilla
Encoding: 219 184 219
Width: 260
Flags: HMW
LayerCount: 2
Fore
SplineSet
50 -90 m 1
 80 -110 103 -110 120 -110 c 0
 147 -110 160 -97 160 -80 c 0
 160 -63 147 -50 130 -50 c 2
 90 -50 l 1
 100 20 l 1
 160 20 l 1
 156 -5 l 1
 187 -16 210 -45 210 -80 c 0
 210 -124 174 -160 120 -160 c 0
 100 -160 80 -160 50 -140 c 1
 50 -90 l 1
EndSplineSet
Validated: 1
EndChar

StartChar: hungarumlaut
Encoding: 220 733 220
Width: 430
Flags: HMW
LayerCount: 2
Fore
SplineSet
50 650 m 1
 100 800 l 1
 200 800 l 1
 130 650 l 1
 50 650 l 1
230 650 m 1
 280 800 l 1
 380 800 l 1
 310 650 l 1
 230 650 l 1
EndSplineSet
Validated: 1
EndChar

StartChar: ogonek
Encoding: 221 731 221
Width: 260
Flags: HMW
LayerCount: 2
Fore
SplineSet
50 -70 m 0
 50 -36 60 -24 80 0 c 1
 140 0 l 1
 110 -37 110 -53 110 -70 c 0
 110 -87 133 -100 150 -100 c 0
 167 -100 180 -100 210 -90 c 1
 210 -150 l 1
 180 -160 170 -160 150 -160 c 0
 96 -160 50 -124 50 -70 c 0
EndSplineSet
Validated: 1
EndChar

StartChar: caron
Encoding: 222 711 222
Width: 400
Flags: HMW
LayerCount: 2
Fore
SplineSet
50 800 m 1
 150 800 l 1
 200 710 l 1
 250 800 l 1
 350 800 l 1
 250 650 l 1
 150 650 l 1
 50 800 l 1
EndSplineSet
Validated: 1
EndChar

StartChar: Lambda
Encoding: 223 923 223
Width: 700
Flags: HMW
LayerCount: 2
Fore
SplineSet
50 0 m 1
 300 800 l 1
 400 800 l 1
 650 0 l 1
 550 0 l 1
 350 660 l 1
 150 0 l 1
 50 0 l 1
EndSplineSet
Validated: 1
EndChar

StartChar: uni2070
Encoding: 224 8304 224
Width: 500
Flags: HMW
LayerCount: 2
Fore
SplineSet
50 650 m 0
 50 788 140 900 250 900 c 0
 360 900 450 788 450 650 c 0
 450 512 360 400 250 400 c 0
 140 400 50 512 50 650 c 0
130 650 m 0
 130 556 184 480 250 480 c 0
 316 480 370 556 370 650 c 0
 370 744 316 820 250 820 c 0
 184 820 130 744 130 650 c 0
EndSplineSet
Validated: 1
EndChar

StartChar: uni00B9
Encoding: 225 185 225
Width: 450
Flags: HMW
LayerCount: 2
Fore
SplineSet
50 400 m 1
 50 480 l 1
 185 480 l 1
 185 791 l 1
 50 740 l 1
 50 820 l 1
 265 900 l 1
 265 480 l 1
 400 480 l 1
 400 400 l 1
 50 400 l 1
EndSplineSet
Validated: 1
EndChar

StartChar: uni00B2
Encoding: 226 178 226
Width: 500
Flags: HMW
LayerCount: 2
Fore
SplineSet
50 400 m 1
 50 480 l 2
 50 560 370 679 370 745 c 0
 370 781 316 820 250 820 c 0
 184 820 130 791 130 755 c 1
 50 755 l 1
 50 835 140 900 250 900 c 0
 360 900 450 825 450 745 c 0
 450 625 150 530 150 480 c 1
 450 480 l 1
 450 400 l 1
 50 400 l 1
EndSplineSet
Validated: 1
EndChar

StartChar: uni00B3
Encoding: 227 179 227
Width: 500
Flags: HMW
LayerCount: 2
Fore
SplineSet
50 545 m 1
 130 545 l 1
 130 509 184 480 250 480 c 0
 316 480 370 509 370 545 c 0
 370 581 316 610 250 610 c 2
 210 610 l 1
 210 690 l 1
 250 690 l 2
 316 690 370 719 370 755 c 0
 370 791 316 820 250 820 c 0
 184 820 130 791 130 755 c 1
 50 755 l 1
 50 835 140 900 250 900 c 0
 360 900 450 835 450 755 c 0
 450 714 426 676 378 650 c 1
 426 624 450 586 450 545 c 0
 450 465 360 400 250 400 c 0
 140 400 50 465 50 545 c 1
EndSplineSet
Validated: 1
EndChar

StartChar: uni2074
Encoding: 228 8308 228
Width: 500
Flags: HMW
LayerCount: 2
Fore
SplineSet
150 600 m 1
 280 600 l 1
 280 770 l 1
 150 600 l 1
50 520 m 1
 50 600 l 1
 280 900 l 1
 360 900 l 1
 360 600 l 1
 450 600 l 1
 450 520 l 1
 360 520 l 1
 360 400 l 1
 280 400 l 1
 280 520 l 1
 50 520 l 1
EndSplineSet
Validated: 1
EndChar

StartChar: uni2075
Encoding: 229 8309 229
Width: 500
Flags: HMW
LayerCount: 2
Fore
SplineSet
50 560 m 1
 130 560 l 1
 130 516 184 480 250 480 c 0
 316 480 370 516 370 560 c 0
 370 604 316 640 250 640 c 0
 218 640 189 632 167 618 c 1
 100 665 l 1
 150 900 l 1
 450 900 l 1
 450 820 l 1
 216 820 l 1
 194 714 l 1
 212 718 230 720 250 720 c 0
 360 720 450 648 450 560 c 0
 450 472 360 400 250 400 c 0
 140 400 50 472 50 560 c 1
EndSplineSet
Validated: 1
EndChar

StartChar: uni2076
Encoding: 230 8310 230
Width: 500
Flags: HMW
LayerCount: 2
Fore
SplineSet
370 570 m 1049
50 570 m 0
 50 752 193 900 370 900 c 1
 370 820 l 1
 273 820 189 760 151 673 c 1
 178 683 209 690 250 690 c 0
 360 690 450 625 450 545 c 0
 450 465 360 400 250 400 c 0
 140 400 50 470 50 570 c 0
130 570 m 2
 130 514 184 480 250 480 c 0
 316 480 370 509 370 545 c 0
 370 581 316 610 250 610 c 0
 197 610 161 599 130 585 c 1
 130 570 l 2
EndSplineSet
Validated: 1
EndChar

StartChar: uni2077
Encoding: 231 8311 231
Width: 500
Flags: HMW
LayerCount: 2
Fore
SplineSet
50 820 m 1
 50 900 l 1
 450 900 l 1
 450 820 l 1
 400 770 280 560 280 400 c 1
 200 400 l 1
 200 570 320 770 370 820 c 1
 50 820 l 1
EndSplineSet
Validated: 1
EndChar

StartChar: uni2078
Encoding: 232 8312 232
Width: 500
Flags: HMW
LayerCount: 2
Fore
SplineSet
130 755 m 0
 130 719 184 690 250 690 c 0
 316 690 370 719 370 755 c 0
 370 791 316 820 250 820 c 0
 184 820 130 791 130 755 c 0
130 545 m 0
 130 509 184 480 250 480 c 0
 316 480 370 509 370 545 c 0
 370 581 316 610 250 610 c 0
 184 610 130 581 130 545 c 0
50 545 m 0
 50 586 74 624 122 650 c 1
 74 676 50 714 50 755 c 0
 50 835 140 900 250 900 c 0
 360 900 450 835 450 755 c 0
 450 714 426 676 378 650 c 1
 426 624 450 586 450 545 c 0
 450 465 360 400 250 400 c 0
 140 400 50 465 50 545 c 0
EndSplineSet
Validated: 1
EndChar

StartChar: uni2079
Encoding: 233 8313 233
Width: 500
Flags: HMW
LayerCount: 2
Fore
SplineSet
130 730 m 1049
50 755 m 0
 50 835 140 900 250 900 c 0
 360 900 450 830 450 730 c 0
 450 548 307 400 130 400 c 1
 130 480 l 1
 227 480 311 540 349 627 c 1
 322 617 291 610 250 610 c 0
 140 610 50 675 50 755 c 0
130 755 m 0
 130 719 184 690 250 690 c 0
 303 690 339 701 370 715 c 1
 370 730 l 2
 370 786 316 820 250 820 c 0
 184 820 130 791 130 755 c 0
EndSplineSet
Validated: 1
EndChar

StartChar: uni207A
Encoding: 234 8314 234
Width: 350
Flags: HMW
LayerCount: 2
Fore
SplineSet
50 610 m 1
 50 690 l 1
 135 690 l 1
 135 775 l 1
 215 775 l 1
 215 690 l 1
 300 690 l 1
 300 610 l 1
 215 610 l 1
 215 525 l 1
 135 525 l 1
 135 610 l 1
 50 610 l 1
EndSplineSet
Validated: 1
EndChar

StartChar: uni207B
Encoding: 235 8315 235
Width: 350
Flags: HMW
LayerCount: 2
Fore
SplineSet
50 610 m 1
 50 690 l 1
 300 690 l 1
 300 610 l 1
 50 610 l 1
EndSplineSet
Validated: 1
EndChar

StartChar: uni207C
Encoding: 236 8316 236
Width: 350
Flags: HMW
LayerCount: 2
Fore
SplineSet
50 520 m 1
 50 600 l 1
 300 600 l 1
 300 520 l 1
 50 520 l 1
50 700 m 1
 50 780 l 1
 300 780 l 1
 300 700 l 1
 50 700 l 1
EndSplineSet
Validated: 1
EndChar

StartChar: uni207D
Encoding: 237 8317 237
Width: 270
Flags: HMW
LayerCount: 2
Fore
SplineSet
50 650 m 0
 50 733 80 817 140 900 c 1
 220 900 l 1
 160 817 130 733 130 650 c 0
 130 567 160 483 220 400 c 1
 140 400 l 1
 80 483 50 567 50 650 c 0
EndSplineSet
Validated: 1
EndChar

StartChar: uni207E
Encoding: 238 8318 238
Width: 270
Flags: HMW
LayerCount: 2
Fore
SplineSet
50 400 m 1
 110 483 140 567 140 650 c 0
 140 733 110 817 50 900 c 1
 130 900 l 1
 190 817 220 733 220 650 c 0
 220 567 190 483 130 400 c 1
 50 400 l 1
EndSplineSet
Validated: 1
EndChar

StartChar: uni207F
Encoding: 239 8319 239
Width: 500
Flags: HMW
LayerCount: 2
Fore
SplineSet
50 400 m 1
 50 800 l 1
 130 800 l 1
 130 755 l 1
 163 785 205 800 250 800 c 0
 360 800 450 710 450 600 c 2
 450 400 l 1
 370 400 l 1
 370 600 l 2
 370 666 316 720 250 720 c 0
 184 720 130 666 130 600 c 2
 130 400 l 1
 50 400 l 1
EndSplineSet
Validated: 1
EndChar

StartChar: uni2080
Encoding: 240 8320 240
Width: 500
Flags: HMW
LayerCount: 2
Fore
SplineSet
50 150 m 0
 50 288 140 400 250 400 c 0
 360 400 450 288 450 150 c 0
 450 12 360 -100 250 -100 c 0
 140 -100 50 12 50 150 c 0
130 150 m 0
 130 56 184 -20 250 -20 c 0
 316 -20 370 56 370 150 c 0
 370 244 316 320 250 320 c 0
 184 320 130 244 130 150 c 0
EndSplineSet
Validated: 1
EndChar

StartChar: uni2081
Encoding: 241 8321 241
Width: 450
Flags: HMW
LayerCount: 2
Fore
SplineSet
50 -20 m 1
 185 -20 l 1
 185 291 l 1
 50 240 l 1
 50 320 l 1
 265 400 l 1
 265 -20 l 1
 400 -20 l 1
 400 -100 l 1
 50 -100 l 1
 50 -20 l 1
EndSplineSet
Validated: 1
EndChar

StartChar: uni2082
Encoding: 242 8322 242
Width: 500
Flags: HMW
LayerCount: 2
Fore
SplineSet
50 -20 m 2
 50 60 370 179 370 245 c 0
 370 281 316 320 250 320 c 0
 184 320 130 291 130 255 c 1
 50 255 l 1
 50 335 140 400 250 400 c 0
 360 400 450 325 450 245 c 0
 450 125 150 30 150 -20 c 1
 450 -20 l 1
 450 -100 l 1
 50 -100 l 1
 50 -20 l 2
EndSplineSet
Validated: 1
EndChar

StartChar: uni2083
Encoding: 243 8323 243
Width: 500
Flags: HMW
LayerCount: 2
Fore
SplineSet
50 45 m 1
 130 45 l 1
 130 9 184 -20 250 -20 c 0
 316 -20 370 9 370 45 c 0
 370 81 316 110 250 110 c 2
 210 110 l 1
 210 190 l 1
 250 190 l 2
 316 190 370 219 370 255 c 0
 370 291 316 320 250 320 c 0
 184 320 130 291 130 255 c 1
 50 255 l 1
 50 335 140 400 250 400 c 0
 360 400 450 335 450 255 c 0
 450 214 426 176 378 150 c 1
 426 124 450 86 450 45 c 0
 450 -35 360 -100 250 -100 c 0
 140 -100 50 -35 50 45 c 1
EndSplineSet
Validated: 1
EndChar

StartChar: uni2084
Encoding: 244 8324 244
Width: 500
Flags: HMW
LayerCount: 2
Fore
SplineSet
150 100 m 1
 280 100 l 1
 280 270 l 1
 150 100 l 1
50 20 m 1
 50 100 l 1
 280 400 l 1
 360 400 l 1
 360 100 l 1
 450 100 l 1
 450 20 l 1
 360 20 l 1
 360 -100 l 1
 280 -100 l 1
 280 20 l 1
 50 20 l 1
EndSplineSet
Validated: 1
EndChar

StartChar: uni2085
Encoding: 245 8325 245
Width: 500
Flags: HMW
LayerCount: 2
Fore
SplineSet
50 60 m 1
 130 60 l 1
 130 16 184 -20 250 -20 c 0
 316 -20 370 16 370 60 c 0
 370 104 316 140 250 140 c 0
 218 140 189 132 167 118 c 1
 100 165 l 1
 150 400 l 1
 450 400 l 1
 450 320 l 1
 216 320 l 1
 194 214 l 1
 212 218 230 220 250 220 c 0
 360 220 450 148 450 60 c 0
 450 -28 360 -100 250 -100 c 0
 140 -100 50 -28 50 60 c 1
EndSplineSet
Validated: 1
EndChar

StartChar: uni2086
Encoding: 246 8326 246
Width: 500
Flags: HMW
LayerCount: 2
Fore
SplineSet
370 70 m 1049
50 70 m 0
 50 252 193 400 370 400 c 1
 370 320 l 1
 273 320 189 260 151 173 c 1
 178 183 209 190 250 190 c 0
 360 190 450 125 450 45 c 0
 450 -35 360 -100 250 -100 c 0
 140 -100 50 -30 50 70 c 0
130 70 m 2
 130 14 184 -20 250 -20 c 0
 316 -20 370 9 370 45 c 0
 370 81 316 110 250 110 c 0
 197 110 161 99 130 85 c 1
 130 70 l 2
EndSplineSet
Validated: 1
EndChar

StartChar: uni2087
Encoding: 247 8327 247
Width: 500
Flags: HMW
LayerCount: 2
Fore
SplineSet
50 320 m 1
 50 400 l 1
 450 400 l 1
 450 320 l 1
 400 270 280 60 280 -100 c 1
 200 -100 l 1
 200 70 320 270 370 320 c 1
 50 320 l 1
EndSplineSet
Validated: 1
EndChar

StartChar: uni2088
Encoding: 248 8328 248
Width: 500
Flags: HMW
LayerCount: 2
Fore
SplineSet
130 255 m 0
 130 219 184 190 250 190 c 0
 316 190 370 219 370 255 c 0
 370 291 316 320 250 320 c 0
 184 320 130 291 130 255 c 0
130 45 m 0
 130 9 184 -20 250 -20 c 0
 316 -20 370 9 370 45 c 0
 370 81 316 110 250 110 c 0
 184 110 130 81 130 45 c 0
50 45 m 0
 50 86 74 124 122 150 c 1
 74 176 50 214 50 255 c 0
 50 335 140 400 250 400 c 0
 360 400 450 335 450 255 c 0
 450 214 426 176 378 150 c 1
 426 124 450 86 450 45 c 0
 450 -35 360 -100 250 -100 c 0
 140 -100 50 -35 50 45 c 0
EndSplineSet
Validated: 1
EndChar

StartChar: uni2089
Encoding: 249 8329 249
Width: 500
Flags: HMW
LayerCount: 2
Fore
SplineSet
130 230 m 1049
50 255 m 0
 50 335 140 400 250 400 c 0
 360 400 450 330 450 230 c 0
 450 48 307 -100 130 -100 c 1
 130 -20 l 1
 227 -20 311 40 349 127 c 1
 322 117 291 110 250 110 c 0
 140 110 50 175 50 255 c 0
130 255 m 0
 130 219 184 190 250 190 c 0
 303 190 339 201 370 215 c 1
 370 230 l 2
 370 286 316 320 250 320 c 0
 184 320 130 291 130 255 c 0
EndSplineSet
Validated: 1
EndChar

StartChar: uni208A
Encoding: 250 8330 250
Width: 350
Flags: HMW
LayerCount: 2
Fore
SplineSet
50 110 m 1
 50 190 l 1
 135 190 l 1
 135 275 l 1
 215 275 l 1
 215 190 l 1
 300 190 l 1
 300 110 l 1
 215 110 l 1
 215 25 l 1
 135 25 l 1
 135 110 l 1
 50 110 l 1
EndSplineSet
Validated: 1
EndChar

StartChar: uni208B
Encoding: 251 8331 251
Width: 350
Flags: HMW
LayerCount: 2
Fore
SplineSet
50 110 m 1
 50 190 l 1
 300 190 l 1
 300 110 l 1
 50 110 l 1
EndSplineSet
Validated: 1
EndChar

StartChar: uni208C
Encoding: 252 8332 252
Width: 350
Flags: HMW
LayerCount: 2
Fore
SplineSet
50 20 m 1
 50 100 l 1
 300 100 l 1
 300 20 l 1
 50 20 l 1
50 200 m 1
 50 280 l 1
 300 280 l 1
 300 200 l 1
 50 200 l 1
EndSplineSet
Validated: 1
EndChar

StartChar: uni208D
Encoding: 253 8333 253
Width: 270
Flags: HMW
LayerCount: 2
Fore
SplineSet
50 150 m 0
 50 233 80 317 140 400 c 1
 220 400 l 1
 160 317 130 233 130 150 c 0
 130 67 160 -17 220 -100 c 1
 140 -100 l 1
 80 -17 50 67 50 150 c 0
EndSplineSet
Validated: 1
EndChar

StartChar: uni208E
Encoding: 254 8334 254
Width: 270
Flags: HMW
LayerCount: 2
Fore
SplineSet
50 -100 m 1
 110 -17 140 67 140 150 c 0
 140 233 110 317 50 400 c 1
 130 400 l 1
 190 317 220 233 220 150 c 0
 220 67 190 -17 130 -100 c 1
 50 -100 l 1
EndSplineSet
Validated: 1
EndChar

StartChar: uni2090
Encoding: 255 8336 255
Width: 440
Flags: HMW
LayerCount: 2
Fore
SplineSet
130 20 m 0
 130 -2 148 -20 170 -20 c 2
 190 -20 l 2
 242 -20 286 14 303 60 c 1
 170 60 l 2
 148 60 130 42 130 20 c 0
49 241 m 1
 85 277 135 300 190 300 c 0
 300 300 390 210 390 100 c 2
 390 -100 l 1
 310 -100 l 1
 310 -60 l 1
 277 -85 235 -100 190 -100 c 2
 170 -100 l 2
 104 -100 50 -46 50 20 c 0
 50 86 104 140 170 140 c 2
 303 140 l 1
 286 186 242 220 190 220 c 0
 157 220 127 207 105 185 c 1
 49 241 l 1
EndSplineSet
Validated: 1
EndChar

StartChar: uni2091
Encoding: 256 8337 256
Width: 500
Flags: HMW
LayerCount: 2
Fore
SplineSet
137 140 m 1
 363 140 l 1
 346 186 302 220 250 220 c 0
 198 220 154 186 137 140 c 1
50 100 m 0
 50 210 140 300 250 300 c 0
 360 300 450 210 450 100 c 2
 450 60 l 1
 137 60 l 1
 154 14 198 -20 250 -20 c 0
 283 -20 313 -7 335 15 c 1
 391 -41 l 1
 355 -77 305 -100 250 -100 c 0
 140 -100 50 -10 50 100 c 0
EndSplineSet
Validated: 1
EndChar

StartChar: uni2092
Encoding: 257 8338 257
Width: 500
Flags: HMW
LayerCount: 2
Fore
SplineSet
50 100 m 0
 50 210 140 300 250 300 c 0
 360 300 450 210 450 100 c 0
 450 -10 360 -100 250 -100 c 0
 140 -100 50 -10 50 100 c 0
130 100 m 0
 130 34 184 -20 250 -20 c 0
 316 -20 370 34 370 100 c 0
 370 166 316 220 250 220 c 0
 184 220 130 166 130 100 c 0
EndSplineSet
Validated: 1
EndChar

StartChar: uni2093
Encoding: 258 8339 258
Width: 500
Flags: HMW
LayerCount: 2
Fore
SplineSet
50 -100 m 1
 192 96 l 1
 50 300 l 1
 160 300 l 1
 248 169 l 1
 340 300 l 1
 450 300 l 1
 302 96 l 1
 440 -100 l 1
 330 -100 l 1
 246 24 l 1
 160 -100 l 1
 50 -100 l 1
EndSplineSet
Validated: 1
EndChar

StartChar: uni2094
Encoding: 259 8340 259
Width: 500
Flags: HMW
LayerCount: 2
Fore
SplineSet
137 60 m 1
 154 14 198 -20 250 -20 c 0
 302 -20 346 14 363 60 c 1
 137 60 l 1
50 100 m 2
 50 140 l 1
 363 140 l 1
 346 186 302 220 250 220 c 0
 217 220 187 207 165 185 c 1
 109 241 l 1
 145 277 195 300 250 300 c 0
 360 300 450 210 450 100 c 0
 450 -10 360 -100 250 -100 c 0
 140 -100 50 -10 50 100 c 2
EndSplineSet
Validated: 1
EndChar

StartChar: uni02BB
Encoding: 260 699 260
Width: 200
Flags: HMW
LayerCount: 2
Fore
SplineSet
50 600 m 1
 50 700 l 1
 100 800 l 1
 150 800 l 1
 150 600 l 1
 50 600 l 1
EndSplineSet
Validated: 1
EndChar

StartChar: uni02BC
Encoding: 261 700 261
Width: 200
Flags: HMW
LayerCount: 2
Fore
SplineSet
50 600 m 1
 50 800 l 1
 150 800 l 1
 150 700 l 1
 100 600 l 1
 50 600 l 1
EndSplineSet
Validated: 1
EndChar

StartChar: uni02BD
Encoding: 262 701 262
Width: 200
Flags: HMW
LayerCount: 2
Fore
SplineSet
50 700 m 1
 50 800 l 1
 150 800 l 1
 150 600 l 1
 100 600 l 1
 50 700 l 1
EndSplineSet
Validated: 1
EndChar

StartChar: uni02C8
Encoding: 263 712 263
Width: 200
Flags: HMW
LayerCount: 2
Fore
SplineSet
50 640 m 1
 50 800 l 1
 150 800 l 1
 150 640 l 1
 50 640 l 1
EndSplineSet
Validated: 1
EndChar

StartChar: uni02C9
Encoding: 264 713 264
Width: 400
Flags: HMW
LayerCount: 2
Fore
SplineSet
50 700 m 1
 50 800 l 1
 350 800 l 1
 350 700 l 1
 50 700 l 1
EndSplineSet
Validated: 1
EndChar

StartChar: uni02CA
Encoding: 265 714 265
Width: 250
Flags: HMW
LayerCount: 2
Fore
SplineSet
50 650 m 1
 100 800 l 1
 200 800 l 1
 130 650 l 1
 50 650 l 1
EndSplineSet
Validated: 1
EndChar

StartChar: uni02CB
Encoding: 266 715 266
Width: 250
Flags: HMW
LayerCount: 2
Fore
SplineSet
50 800 m 1
 150 800 l 1
 200 650 l 1
 120 650 l 1
 50 800 l 1
EndSplineSet
Validated: 1
EndChar

StartChar: uni02CC
Encoding: 267 716 267
Width: 200
Flags: HMW
LayerCount: 2
Fore
SplineSet
50 0 m 1
 150 0 l 1
 150 -160 l 1
 50 -160 l 1
 50 0 l 1
EndSplineSet
Validated: 1
EndChar

StartChar: uni02CD
Encoding: 268 717 268
Width: 400
Flags: HMW
LayerCount: 2
Fore
SplineSet
50 0 m 1
 350 0 l 1
 350 -100 l 1
 50 -100 l 1
 50 0 l 1
EndSplineSet
Validated: 1
EndChar

StartChar: uni02CE
Encoding: 269 718 269
Width: 250
Flags: HMW
LayerCount: 2
Fore
SplineSet
50 0 m 1
 130 0 l 1
 200 -150 l 1
 100 -150 l 1
 50 0 l 1
EndSplineSet
Validated: 1
EndChar

StartChar: uni02CF
Encoding: 270 719 270
Width: 250
Flags: HMW
LayerCount: 2
Fore
SplineSet
50 -150 m 1
 120 0 l 1
 200 0 l 1
 150 -150 l 1
 50 -150 l 1
EndSplineSet
Validated: 1
EndChar

StartChar: uni02EC
Encoding: 271 748 271
Width: 400
Flags: HMW
LayerCount: 2
Fore
SplineSet
50 0 m 1
 150 0 l 1
 200 -90 l 1
 250 0 l 1
 350 0 l 1
 250 -150 l 1
 150 -150 l 1
 50 0 l 1
EndSplineSet
Validated: 1
EndChar

StartChar: uni02F3
Encoding: 272 755 272
Width: 260
Flags: HMW
LayerCount: 2
Fore
SplineSet
50 -80 m 0
 50 -36 86 0 130 0 c 0
 174 0 210 -36 210 -80 c 0
 210 -124 174 -160 130 -160 c 0
 86 -160 50 -124 50 -80 c 0
100 -80 m 0
 100 -97 113 -110 130 -110 c 0
 147 -110 160 -97 160 -80 c 0
 160 -63 147 -50 130 -50 c 0
 113 -50 100 -63 100 -80 c 0
EndSplineSet
Validated: 1
EndChar

StartChar: uni02F7
Encoding: 273 759 273
Width: 550
Flags: HMW
LayerCount: 2
Fore
SplineSet
50 -150 m 1
 50 -67 117 0 200 0 c 0
 244 0 306 -50 350 -50 c 0
 378 -50 400 -28 400 0 c 1
 500 0 l 1
 500 -83 433 -150 350 -150 c 0
 306 -150 244 -100 200 -100 c 0
 172 -100 150 -122 150 -150 c 1
 50 -150 l 1
EndSplineSet
Validated: 1
EndChar

StartChar: Euro
Encoding: 274 8364 274
Width: 880
Flags: HMW
LayerCount: 2
Fore
SplineSet
50 250 m 1
 50 350 l 1
 153 350 l 1
 151 366 150 383 150 400 c 0
 150 417 151 434 153 450 c 1
 50 450 l 1
 50 550 l 1
 179 550 l 1
 238 697 382 800 550 800 c 0
 660 800 761 755 833 683 c 1
 762 612 l 1
 708 666 633 700 550 700 c 0
 439 700 342 640 290 550 c 1
 500 550 l 1
 500 450 l 1
 254 450 l 1
 251 434 250 417 250 400 c 0
 250 383 251 366 254 350 c 1
 500 350 l 1
 500 250 l 1
 290 250 l 1
 342 160 439 100 550 100 c 0
 634 100 709 134 763 189 c 1
 834 118 l 1
 762 45 661 0 550 0 c 0
 382 0 238 103 179 250 c 1
 50 250 l 1
EndSplineSet
Validated: 1
EndChar

StartChar: Scaron
Encoding: 275 352 275
Width: 480
Flags: HMW
LayerCount: 2
Fore
SplineSet
125 1000 m 1
 225 1000 l 1
 275 910 l 1
 325 1000 l 1
 425 1000 l 1
 325 850 l 1
 225 850 l 1
 125 1000 l 1
46 66 m 1
 117 137 l 1
 140 114 171 100 205 100 c 0
 274 100 330 156 330 225 c 0
 330 324 50 421 50 575 c 0
 50 699 151 800 275 800 c 0
 337 800 393 775 434 734 c 1
 363 663 l 1
 340 686 309 700 275 700 c 0
 206 700 150 644 150 575 c 0
 150 476 430 379 430 225 c 0
 430 101 329 0 205 0 c 0
 143 0 87 25 46 66 c 1
EndSplineSet
Validated: 1
EndChar

StartChar: Zcaron
Encoding: 276 381 276
Width: 700
Flags: HMW
LayerCount: 2
Fore
SplineSet
200 1000 m 1
 300 1000 l 1
 350 910 l 1
 400 1000 l 1
 500 1000 l 1
 400 850 l 1
 300 850 l 1
 200 1000 l 1
50 0 m 1
 50 100 l 1
 520 700 l 1
 50 700 l 1
 50 800 l 1
 650 800 l 1
 650 700 l 1
 180 100 l 1
 650 100 l 1
 650 0 l 1
 50 0 l 1
EndSplineSet
Validated: 1
EndChar

StartChar: scaron
Encoding: 277 353 277
Width: 395
Flags: HMW
LayerCount: 2
Fore
SplineSet
75 800 m 1
 175 800 l 1
 225 710 l 1
 275 800 l 1
 375 800 l 1
 275 650 l 1
 175 650 l 1
 75 800 l 1
46 51 m 1
 117 122 l 1
 131 108 150 100 170 100 c 0
 211 100 245 134 245 175 c 0
 245 236 50 308 50 425 c 0
 50 522 128 600 225 600 c 0
 273 600 317 581 349 549 c 1
 278 478 l 1
 264 492 245 500 225 500 c 0
 184 500 150 466 150 425 c 0
 150 364 345 292 345 175 c 0
 345 78 267 0 170 0 c 0
 122 0 78 19 46 51 c 1
EndSplineSet
Validated: 1
EndChar

StartChar: zcaron
Encoding: 278 382 278
Width: 550
Flags: HMW
LayerCount: 2
Fore
SplineSet
125 800 m 1
 225 800 l 1
 275 710 l 1
 325 800 l 1
 425 800 l 1
 325 650 l 1
 225 650 l 1
 125 800 l 1
50 0 m 1
 50 100 l 1
 370 500 l 1
 50 500 l 1
 50 600 l 1
 500 600 l 1
 500 500 l 1
 180 100 l 1
 500 100 l 1
 500 0 l 1
 50 0 l 1
EndSplineSet
Validated: 1
EndChar

StartChar: brokenbar
Encoding: 279 166 279
Width: 200
Flags: HMW
LayerCount: 2
Fore
SplineSet
50 350 m 1
 50 800 l 1
 150 800 l 1
 150 350 l 1
 50 350 l 1
50 -200 m 1
 50 250 l 1
 150 250 l 1
 150 -200 l 1
 50 -200 l 1
EndSplineSet
Validated: 1
EndChar

StartChar: uni00AD
Encoding: 280 173 280
Width: 450
Flags: HMW
LayerCount: 2
Fore
SplineSet
50 350 m 1
 50 450 l 1
 400 450 l 1
 400 350 l 1
 50 350 l 1
EndSplineSet
Validated: 1
EndChar

StartChar: onequarter
Encoding: 281 188 281
Width: 950
Flags: HMW
LayerCount: 2
Fore
SplineSet
50 400 m 1
 50 480 l 1
 185 480 l 1
 185 791 l 1
 50 740 l 1
 50 820 l 1
 265 900 l 1
 265 480 l 1
 400 480 l 1
 400 400 l 1
 50 400 l 1
600 100 m 1
 730 100 l 1
 730 270 l 1
 600 100 l 1
500 20 m 1
 500 100 l 1
 730 400 l 1
 810 400 l 1
 810 100 l 1
 900 100 l 1
 900 20 l 1
 810 20 l 1
 810 -100 l 1
 730 -100 l 1
 730 20 l 1
 500 20 l 1
300 0 m 1
 620 800 l 1
 700 800 l 1
 380 0 l 1
 300 0 l 1
EndSplineSet
Validated: 1
EndChar

StartChar: onehalf
Encoding: 282 189 282
Width: 1020
Flags: HMW
LayerCount: 2
Fore
SplineSet
50 400 m 1
 50 480 l 1
 185 480 l 1
 185 791 l 1
 50 740 l 1
 50 820 l 1
 265 900 l 1
 265 480 l 1
 400 480 l 1
 400 400 l 1
 50 400 l 1
300 0 m 1
 620 800 l 1
 700 800 l 1
 380 0 l 1
 300 0 l 1
570 -20 m 2
 570 60 890 179 890 245 c 0
 890 281 836 320 770 320 c 0
 704 320 650 291 650 255 c 1
 570 255 l 1
 570 335 660 400 770 400 c 0
 880 400 970 325 970 245 c 0
 970 125 670 30 670 -20 c 1
 970 -20 l 1
 970 -100 l 1
 570 -100 l 1
 570 -20 l 2
EndSplineSet
Validated: 1
EndChar

StartChar: threequarters
Encoding: 283 190 283
Width: 950
Flags: HMW
LayerCount: 2
Fore
SplineSet
600 100 m 1
 730 100 l 1
 730 270 l 1
 600 100 l 1
500 20 m 1
 500 100 l 1
 730 400 l 1
 810 400 l 1
 810 100 l 1
 900 100 l 1
 900 20 l 1
 810 20 l 1
 810 -100 l 1
 730 -100 l 1
 730 20 l 1
 500 20 l 1
300 0 m 1
 620 800 l 1
 700 800 l 1
 380 0 l 1
 300 0 l 1
20 545 m 1
 100 545 l 1
 100 509 154 480 220 480 c 0
 286 480 340 509 340 545 c 0
 340 581 286 610 220 610 c 2
 180 610 l 1
 180 690 l 1
 220 690 l 2
 286 690 340 719 340 755 c 0
 340 791 286 820 220 820 c 0
 154 820 100 791 100 755 c 1
 20 755 l 1
 20 835 110 900 220 900 c 0
 330 900 420 835 420 755 c 0
 420 714 396 676 348 650 c 1
 396 624 420 586 420 545 c 0
 420 465 330 400 220 400 c 0
 110 400 20 465 20 545 c 1
EndSplineSet
Validated: 1
EndChar

StartChar: Eth
Encoding: 284 208 284
Width: 750
Flags: HMW
LayerCount: 2
Fore
SplineSet
50 350 m 1
 50 450 l 1
 150 450 l 1
 150 800 l 1
 300 800 l 2
 521 800 700 621 700 400 c 0
 700 179 521 0 300 0 c 2
 150 0 l 1
 150 350 l 1
 50 350 l 1
250 100 m 1
 300 100 l 2
 466 100 600 234 600 400 c 0
 600 566 466 700 300 700 c 2
 250 700 l 1
 250 450 l 1
 400 450 l 1
 400 350 l 1
 250 350 l 1
 250 100 l 1
EndSplineSet
Validated: 1
EndChar

StartChar: multiply
Encoding: 285 215 285
Width: 550
Flags: HMW
LayerCount: 2
Fore
SplineSet
50 200 m 1
 190 400 l 1
 50 600 l 1
 170 600 l 1
 250 476 l 1
 330 600 l 1
 450 600 l 1
 310 400 l 1
 450 200 l 1
 330 200 l 1
 250 324 l 1
 170 200 l 1
 50 200 l 1
EndSplineSet
Validated: 1
EndChar

StartChar: Yacute
Encoding: 286 221 286
Width: 650
Flags: HMW
LayerCount: 2
Fore
SplineSet
285 850 m 1
 335 1000 l 1
 435 1000 l 1
 365 850 l 1
 285 850 l 1
50 800 m 1
 150 800 l 1
 325 480 l 1
 500 800 l 1
 600 800 l 1
 375 400 l 1
 375 0 l 1
 275 0 l 1
 275 400 l 1
 50 800 l 1
EndSplineSet
Validated: 1
EndChar

StartChar: Thorn
Encoding: 287 222 287
Width: 600
Flags: HMW
LayerCount: 2
Fore
SplineSet
150 275 m 1
 325 275 l 2
 394 275 450 331 450 400 c 0
 450 469 394 525 325 525 c 2
 150 525 l 1
 150 275 l 1
50 0 m 1
 50 800 l 1
 150 800 l 1
 150 625 l 1
 325 625 l 2
 449 625 550 524 550 400 c 0
 550 276 449 175 325 175 c 2
 150 175 l 1
 150 0 l 1
 50 0 l 1
EndSplineSet
Validated: 1
EndChar

StartChar: eth
Encoding: 288 240 288
Width: 700
Flags: HMW
LayerCount: 2
Fore
SplineSet
50 300 m 0
 50 466 184 600 350 600 c 0
 396 600 449 589 488 561 c 1
 426 640 349 700 250 700 c 1
 250 800 l 1
 340 800 419 769 482 716 c 1
 650 800 l 1
 650 700 l 1
 545 648 l 1
 612 558 650 435 650 300 c 0
 650 134 516 0 350 0 c 0
 184 0 50 134 50 300 c 0
150 300 m 0
 150 190 240 100 350 100 c 0
 460 100 550 190 550 300 c 0
 550 410 460 500 350 500 c 0
 240 500 150 410 150 300 c 0
EndSplineSet
Validated: 1
EndChar

StartChar: yacute
Encoding: 289 253 289
Width: 700
Flags: HMW
LayerCount: 2
Fore
SplineSet
310 650 m 1
 360 800 l 1
 460 800 l 1
 390 650 l 1
 310 650 l 1
50 600 m 1
 150 600 l 1
 350 110 l 1
 550 600 l 1
 650 600 l 1
 318 -200 l 1
 218 -200 l 1
 300 0 l 1
 50 600 l 1
EndSplineSet
Validated: 1
EndChar

StartChar: thorn
Encoding: 290 254 290
Width: 700
Flags: HMW
LayerCount: 2
Fore
SplineSet
50 -200 m 1
 50 800 l 1
 150 800 l 1
 150 519 l 1
 203 571 274 600 350 600 c 0
 516 600 650 466 650 300 c 0
 650 134 516 0 350 0 c 0
 274 0 203 29 150 81 c 1
 150 -200 l 1
 50 -200 l 1
150 300 m 0
 150 190 240 100 350 100 c 0
 460 100 550 190 550 300 c 0
 550 410 460 500 350 500 c 0
 240 500 150 410 150 300 c 0
EndSplineSet
Validated: 1
EndChar

StartChar: uni20AF
Encoding: 291 8367 291
Width: 1350
Flags: HMW
LayerCount: 2
Fore
SplineSet
150 100 m 1
 200 100 l 2
 366 100 500 234 500 400 c 0
 500 566 366 700 200 700 c 2
 150 700 l 1
 150 100 l 1
50 0 m 1
 50 800 l 1
 200 800 l 2
 421 800 600 621 600 400 c 0
 600 179 421 0 200 0 c 2
 50 0 l 1
700 -200 m 1
 700 300 l 2
 700 466 834 600 1000 600 c 0
 1166 600 1300 466 1300 300 c 0
 1300 134 1166 0 1000 0 c 0
 923 0 853 29 800 81 c 1
 800 -200 l 1
 700 -200 l 1
800 300 m 0
 800 190 890 100 1000 100 c 0
 1110 100 1200 190 1200 300 c 0
 1200 410 1110 500 1000 500 c 0
 890 500 800 410 800 300 c 0
EndSplineSet
Validated: 1
EndChar

StartChar: uni037A
Encoding: 292 890 292
Width: 200
Flags: HMW
LayerCount: 2
Fore
SplineSet
50 0 m 1
 150 0 l 1
 150 -160 l 1
 50 -160 l 1
 50 0 l 1
EndSplineSet
Validated: 1
EndChar

StartChar: uni2015
Encoding: 293 8213 293
Width: 1200
Flags: HMW
LayerCount: 2
Fore
SplineSet
50 350 m 1
 50 450 l 1
 1150 450 l 1
 1150 350 l 1
 50 350 l 1
EndSplineSet
Validated: 1
EndChar

StartChar: tonos
Encoding: 294 900 294
Width: 250
Flags: HMW
LayerCount: 2
Fore
SplineSet
50 650 m 1
 100 800 l 1
 200 800 l 1
 130 650 l 1
 50 650 l 1
EndSplineSet
Validated: 1
EndChar

StartChar: dieresistonos
Encoding: 295 901 295
Width: 400
Flags: HMW
LayerCount: 2
Fore
SplineSet
160 650 m 1
 210 800 l 1
 310 800 l 1
 240 650 l 1
 160 650 l 1
50 500 m 1
 50 600 l 1
 150 600 l 1
 150 500 l 1
 50 500 l 1
250 500 m 1
 250 600 l 1
 350 600 l 1
 350 500 l 1
 250 500 l 1
EndSplineSet
Validated: 1
EndChar

StartChar: Alphatonos
Encoding: 296 902 296
Width: 750
Flags: HMW
LayerCount: 2
Fore
SplineSet
50 650 m 1
 100 800 l 1
 200 800 l 1
 130 650 l 1
 50 650 l 1
276 250 m 1
 524 250 l 1
 400 660 l 1
 276 250 l 1
100 0 m 1
 350 800 l 1
 450 800 l 1
 700 0 l 1
 600 0 l 1
 555 150 l 1
 245 150 l 1
 200 0 l 1
 100 0 l 1
EndSplineSet
Validated: 1
EndChar

StartChar: Epsilontonos
Encoding: 297 904 297
Width: 800
Flags: HMW
LayerCount: 2
Fore
SplineSet
50 650 m 1
 100 800 l 1
 200 800 l 1
 130 650 l 1
 50 650 l 1
300 0 m 1
 300 800 l 1
 750 800 l 1
 750 700 l 1
 400 700 l 1
 400 450 l 1
 650 450 l 1
 650 350 l 1
 400 350 l 1
 400 100 l 1
 750 100 l 1
 750 0 l 1
 300 0 l 1
EndSplineSet
Validated: 1
EndChar

StartChar: Etatonos
Encoding: 298 905 298
Width: 900
Flags: HMW
LayerCount: 2
Fore
SplineSet
50 650 m 1
 100 800 l 1
 200 800 l 1
 130 650 l 1
 50 650 l 1
300 0 m 1
 300 800 l 1
 400 800 l 1
 400 450 l 1
 750 450 l 1
 750 800 l 1
 850 800 l 1
 850 0 l 1
 750 0 l 1
 750 350 l 1
 400 350 l 1
 400 0 l 1
 300 0 l 1
EndSplineSet
Validated: 1
EndChar

StartChar: Iotatonos
Encoding: 299 906 299
Width: 650
Flags: HMW
LayerCount: 2
Fore
SplineSet
50 650 m 1
 100 800 l 1
 200 800 l 1
 130 650 l 1
 50 650 l 1
300 0 m 1
 300 100 l 1
 400 100 l 1
 400 700 l 1
 300 700 l 1
 300 800 l 1
 600 800 l 1
 600 700 l 1
 500 700 l 1
 500 100 l 1
 600 100 l 1
 600 0 l 1
 300 0 l 1
EndSplineSet
Validated: 1
EndChar

StartChar: Omicrontonos
Encoding: 300 908 300
Width: 1040
Flags: HMW
LayerCount: 2
Fore
SplineSet
70 650 m 1
 120 800 l 1
 220 800 l 1
 150 650 l 1
 70 650 l 1
190 400 m 0
 190 621 369 800 590 800 c 0
 811 800 990 621 990 400 c 0
 990 179 811 0 590 0 c 0
 369 0 190 179 190 400 c 0
290 400 m 0
 290 234 424 100 590 100 c 0
 756 100 890 234 890 400 c 0
 890 566 756 700 590 700 c 0
 424 700 290 566 290 400 c 0
EndSplineSet
Validated: 1
EndChar

StartChar: Upsilontonos
Encoding: 301 910 301
Width: 900
Flags: HMW
LayerCount: 2
Fore
SplineSet
50 650 m 1
 100 800 l 1
 200 800 l 1
 130 650 l 1
 50 650 l 1
300 800 m 1
 400 800 l 1
 575 480 l 1
 750 800 l 1
 850 800 l 1
 625 400 l 1
 625 0 l 1
 525 0 l 1
 525 400 l 1
 300 800 l 1
EndSplineSet
Validated: 1
EndChar

StartChar: Omegatonos
Encoding: 302 911 302
Width: 1040
Flags: HMW
LayerCount: 2
Fore
SplineSet
50 650 m 1
 100 800 l 1
 200 800 l 1
 130 650 l 1
 50 650 l 1
190 0 m 1
 190 100 l 1
 330 100 l 1
 240 173 190 281 190 400 c 0
 190 621 369 800 590 800 c 0
 811 800 990 621 990 400 c 0
 990 281 940 173 850 100 c 1
 990 100 l 1
 990 0 l 1
 640 0 l 1
 640 100 l 1
 756 100 890 234 890 400 c 0
 890 566 756 700 590 700 c 0
 424 700 290 566 290 400 c 0
 290 234 424 100 540 100 c 1
 540 0 l 1
 190 0 l 1
EndSplineSet
Validated: 1
EndChar

StartChar: iotadieresistonos
Encoding: 303 912 303
Width: 200
Flags: HMW
LayerCount: 2
Fore
SplineSet
60 850 m 1
 110 1000 l 1
 210 1000 l 1
 140 850 l 1
 60 850 l 1
-50 700 m 1
 -50 800 l 1
 50 800 l 1
 50 700 l 1
 -50 700 l 1
150 700 m 1
 150 800 l 1
 250 800 l 1
 250 700 l 1
 150 700 l 1
50 0 m 1
 50 600 l 1
 150 600 l 1
 150 0 l 1
 50 0 l 1
EndSplineSet
Validated: 1
EndChar

StartChar: Alpha
Encoding: 304 913 304
Width: 700
Flags: HMW
LayerCount: 2
Fore
SplineSet
226 250 m 1
 474 250 l 1
 350 660 l 1
 226 250 l 1
50 0 m 1
 300 800 l 1
 400 800 l 1
 650 0 l 1
 550 0 l 1
 505 150 l 1
 195 150 l 1
 150 0 l 1
 50 0 l 1
EndSplineSet
Validated: 1
EndChar

StartChar: Beta
Encoding: 305 914 305
Width: 600
Flags: HMW
LayerCount: 2
Fore
SplineSet
150 100 m 1
 325 100 l 2
 394 100 450 156 450 225 c 0
 450 294 394 350 325 350 c 2
 150 350 l 1
 150 100 l 1
150 450 m 1
 325 450 l 2
 394 450 450 506 450 575 c 0
 450 644 394 700 325 700 c 2
 150 700 l 1
 150 450 l 1
50 0 m 1
 50 800 l 1
 325 800 l 2
 449 800 550 699 550 575 c 0
 550 504 518 441 455 400 c 1
 518 359 550 296 550 225 c 0
 550 101 449 0 325 0 c 2
 50 0 l 1
EndSplineSet
Validated: 1
EndChar

StartChar: Gamma
Encoding: 306 915 306
Width: 550
Flags: HMW
LayerCount: 2
Fore
SplineSet
50 0 m 1
 50 800 l 1
 500 800 l 1
 500 700 l 1
 150 700 l 1
 150 0 l 1
 50 0 l 1
EndSplineSet
Validated: 1
EndChar

StartChar: uni0394
Encoding: 307 916 307
Width: 700
Flags: HMW
LayerCount: 2
Fore
SplineSet
180 100 m 1
 520 100 l 1
 350 660 l 1
 180 100 l 1
50 0 m 1
 300 800 l 1
 400 800 l 1
 650 0 l 1
 50 0 l 1
EndSplineSet
Validated: 1
EndChar

StartChar: Epsilon
Encoding: 308 917 308
Width: 550
Flags: HMW
LayerCount: 2
Fore
SplineSet
50 0 m 1
 50 800 l 1
 500 800 l 1
 500 700 l 1
 150 700 l 1
 150 450 l 1
 400 450 l 1
 400 350 l 1
 150 350 l 1
 150 100 l 1
 500 100 l 1
 500 0 l 1
 50 0 l 1
EndSplineSet
Validated: 1
EndChar

StartChar: Zeta
Encoding: 309 918 309
Width: 700
Flags: HMW
LayerCount: 2
Fore
SplineSet
50 0 m 1
 50 100 l 1
 520 700 l 1
 50 700 l 1
 50 800 l 1
 650 800 l 1
 650 700 l 1
 180 100 l 1
 650 100 l 1
 650 0 l 1
 50 0 l 1
EndSplineSet
Validated: 1
EndChar

StartChar: Eta
Encoding: 310 919 310
Width: 650
Flags: HMW
LayerCount: 2
Fore
SplineSet
50 0 m 1
 50 800 l 1
 150 800 l 1
 150 450 l 1
 500 450 l 1
 500 800 l 1
 600 800 l 1
 600 0 l 1
 500 0 l 1
 500 350 l 1
 150 350 l 1
 150 0 l 1
 50 0 l 1
EndSplineSet
Validated: 1
EndChar

StartChar: Theta
Encoding: 311 920 311
Width: 900
Flags: HMW
LayerCount: 2
Fore
SplineSet
50 400 m 0
 50 621 229 800 450 800 c 0
 671 800 850 621 850 400 c 0
 850 179 671 0 450 0 c 0
 229 0 50 179 50 400 c 0
150 400 m 0
 150 234 284 100 450 100 c 0
 616 100 750 234 750 400 c 0
 750 566 616 700 450 700 c 0
 284 700 150 566 150 400 c 0
325 350 m 1
 325 450 l 1
 575 450 l 1
 575 350 l 1
 325 350 l 1
EndSplineSet
Validated: 1
EndChar

StartChar: Iota
Encoding: 312 921 312
Width: 400
Flags: HMW
LayerCount: 2
Fore
SplineSet
50 0 m 1
 50 100 l 1
 150 100 l 1
 150 700 l 1
 50 700 l 1
 50 800 l 1
 350 800 l 1
 350 700 l 1
 250 700 l 1
 250 100 l 1
 350 100 l 1
 350 0 l 1
 50 0 l 1
EndSplineSet
Validated: 1
EndChar

StartChar: Kappa
Encoding: 313 922 313
Width: 650
Flags: HMW
LayerCount: 2
Fore
SplineSet
50 0 m 1
 50 800 l 1
 150 800 l 1
 150 434 l 1
 470 800 l 1
 600 800 l 1
 250 400 l 1
 600 0 l 1
 470 0 l 1
 150 366 l 1
 150 0 l 1
 50 0 l 1
EndSplineSet
Validated: 1
EndChar

StartChar: Mu
Encoding: 314 924 314
Width: 900
Flags: HMW
LayerCount: 2
Fore
SplineSet
50 0 m 1
 50 800 l 1
 170 800 l 1
 450 220 l 1
 730 800 l 1
 850 800 l 1
 850 0 l 1
 750 0 l 1
 750 620 l 1
 500 100 l 1
 400 100 l 1
 150 620 l 1
 150 0 l 1
 50 0 l 1
EndSplineSet
Validated: 1
EndChar

StartChar: Nu
Encoding: 315 925 315
Width: 700
Flags: HMW
LayerCount: 2
Fore
SplineSet
50 0 m 1
 50 800 l 1
 150 800 l 1
 550 180 l 1
 550 800 l 1
 650 800 l 1
 650 0 l 1
 550 0 l 1
 150 620 l 1
 150 0 l 1
 50 0 l 1
EndSplineSet
Validated: 1
EndChar

StartChar: Xi
Encoding: 316 926 316
Width: 550
Flags: HMW
LayerCount: 2
Fore
SplineSet
50 0 m 1
 50 100 l 1
 500 100 l 1
 500 0 l 1
 50 0 l 1
130 350 m 1
 130 450 l 1
 420 450 l 1
 420 350 l 1
 130 350 l 1
50 700 m 1
 50 800 l 1
 500 800 l 1
 500 700 l 1
 50 700 l 1
EndSplineSet
Validated: 1
EndChar

StartChar: Omicron
Encoding: 317 927 317
Width: 900
Flags: HMW
LayerCount: 2
Fore
SplineSet
50 400 m 0
 50 621 229 800 450 800 c 0
 671 800 850 621 850 400 c 0
 850 179 671 0 450 0 c 0
 229 0 50 179 50 400 c 0
150 400 m 0
 150 234 284 100 450 100 c 0
 616 100 750 234 750 400 c 0
 750 566 616 700 450 700 c 0
 284 700 150 566 150 400 c 0
EndSplineSet
Validated: 1
EndChar

StartChar: Pi
Encoding: 318 928 318
Width: 750
Flags: HMW
LayerCount: 2
Fore
SplineSet
50 700 m 1
 50 800 l 1
 700 800 l 1
 700 700 l 1
 650 700 l 1
 650 0 l 1
 550 0 l 1
 550 700 l 1
 200 700 l 1
 200 0 l 1
 100 0 l 1
 100 700 l 1
 50 700 l 1
EndSplineSet
Validated: 1
EndChar

StartChar: Rho
Encoding: 319 929 319
Width: 600
Flags: HMW
LayerCount: 2
Fore
SplineSet
150 450 m 1
 325 450 l 2
 394 450 450 506 450 575 c 0
 450 644 394 700 325 700 c 2
 150 700 l 1
 150 450 l 1
50 0 m 1
 50 800 l 1
 325 800 l 2
 449 800 550 699 550 575 c 0
 550 451 449 350 325 350 c 2
 150 350 l 1
 150 0 l 1
 50 0 l 1
EndSplineSet
Validated: 1
EndChar

StartChar: uni03A2
Encoding: 320 930 320
Width: 600
Flags: HMW
LayerCount: 2
Fore
SplineSet
50 0 m 1
 50 100 l 1
 300 400 l 1
 50 700 l 1
 50 800 l 1
 550 800 l 1
 550 700 l 1
 180 700 l 1
 430 400 l 1
 180 100 l 1
 550 100 l 1
 520 -100 l 1
 420 -100 l 1
 435 -0 l 1
 50 0 l 1
EndSplineSet
Validated: 1
EndChar

StartChar: Sigma
Encoding: 321 931 321
Width: 600
Flags: HMW
LayerCount: 2
Fore
SplineSet
50 0 m 1
 50 100 l 1
 300 400 l 1
 50 700 l 1
 50 800 l 1
 550 800 l 1
 550 700 l 1
 180 700 l 1
 430 400 l 1
 180 100 l 1
 550 100 l 1
 550 0 l 1
 50 0 l 1
EndSplineSet
Validated: 1
EndChar

StartChar: Tau
Encoding: 322 932 322
Width: 700
Flags: HMW
LayerCount: 2
Fore
SplineSet
50 700 m 1
 50 800 l 1
 650 800 l 1
 650 700 l 1
 400 700 l 1
 400 0 l 1
 300 0 l 1
 300 700 l 1
 50 700 l 1
EndSplineSet
Validated: 1
EndChar

StartChar: Upsilon
Encoding: 323 933 323
Width: 650
Flags: HMW
LayerCount: 2
Fore
SplineSet
50 800 m 1
 150 800 l 1
 325 480 l 1
 500 800 l 1
 600 800 l 1
 375 400 l 1
 375 0 l 1
 275 0 l 1
 275 400 l 1
 50 800 l 1
EndSplineSet
Validated: 1
EndChar

StartChar: Phi
Encoding: 324 934 324
Width: 900
Flags: HMW
LayerCount: 2
Fore
SplineSet
500 203 m 1
 642 218 750 296 750 400 c 0
 750 504 642 582 500 597 c 1
 500 203 l 1
150 400 m 0
 150 296 258 218 400 203 c 1
 400 597 l 1
 258 582 150 504 150 400 c 0
50 400 m 0
 50 558 203 680 400 698 c 1
 400 800 l 1
 500 800 l 1
 500 698 l 1
 697 680 850 558 850 400 c 0
 850 242 697 120 500 102 c 1
 500 0 l 1
 400 0 l 1
 400 102 l 1
 203 120 50 242 50 400 c 0
EndSplineSet
Validated: 1
EndChar

StartChar: Chi
Encoding: 325 935 325
Width: 650
Flags: HMW
LayerCount: 2
Fore
SplineSet
50 0 m 1
 275 400 l 1
 50 800 l 1
 150 800 l 1
 325 480 l 1
 500 800 l 1
 600 800 l 1
 375 400 l 1
 600 0 l 1
 500 0 l 1
 325 320 l 1
 150 0 l 1
 50 0 l 1
EndSplineSet
Validated: 1
EndChar

StartChar: Psi
Encoding: 326 936 326
Width: 900
Flags: HMW
LayerCount: 2
Fore
SplineSet
50 700 m 2
 50 800 l 1
 150 800 l 1
 150 700 l 2
 150 551 258 428 400 404 c 1
 400 800 l 1
 500 800 l 1
 500 404 l 1
 642 428 750 551 750 700 c 2
 750 800 l 1
 850 800 l 1
 850 700 l 2
 850 496 697 328 500 303 c 1
 500 0 l 1
 400 0 l 1
 400 303 l 1
 203 328 50 496 50 700 c 2
EndSplineSet
Validated: 1
EndChar

StartChar: uni03A9
Encoding: 327 937 327
Width: 900
Flags: HMW
LayerCount: 2
Fore
SplineSet
50 0 m 1
 50 100 l 1
 190 100 l 1
 100 173 50 281 50 400 c 0
 50 621 229 800 450 800 c 0
 671 800 850 621 850 400 c 0
 850 281 800 173 710 100 c 1
 850 100 l 1
 850 0 l 1
 500 0 l 1
 500 100 l 1
 616 100 750 234 750 400 c 0
 750 566 616 700 450 700 c 0
 284 700 150 566 150 400 c 0
 150 234 284 100 400 100 c 1
 400 0 l 1
 50 0 l 1
EndSplineSet
Validated: 1
EndChar

StartChar: Iotadieresis
Encoding: 328 938 328
Width: 400
Flags: HMW
LayerCount: 2
Fore
SplineSet
50 900 m 1
 50 1000 l 1
 150 1000 l 1
 150 900 l 1
 50 900 l 1
250 900 m 1
 250 1000 l 1
 350 1000 l 1
 350 900 l 1
 250 900 l 1
50 0 m 1
 50 100 l 1
 150 100 l 1
 150 700 l 1
 50 700 l 1
 50 800 l 1
 350 800 l 1
 350 700 l 1
 250 700 l 1
 250 100 l 1
 350 100 l 1
 350 0 l 1
 50 0 l 1
EndSplineSet
Validated: 1
EndChar

StartChar: Upsilondieresis
Encoding: 329 939 329
Width: 650
Flags: HMW
LayerCount: 2
Fore
SplineSet
175 900 m 1
 175 1000 l 1
 275 1000 l 1
 275 900 l 1
 175 900 l 1
375 900 m 1
 375 1000 l 1
 475 1000 l 1
 475 900 l 1
 375 900 l 1
50 800 m 1
 150 800 l 1
 325 480 l 1
 500 800 l 1
 600 800 l 1
 375 400 l 1
 375 0 l 1
 275 0 l 1
 275 400 l 1
 50 800 l 1
EndSplineSet
Validated: 1
EndChar

StartChar: alphatonos
Encoding: 330 940 330
Width: 700
Flags: HMW
LayerCount: 2
Fore
SplineSet
310 650 m 1
 360 800 l 1
 460 800 l 1
 390 650 l 1
 310 650 l 1
50 300 m 0
 50 466 184 600 350 600 c 0
 426 600 497 571 550 519 c 1
 550 600 l 1
 650 600 l 1
 650 0 l 1
 550 0 l 1
 550 81 l 1
 497 29 426 0 350 0 c 0
 184 0 50 134 50 300 c 0
150 300 m 0
 150 190 240 100 350 100 c 0
 460 100 550 190 550 300 c 0
 550 410 460 500 350 500 c 0
 240 500 150 410 150 300 c 0
EndSplineSet
Validated: 1
EndChar

StartChar: epsilontonos
Encoding: 331 941 331
Width: 550
Flags: HMW
LayerCount: 2
Fore
SplineSet
235 650 m 1
 285 800 l 1
 385 800 l 1
 315 650 l 1
 235 650 l 1
50 175 m 0
 50 224 75 268 137 300 c 1
 75 332 50 376 50 425 c 0
 50 522 151 600 275 600 c 0
 399 600 500 522 500 425 c 1
 400 425 l 1
 400 466 344 500 275 500 c 0
 206 500 150 466 150 425 c 0
 150 384 206 350 275 350 c 2
 325 350 l 1
 325 250 l 1
 275 250 l 2
 206 250 150 216 150 175 c 0
 150 134 206 100 275 100 c 0
 344 100 400 134 400 175 c 1
 500 175 l 1
 500 78 399 0 275 0 c 0
 151 0 50 78 50 175 c 0
EndSplineSet
Validated: 1
EndChar

StartChar: etatonos
Encoding: 332 942 332
Width: 700
Flags: HMW
LayerCount: 2
Fore
SplineSet
310 650 m 1
 360 800 l 1
 460 800 l 1
 390 650 l 1
 310 650 l 1
50 0 m 1
 50 600 l 1
 150 600 l 1
 150 519 l 1
 203 571 274 600 350 600 c 0
 516 600 650 466 650 300 c 2
 650 -200 l 1
 550 -200 l 1
 550 300 l 2
 550 410 460 500 350 500 c 0
 240 500 150 410 150 300 c 2
 150 0 l 1
 50 0 l 1
EndSplineSet
Validated: 1
EndChar

StartChar: iotatonos
Encoding: 333 943 333
Width: 200
Flags: HMW
LayerCount: 2
Fore
SplineSet
60 650 m 1
 110 800 l 1
 210 800 l 1
 140 650 l 1
 60 650 l 1
50 0 m 1
 50 600 l 1
 150 600 l 1
 150 0 l 1
 50 0 l 1
EndSplineSet
Validated: 1
EndChar

StartChar: upsilondieresistonos
Encoding: 334 944 334
Width: 700
Flags: HMW
LayerCount: 2
Fore
SplineSet
310 850 m 1
 360 1000 l 1
 460 1000 l 1
 390 850 l 1
 310 850 l 1
200 700 m 1
 200 800 l 1
 300 800 l 1
 300 700 l 1
 200 700 l 1
400 700 m 1
 400 800 l 1
 500 800 l 1
 500 700 l 1
 400 700 l 1
50 300 m 2
 50 600 l 1
 150 600 l 1
 150 300 l 2
 150 190 240 100 350 100 c 0
 460 100 550 190 550 300 c 2
 550 600 l 1
 650 600 l 1
 650 300 l 2
 650 134 516 0 350 0 c 0
 184 0 50 134 50 300 c 2
EndSplineSet
Validated: 1
EndChar

StartChar: alpha
Encoding: 335 945 335
Width: 700
Flags: HMW
LayerCount: 2
Fore
SplineSet
50 300 m 0
 50 466 184 600 350 600 c 0
 426 600 497 571 550 519 c 1
 550 600 l 1
 650 600 l 1
 650 0 l 1
 550 0 l 1
 550 81 l 1
 497 29 426 0 350 0 c 0
 184 0 50 134 50 300 c 0
150 300 m 0
 150 190 240 100 350 100 c 0
 460 100 550 190 550 300 c 0
 550 410 460 500 350 500 c 0
 240 500 150 410 150 300 c 0
EndSplineSet
Validated: 1
EndChar

StartChar: beta
Encoding: 336 946 336
Width: 650
Flags: HMW
LayerCount: 2
Fore
SplineSet
150 225 m 2
 150 156 206 100 325 100 c 0
 444 100 500 156 500 225 c 0
 500 294 444 350 325 350 c 2
 250 350 l 1
 250 450 l 1
 325 450 l 2
 444 450 500 506 500 575 c 0
 500 644 444 700 325 700 c 0
 206 700 150 644 150 575 c 2
 150 225 l 2
50 -200 m 1
 50 575 l 2
 50 699 151 800 325 800 c 0
 499 800 600 699 600 575 c 0
 600 504 568 441 505 400 c 1
 568 359 600 296 600 225 c 0
 600 101 499 0 325 0 c 0
 254 0 195 17 150 55 c 1
 150 -200 l 1
 50 -200 l 1
EndSplineSet
Validated: 1
EndChar

StartChar: gamma
Encoding: 337 947 337
Width: 700
Flags: HMW
LayerCount: 2
Fore
SplineSet
50 600 m 1
 150 600 l 1
 350 110 l 1
 550 600 l 1
 650 600 l 1
 400 0 l 1
 400 -198 l 1
 300 -198 l 1
 300 0 l 1
 50 600 l 1
EndSplineSet
Validated: 1
EndChar

StartChar: delta
Encoding: 338 948 338
Width: 700
Flags: HMW
LayerCount: 2
Fore
SplineSet
50 300 m 0
 50 466 184 600 350 600 c 0
 396 600 449 589 488 561 c 1
 426 640 349 700 250 700 c 1
 250 800 l 1
 650 800 l 1
 650 700 l 1
 489 700 l 1
 594 609 650 464 650 300 c 0
 650 134 516 0 350 0 c 0
 184 0 50 134 50 300 c 0
150 300 m 0
 150 190 240 100 350 100 c 0
 460 100 550 190 550 300 c 0
 550 410 460 500 350 500 c 0
 240 500 150 410 150 300 c 0
EndSplineSet
Validated: 1
EndChar

StartChar: epsilon
Encoding: 339 949 339
Width: 550
Flags: HMW
LayerCount: 2
Fore
SplineSet
50 175 m 0
 50 224 75 268 137 300 c 1
 75 332 50 376 50 425 c 0
 50 522 151 600 275 600 c 0
 399 600 500 522 500 425 c 1
 400 425 l 1
 400 466 344 500 275 500 c 0
 206 500 150 466 150 425 c 0
 150 384 206 350 275 350 c 2
 325 350 l 1
 325 250 l 1
 275 250 l 2
 206 250 150 216 150 175 c 0
 150 134 206 100 275 100 c 0
 344 100 400 134 400 175 c 1
 500 175 l 1
 500 78 399 0 275 0 c 0
 151 0 50 78 50 175 c 0
EndSplineSet
Validated: 1
EndChar

StartChar: zeta
Encoding: 340 950 340
Width: 600
Flags: HMW
LayerCount: 2
Fore
SplineSet
50 225 m 0
 50 450 360 650 410 700 c 1
 50 700 l 1
 50 800 l 1
 550 800 l 1
 550 700 l 1
 500 650 150 395 150 225 c 0
 150 156 206 100 275 100 c 2
 400 100 l 2
 483 100 550 33 550 -50 c 0
 550 -133 483 -200 400 -200 c 2
 350 -200 l 1
 350 -100 l 1
 400 -100 l 2
 428 -100 450 -78 450 -50 c 0
 450 -22 428 0 400 0 c 2
 275 0 l 2
 151 0 50 101 50 225 c 0
EndSplineSet
Validated: 1
EndChar

StartChar: eta
Encoding: 341 951 341
Width: 700
Flags: HMW
LayerCount: 2
Fore
SplineSet
50 0 m 1
 50 600 l 1
 150 600 l 1
 150 519 l 1
 203 571 274 600 350 600 c 0
 516 600 650 466 650 300 c 2
 650 -200 l 1
 550 -200 l 1
 550 300 l 2
 550 410 460 500 350 500 c 0
 240 500 150 410 150 300 c 2
 150 0 l 1
 50 0 l 1
EndSplineSet
Validated: 1
EndChar

StartChar: theta
Encoding: 342 952 342
Width: 650
Flags: HMW
LayerCount: 2
Fore
SplineSet
152 450 m 1
 498 450 l 1
 484 592 412 700 325 700 c 0
 238 700 166 592 152 450 c 1
152 350 m 1
 166 208 238 100 325 100 c 0
 412 100 484 208 498 350 c 1
 152 350 l 1
50 400 m 0
 50 621 173 800 325 800 c 0
 477 800 600 621 600 400 c 0
 600 179 477 0 325 0 c 0
 173 0 50 179 50 400 c 0
EndSplineSet
Validated: 1
EndChar

StartChar: iota
Encoding: 343 953 343
Width: 200
Flags: HMW
LayerCount: 2
Fore
SplineSet
50 0 m 1
 50 600 l 1
 150 600 l 1
 150 0 l 1
 50 0 l 1
EndSplineSet
Validated: 1
EndChar

StartChar: kappa
Encoding: 344 954 344
Width: 550
Flags: HMW
LayerCount: 2
Fore
SplineSet
50 0 m 1
 50 600 l 1
 150 600 l 1
 150 336 l 1
 370 600 l 1
 500 600 l 1
 250 300 l 1
 500 0 l 1
 370 0 l 1
 185 222 l 1
 150 180 l 1
 150 0 l 1
 50 0 l 1
EndSplineSet
Validated: 1
EndChar

StartChar: lambda
Encoding: 345 955 345
Width: 700
Flags: HMW
LayerCount: 2
Fore
SplineSet
50 0 m 1
 300 600 l 1
 218 800 l 1
 318 800 l 1
 650 0 l 1
 550 0 l 1
 350 490 l 1
 150 0 l 1
 50 0 l 1
EndSplineSet
Validated: 1
EndChar

StartChar: uni03BC
Encoding: 346 956 346
Width: 700
Flags: HMW
LayerCount: 2
Fore
SplineSet
50 -200 m 1
 50 600 l 1
 150 600 l 1
 150 300 l 2
 150 190 240 100 350 100 c 0
 460 100 550 190 550 300 c 2
 550 600 l 1
 650 600 l 1
 650 300 l 2
 650 134 516 0 350 0 c 0
 274 0 203 29 150 81 c 1
 150 -200 l 1
 50 -200 l 1
EndSplineSet
Validated: 1
EndChar

StartChar: nu
Encoding: 347 957 347
Width: 700
Flags: HMW
LayerCount: 2
Fore
SplineSet
50 600 m 1
 150 600 l 1
 350 110 l 1
 550 600 l 1
 650 600 l 1
 400 0 l 1
 300 0 l 1
 50 600 l 1
EndSplineSet
Validated: 1
EndChar

StartChar: xi
Encoding: 348 958 348
Width: 600
Flags: HMW
LayerCount: 2
Fore
SplineSet
50 225 m 0
 50 296 83 359 144 400 c 1
 83 441 50 504 50 575 c 0
 50 621 64 664 98 700 c 1
 50 700 l 1
 50 800 l 1
 550 800 l 1
 550 700 l 1
 275 700 l 2
 206 700 150 644 150 575 c 0
 150 506 206 450 275 450 c 2
 450 450 l 1
 450 350 l 1
 275 350 l 2
 206 350 150 294 150 225 c 0
 150 156 206 100 275 100 c 2
 400 100 l 2
 483 100 550 33 550 -50 c 0
 550 -133 483 -200 400 -200 c 2
 350 -200 l 1
 350 -100 l 1
 400 -100 l 2
 428 -100 450 -78 450 -50 c 0
 450 -22 428 0 400 0 c 2
 275 0 l 2
 151 0 50 101 50 225 c 0
EndSplineSet
Validated: 1
EndChar

StartChar: omicron
Encoding: 349 959 349
Width: 700
Flags: HMW
LayerCount: 2
Fore
SplineSet
50 300 m 0
 50 466 184 600 350 600 c 0
 516 600 650 466 650 300 c 0
 650 134 516 0 350 0 c 0
 184 0 50 134 50 300 c 0
150 300 m 0
 150 190 240 100 350 100 c 0
 460 100 550 190 550 300 c 0
 550 410 460 500 350 500 c 0
 240 500 150 410 150 300 c 0
EndSplineSet
Validated: 1
EndChar

StartChar: rho
Encoding: 350 961 350
Width: 700
Flags: HMW
LayerCount: 2
Fore
SplineSet
50 -200 m 1
 50 300 l 2
 50 466 184 600 350 600 c 0
 516 600 650 466 650 300 c 0
 650 134 516 0 350 0 c 0
 273 0 203 29 150 81 c 1
 150 -200 l 1
 50 -200 l 1
150 300 m 0
 150 190 240 100 350 100 c 0
 460 100 550 190 550 300 c 0
 550 410 460 500 350 500 c 0
 240 500 150 410 150 300 c 0
EndSplineSet
Validated: 1
EndChar

StartChar: sigma1
Encoding: 351 962 351
Width: 600
Flags: HMW
LayerCount: 2
Fore
SplineSet
50 300 m 0
 50 466 184 600 350 600 c 2
 550 600 l 1
 550 500 l 1
 350 500 l 2
 240 500 150 410 150 300 c 0
 150 190 240 100 350 100 c 2
 400 100 l 2
 483 100 550 33 550 -50 c 0
 550 -133 483 -200 400 -200 c 2
 350 -200 l 1
 350 -100 l 1
 400 -100 l 2
 428 -100 450 -78 450 -50 c 0
 450 -22 428 0 400 0 c 2
 350 0 l 2
 184 0 50 134 50 300 c 0
EndSplineSet
Validated: 1
EndChar

StartChar: sigma
Encoding: 352 963 352
Width: 850
Flags: HMW
LayerCount: 2
Fore
SplineSet
150 300 m 0
 150 190 240 100 350 100 c 0
 460 100 550 190 550 300 c 2
 550 500 l 1
 350 500 l 2
 240 500 150 410 150 300 c 0
50 300 m 0
 50 466 184 600 350 600 c 2
 800 600 l 1
 800 500 l 1
 650 500 l 1
 650 300 l 2
 650 134 516 0 350 0 c 0
 184 0 50 134 50 300 c 0
EndSplineSet
Validated: 1
EndChar

StartChar: tau
Encoding: 353 964 353
Width: 700
Flags: HMW
LayerCount: 2
Fore
SplineSet
50 500 m 1
 50 600 l 1
 650 600 l 1
 650 500 l 1
 400 500 l 1
 400 0 l 1
 300 0 l 1
 300 500 l 1
 50 500 l 1
EndSplineSet
Validated: 1
EndChar

StartChar: upsilon
Encoding: 354 965 354
Width: 700
Flags: HMW
LayerCount: 2
Fore
SplineSet
50 300 m 2
 50 600 l 1
 150 600 l 1
 150 300 l 2
 150 190 240 100 350 100 c 0
 460 100 550 190 550 300 c 2
 550 600 l 1
 650 600 l 1
 650 300 l 2
 650 134 516 0 350 0 c 0
 184 0 50 134 50 300 c 2
EndSplineSet
Validated: 1
EndChar

StartChar: phi
Encoding: 355 966 355
Width: 900
Flags: HMW
LayerCount: 2
Fore
SplineSet
500 103 m 1
 614 117 700 179 700 300 c 2
 700 400 l 2
 700 455 655 500 600 500 c 0
 545 500 500 455 500 400 c 2
 500 103 l 1
100 300 m 2
 100 500 l 1
 200 500 l 1
 200 300 l 2
 200 179 286 117 400 103 c 1
 400 400 l 2
 400 510 490 600 600 600 c 0
 710 600 800 510 800 400 c 2
 800 300 l 2
 800 124 669 19 500 2 c 1
 500 -200 l 1
 400 -200 l 1
 400 2 l 1
 231 19 100 124 100 300 c 2
EndSplineSet
Validated: 1
EndChar

StartChar: chi
Encoding: 356 967 356
Width: 650
Flags: HMW
LayerCount: 2
Fore
SplineSet
50 -200 m 1
 275 200 l 1
 50 600 l 1
 150 600 l 1
 325 280 l 1
 500 600 l 1
 600 600 l 1
 375 200 l 1
 600 -200 l 1
 500 -200 l 1
 325 120 l 1
 150 -200 l 1
 50 -200 l 1
EndSplineSet
Validated: 1
EndChar

StartChar: psi
Encoding: 357 968 357
Width: 900
Flags: HMW
LayerCount: 2
Fore
SplineSet
100 300 m 2
 100 500 l 1
 200 500 l 1
 200 300 l 2
 200 179 286 117 400 103 c 1
 400 600 l 1
 500 600 l 1
 500 103 l 1
 614 117 700 179 700 300 c 2
 700 500 l 1
 800 500 l 1
 800 300 l 2
 800 124 669 19 500 2 c 1
 500 -200 l 1
 400 -200 l 1
 400 2 l 1
 231 19 100 124 100 300 c 2
EndSplineSet
Validated: 1
EndChar

StartChar: omega
Encoding: 358 969 358
Width: 900
Flags: HMW
LayerCount: 2
Fore
SplineSet
100 300 m 2
 100 600 l 1
 200 600 l 1
 200 300 l 2
 200 179 286 117 400 103 c 1
 400 500 l 1
 500 500 l 1
 500 103 l 1
 614 117 700 179 700 300 c 2
 700 600 l 1
 800 600 l 1
 800 300 l 2
 800 134 643 0 450 0 c 0
 257 0 100 134 100 300 c 2
EndSplineSet
Validated: 1
EndChar

StartChar: iotadieresis
Encoding: 359 970 359
Width: 200
Flags: HMW
LayerCount: 2
Fore
SplineSet
-50 700 m 1
 -50 800 l 1
 50 800 l 1
 50 700 l 1
 -50 700 l 1
150 700 m 1
 150 800 l 1
 250 800 l 1
 250 700 l 1
 150 700 l 1
50 0 m 1
 50 600 l 1
 150 600 l 1
 150 0 l 1
 50 0 l 1
EndSplineSet
Validated: 1
EndChar

StartChar: upsilondieresis
Encoding: 360 971 360
Width: 700
Flags: HMW
LayerCount: 2
Fore
SplineSet
200 700 m 1
 200 800 l 1
 300 800 l 1
 300 700 l 1
 200 700 l 1
400 700 m 1
 400 800 l 1
 500 800 l 1
 500 700 l 1
 400 700 l 1
50 300 m 2
 50 600 l 1
 150 600 l 1
 150 300 l 2
 150 190 240 100 350 100 c 0
 460 100 550 190 550 300 c 2
 550 600 l 1
 650 600 l 1
 650 300 l 2
 650 134 516 0 350 0 c 0
 184 0 50 134 50 300 c 2
EndSplineSet
Validated: 1
EndChar

StartChar: omicrontonos
Encoding: 361 972 361
Width: 700
Flags: HMW
LayerCount: 2
Fore
SplineSet
310 650 m 1
 360 800 l 1
 460 800 l 1
 390 650 l 1
 310 650 l 1
50 300 m 0
 50 466 184 600 350 600 c 0
 516 600 650 466 650 300 c 0
 650 134 516 0 350 0 c 0
 184 0 50 134 50 300 c 0
150 300 m 0
 150 190 240 100 350 100 c 0
 460 100 550 190 550 300 c 0
 550 410 460 500 350 500 c 0
 240 500 150 410 150 300 c 0
EndSplineSet
Validated: 1
EndChar

StartChar: upsilontonos
Encoding: 362 973 362
Width: 700
Flags: HMW
LayerCount: 2
Fore
SplineSet
310 650 m 1
 360 800 l 1
 460 800 l 1
 390 650 l 1
 310 650 l 1
50 300 m 2
 50 600 l 1
 150 600 l 1
 150 300 l 2
 150 190 240 100 350 100 c 0
 460 100 550 190 550 300 c 2
 550 600 l 1
 650 600 l 1
 650 300 l 2
 650 134 516 0 350 0 c 0
 184 0 50 134 50 300 c 2
EndSplineSet
Validated: 1
EndChar

StartChar: omegatonos
Encoding: 363 974 363
Width: 900
Flags: HMW
LayerCount: 2
Fore
SplineSet
410 650 m 1
 460 800 l 1
 560 800 l 1
 490 650 l 1
 410 650 l 1
100 300 m 2
 100 600 l 1
 200 600 l 1
 200 300 l 2
 200 179 286 117 400 103 c 1
 400 500 l 1
 500 500 l 1
 500 103 l 1
 614 117 700 179 700 300 c 2
 700 600 l 1
 800 600 l 1
 800 300 l 2
 800 134 643 0 450 0 c 0
 257 0 100 134 100 300 c 2
EndSplineSet
Validated: 1
EndChar

StartChar: zero.zero
Encoding: 364 -1 364
Width: 650
Flags: HMW
LayerCount: 2
Fore
SplineSet
325 700 m 1
 417 145 l 1
 467 198 500 292 500 400 c 0
 500 566 422 700 325 700 c 1
150 400 m 0
 150 234 228 100 325 100 c 1
 233 655 l 1
 183 602 150 508 150 400 c 0
50 400 m 0
 50 621 173 800 325 800 c 0
 477 800 600 621 600 400 c 0
 600 179 477 0 325 0 c 0
 173 0 50 179 50 400 c 0
EndSplineSet
Validated: 1
EndChar

StartChar: zero.onum
Encoding: 365 -1 365
Width: 650
Flags: HMW
LayerCount: 2
Fore
SplineSet
50 300 m 0
 50 466 173 600 325 600 c 0
 477 600 600 466 600 300 c 0
 600 134 477 0 325 0 c 0
 173 0 50 134 50 300 c 0
150 300 m 0
 150 190 228 100 325 100 c 0
 422 100 500 190 500 300 c 0
 500 410 422 500 325 500 c 0
 228 500 150 410 150 300 c 0
EndSplineSet
Validated: 1
Substitution2: "'zero' Slashed Zero lookup 2-1" zero.onum.zero
EndChar

StartChar: one.onum
Encoding: 366 -1 366
Width: 650
Flags: HMW
LayerCount: 2
Fore
SplineSet
100 0 m 1
 100 100 l 1
 275 100 l 1
 275 460 l 1
 100 400 l 1
 100 500 l 1
 375 600 l 1
 375 100 l 1
 550 100 l 1
 550 0 l 1
 100 0 l 1
EndSplineSet
Validated: 1
EndChar

StartChar: two.onum
Encoding: 367 -1 367
Width: 650
Flags: HMW
LayerCount: 2
Fore
SplineSet
50 0 m 1
 50 100 l 2
 50 320 500 286 500 395 c 0
 500 484 444 500 325 500 c 0
 206 500 150 444 150 375 c 1
 50 375 l 1
 50 499 151 600 325 600 c 0
 499 600 600 539 600 395 c 0
 600 191 150 230 150 100 c 1
 600 100 l 1
 600 0 l 1
 50 0 l 1
EndSplineSet
Validated: 1
EndChar

StartChar: three.onum
Encoding: 368 -1 368
Width: 650
Flags: HMW
LayerCount: 2
Fore
SplineSet
50 25 m 1
 150 25 l 1
 150 -44 206 -100 325 -100 c 0
 444 -100 500 -44 500 25 c 0
 500 94 444 150 325 150 c 2
 250 150 l 1
 250 250 l 1
 325 250 l 2
 444 250 500 306 500 375 c 0
 500 444 444 500 325 500 c 0
 206 500 150 444 150 375 c 1
 50 375 l 1
 50 499 151 600 325 600 c 0
 499 600 600 499 600 375 c 0
 600 304 568 241 505 200 c 1
 568 159 600 96 600 25 c 0
 600 -99 499 -200 325 -200 c 0
 151 -200 50 -99 50 25 c 1
EndSplineSet
Validated: 1
EndChar

StartChar: four.onum
Encoding: 369 -1 369
Width: 650
Flags: HMW
LayerCount: 2
Fore
SplineSet
50 0 m 1
 50 100 l 1
 400 600 l 1
 500 600 l 1
 500 100 l 1
 600 100 l 1
 600 0 l 1
 500 0 l 1
 500 -200 l 1
 400 -200 l 1
 400 0 l 1
 50 0 l 1
170 100 m 1
 400 100 l 1
 400 430 l 1
 170 100 l 1
EndSplineSet
Validated: 1
EndChar

StartChar: five.onum
Encoding: 370 -1 370
Width: 650
Flags: HMW
LayerCount: 2
Fore
SplineSet
50 25 m 1
 150 25 l 1
 150 -44 206 -100 325 -100 c 0
 422 -100 500 -25 500 75 c 0
 500 175 422 250 325 250 c 0
 248 250 180 216 170 175 c 1
 70 195 l 1
 140 600 l 1
 600 600 l 1
 600 500 l 1
 226 500 l 1
 196 323 l 1
 234 340 277 350 325 350 c 0
 477 350 600 231 600 75 c 0
 600 -81 477 -200 325 -200 c 0
 151 -200 50 -99 50 25 c 1
EndSplineSet
Validated: 1
EndChar

StartChar: six.onum
Encoding: 371 -1 371
Width: 650
Flags: HMW
LayerCount: 2
Fore
SplineSet
150 275 m 0
 150 156 206 100 325 100 c 0
 444 100 500 156 500 225 c 0
 500 294 444 350 325 350 c 0
 226 350 150 344 150 275 c 0
50 275 m 0
 50 542 252 800 500 800 c 1
 500 700 l 1
 355 700 230 580 177 430 c 1
 219 444 270 450 325 450 c 0
 499 450 600 349 600 225 c 0
 600 101 499 0 325 0 c 0
 151 0 50 101 50 275 c 0
EndSplineSet
Validated: 1
EndChar

StartChar: seven.onum
Encoding: 372 -1 372
Width: 650
Flags: HMW
LayerCount: 2
Fore
SplineSet
50 500 m 1
 50 600 l 1
 600 600 l 1
 600 500 l 1
 450 350 350 50 350 -200 c 1
 250 -200 l 1
 250 90 350 370 480 500 c 1
 50 500 l 1
EndSplineSet
Validated: 1
EndChar

StartChar: eight.onum
Encoding: 373 -1 373
Width: 650
Flags: HMW
LayerCount: 2
Fore
SplineSet
150 575 m 0
 150 506 206 450 325 450 c 0
 444 450 500 506 500 575 c 0
 500 644 444 700 325 700 c 0
 206 700 150 644 150 575 c 0
150 225 m 0
 150 156 206 100 325 100 c 0
 444 100 500 156 500 225 c 0
 500 294 444 350 325 350 c 0
 206 350 150 294 150 225 c 0
50 225 m 0
 50 296 82 359 145 400 c 1
 82 441 50 504 50 575 c 0
 50 699 151 800 325 800 c 0
 499 800 600 699 600 575 c 0
 600 504 568 441 505 400 c 1
 568 359 600 296 600 225 c 0
 600 101 499 0 325 0 c 0
 151 0 50 101 50 225 c 0
EndSplineSet
Validated: 1
EndChar

StartChar: nine.onum
Encoding: 374 -1 374
Width: 650
Flags: HMW
LayerCount: 2
Fore
SplineSet
150 375 m 0
 150 306 206 250 325 250 c 0
 424 250 500 256 500 325 c 0
 500 444 444 500 325 500 c 0
 206 500 150 444 150 375 c 0
50 375 m 0
 50 499 151 600 325 600 c 0
 499 600 600 499 600 325 c 0
 600 58 398 -200 150 -200 c 1
 150 -100 l 1
 295 -100 420 20 473 170 c 1
 431 156 380 150 325 150 c 0
 151 150 50 251 50 375 c 0
EndSplineSet
Validated: 1
EndChar

StartChar: zero.onum.zero
Encoding: 375 -1 375
Width: 650
Flags: HMW
LayerCount: 2
Fore
SplineSet
325 500 m 1
 417 130 l 1
 467 165 500 229 500 300 c 0
 500 410 422 500 325 500 c 1
150 300 m 0
 150 190 228 100 325 100 c 1
 233 470 l 1
 183 435 150 371 150 300 c 0
50 300 m 0
 50 466 173 600 325 600 c 0
 477 600 600 466 600 300 c 0
 600 134 477 0 325 0 c 0
 173 0 50 134 50 300 c 0
EndSplineSet
Validated: 1
EndChar

StartChar: zero.pnum
Encoding: 376 -1 376
Width: 650
Flags: HMW
LayerCount: 2
Fore
SplineSet
50 400 m 0
 50 621 173 800 325 800 c 0
 477 800 600 621 600 400 c 0
 600 179 477 0 325 0 c 0
 173 0 50 179 50 400 c 0
150 400 m 0
 150 234 228 100 325 100 c 0
 422 100 500 234 500 400 c 0
 500 566 422 700 325 700 c 0
 228 700 150 566 150 400 c 0
EndSplineSet
Validated: 1
Substitution2: "'zero' Slashed Zero lookup 2-1" zero.pnum.zero
Substitution2: "'onum' Oldstyle Figures lookup 1-1" zero.pnum.onum
EndChar

StartChar: one.pnum
Encoding: 377 -1 377
Width: 410
Flags: HMW
LayerCount: 2
Fore
SplineSet
50 600 m 1
 50 700 l 1
 360 800 l 1
 360 0 l 1
 260 0 l 1
 260 665 l 1
 50 600 l 1
EndSplineSet
Validated: 1
Substitution2: "'onum' Oldstyle Figures lookup 1-1" one.pnum.onum
EndChar

StartChar: two.pnum
Encoding: 378 -1 378
Width: 650
Flags: HMW
LayerCount: 2
Fore
SplineSet
50 0 m 1
 50 100 l 2
 50 320 500 406 500 545 c 0
 500 644 444 700 325 700 c 0
 206 700 150 644 150 575 c 1
 50 575 l 1
 50 699 151 800 325 800 c 0
 499 800 600 699 600 545 c 0
 600 331 150 250 150 100 c 1
 600 100 l 1
 600 0 l 1
 50 0 l 1
EndSplineSet
Validated: 1
Substitution2: "'onum' Oldstyle Figures lookup 1-1" two.pnum.onum
EndChar

StartChar: three.pnum
Encoding: 379 -1 379
Width: 650
Flags: HMW
LayerCount: 2
Fore
SplineSet
50 225 m 1
 150 225 l 1
 150 156 206 100 325 100 c 0
 444 100 500 156 500 225 c 0
 500 294 444 350 325 350 c 2
 250 350 l 1
 250 450 l 1
 325 450 l 2
 444 450 500 506 500 575 c 0
 500 644 444 700 325 700 c 0
 206 700 150 644 150 575 c 1
 50 575 l 1
 50 699 151 800 325 800 c 0
 499 800 600 699 600 575 c 0
 600 504 568 441 505 400 c 1
 568 359 600 296 600 225 c 0
 600 101 499 0 325 0 c 0
 151 0 50 101 50 225 c 1
EndSplineSet
Validated: 1
Substitution2: "'onum' Oldstyle Figures lookup 1-1" three.pnum.onum
EndChar

StartChar: four.pnum
Encoding: 380 -1 380
Width: 700
Flags: HMW
LayerCount: 2
Fore
SplineSet
50 200 m 1
 50 300 l 1
 450 800 l 1
 550 800 l 1
 550 300 l 1
 650 300 l 1
 650 200 l 1
 550 200 l 1
 550 0 l 1
 450 0 l 1
 450 200 l 1
 50 200 l 1
170 300 m 1
 450 300 l 1
 450 650 l 1
 170 300 l 1
EndSplineSet
Validated: 1
Substitution2: "'onum' Oldstyle Figures lookup 1-1" four.pnum.onum
EndChar

StartChar: five.pnum
Encoding: 381 -1 381
Width: 650
Flags: HMW
LayerCount: 2
Fore
SplineSet
50 225 m 1
 150 225 l 1
 150 156 206 100 325 100 c 0
 422 100 500 175 500 275 c 0
 500 375 422 450 325 450 c 0
 248 450 180 416 170 375 c 1
 70 395 l 1
 140 800 l 1
 600 800 l 1
 600 700 l 1
 226 700 l 1
 196 523 l 1
 234 540 277 550 325 550 c 0
 477 550 600 431 600 275 c 0
 600 119 477 0 325 0 c 0
 151 0 50 101 50 225 c 1
EndSplineSet
Validated: 1
Substitution2: "'onum' Oldstyle Figures lookup 1-1" five.pnum.onum
EndChar

StartChar: six.pnum
Encoding: 382 -1 382
Width: 650
Flags: HMW
LayerCount: 2
Fore
SplineSet
150 275 m 0
 150 156 206 100 325 100 c 0
 444 100 500 156 500 225 c 0
 500 294 444 350 325 350 c 0
 226 350 150 344 150 275 c 0
50 275 m 0
 50 542 252 800 500 800 c 1
 500 700 l 1
 355 700 230 580 177 430 c 1
 219 444 270 450 325 450 c 0
 499 450 600 349 600 225 c 0
 600 101 499 0 325 0 c 0
 151 0 50 101 50 275 c 0
EndSplineSet
Validated: 1
Substitution2: "'onum' Oldstyle Figures lookup 1-1" six.pnum.onum
EndChar

StartChar: seven.pnum
Encoding: 383 -1 383
Width: 650
Flags: HMW
LayerCount: 2
Fore
SplineSet
50 700 m 1
 50 800 l 1
 600 800 l 1
 600 700 l 1
 450 550 350 250 350 0 c 1
 250 0 l 1
 250 290 350 570 480 700 c 1
 50 700 l 1
EndSplineSet
Validated: 1
Substitution2: "'onum' Oldstyle Figures lookup 1-1" seven.pnum.onum
EndChar

StartChar: eight.pnum
Encoding: 384 -1 384
Width: 650
Flags: HMW
LayerCount: 2
Fore
SplineSet
150 575 m 0
 150 506 206 450 325 450 c 0
 444 450 500 506 500 575 c 0
 500 644 444 700 325 700 c 0
 206 700 150 644 150 575 c 0
150 225 m 0
 150 156 206 100 325 100 c 0
 444 100 500 156 500 225 c 0
 500 294 444 350 325 350 c 0
 206 350 150 294 150 225 c 0
50 225 m 0
 50 296 82 359 145 400 c 1
 82 441 50 504 50 575 c 0
 50 699 151 800 325 800 c 0
 499 800 600 699 600 575 c 0
 600 504 568 441 505 400 c 1
 568 359 600 296 600 225 c 0
 600 101 499 0 325 0 c 0
 151 0 50 101 50 225 c 0
EndSplineSet
Validated: 1
Substitution2: "'onum' Oldstyle Figures lookup 1-1" eight.pnum.onum
EndChar

StartChar: nine.pnum
Encoding: 385 -1 385
Width: 650
Flags: HMW
LayerCount: 2
Fore
SplineSet
150 575 m 0
 150 506 206 450 325 450 c 0
 424 450 500 456 500 525 c 0
 500 644 444 700 325 700 c 0
 206 700 150 644 150 575 c 0
50 575 m 0
 50 699 151 800 325 800 c 0
 499 800 600 699 600 525 c 0
 600 258 398 0 150 0 c 1
 150 100 l 1
 295 100 420 220 473 370 c 1
 431 356 380 350 325 350 c 0
 151 350 50 451 50 575 c 0
EndSplineSet
Validated: 1
Substitution2: "'onum' Oldstyle Figures lookup 1-1" nine.pnum.onum
EndChar

StartChar: zero.pnum.zero
Encoding: 386 -1 386
Width: 650
Flags: HMW
LayerCount: 2
Fore
SplineSet
325 700 m 1
 417 145 l 1
 467 198 500 292 500 400 c 0
 500 566 422 700 325 700 c 1
150 400 m 0
 150 234 228 100 325 100 c 1
 233 655 l 1
 183 602 150 508 150 400 c 0
50 400 m 0
 50 621 173 800 325 800 c 0
 477 800 600 621 600 400 c 0
 600 179 477 0 325 0 c 0
 173 0 50 179 50 400 c 0
EndSplineSet
Validated: 1
EndChar

StartChar: zero.pnum.onum
Encoding: 387 -1 387
Width: 650
Flags: HMW
LayerCount: 2
Fore
SplineSet
50 300 m 0
 50 466 173 600 325 600 c 0
 477 600 600 466 600 300 c 0
 600 134 477 0 325 0 c 0
 173 0 50 134 50 300 c 0
150 300 m 0
 150 190 228 100 325 100 c 0
 422 100 500 190 500 300 c 0
 500 410 422 500 325 500 c 0
 228 500 150 410 150 300 c 0
EndSplineSet
Validated: 1
Substitution2: "'zero' Slashed Zero lookup 2-1" zero.pnum.onum.zero
EndChar

StartChar: one.pnum.onum
Encoding: 388 -1 388
Width: 410
Flags: HMW
LayerCount: 2
Fore
SplineSet
50 400 m 1
 50 500 l 1
 360 600 l 1
 360 0 l 1
 260 0 l 1
 260 465 l 1
 50 400 l 1
EndSplineSet
Validated: 1
EndChar

StartChar: two.pnum.onum
Encoding: 389 -1 389
Width: 650
Flags: HMW
LayerCount: 2
Fore
SplineSet
50 0 m 1
 50 100 l 2
 50 320 500 286 500 395 c 0
 500 484 444 500 325 500 c 0
 206 500 150 444 150 375 c 1
 50 375 l 1
 50 499 151 600 325 600 c 0
 499 600 600 539 600 395 c 0
 600 191 150 230 150 100 c 1
 600 100 l 1
 600 0 l 1
 50 0 l 1
EndSplineSet
Validated: 1
EndChar

StartChar: three.pnum.onum
Encoding: 390 -1 390
Width: 650
Flags: HMW
LayerCount: 2
Fore
SplineSet
50 25 m 1
 150 25 l 1
 150 -44 206 -100 325 -100 c 0
 444 -100 500 -44 500 25 c 0
 500 94 444 150 325 150 c 2
 250 150 l 1
 250 250 l 1
 325 250 l 2
 444 250 500 306 500 375 c 0
 500 444 444 500 325 500 c 0
 206 500 150 444 150 375 c 1
 50 375 l 1
 50 499 151 600 325 600 c 0
 499 600 600 499 600 375 c 0
 600 304 568 241 505 200 c 1
 568 159 600 96 600 25 c 0
 600 -99 499 -200 325 -200 c 0
 151 -200 50 -99 50 25 c 1
EndSplineSet
Validated: 1
EndChar

StartChar: four.pnum.onum
Encoding: 391 -1 391
Width: 700
Flags: HMW
LayerCount: 2
Fore
SplineSet
50 0 m 1
 50 100 l 1
 450 600 l 1
 550 600 l 1
 550 100 l 1
 650 100 l 1
 650 0 l 1
 550 0 l 1
 550 -200 l 1
 450 -200 l 1
 450 0 l 1
 50 0 l 1
170 100 m 1
 450 100 l 1
 450 450 l 1
 170 100 l 1
EndSplineSet
Validated: 1
EndChar

StartChar: five.pnum.onum
Encoding: 392 -1 392
Width: 650
Flags: HMW
LayerCount: 2
Fore
SplineSet
50 25 m 1
 150 25 l 1
 150 -44 206 -100 325 -100 c 0
 422 -100 500 -25 500 75 c 0
 500 175 422 250 325 250 c 0
 248 250 180 216 170 175 c 1
 70 195 l 1
 140 600 l 1
 600 600 l 1
 600 500 l 1
 226 500 l 1
 196 323 l 1
 234 340 277 350 325 350 c 0
 477 350 600 231 600 75 c 0
 600 -81 477 -200 325 -200 c 0
 151 -200 50 -99 50 25 c 1
EndSplineSet
Validated: 1
EndChar

StartChar: six.pnum.onum
Encoding: 393 -1 393
Width: 650
Flags: HMW
LayerCount: 2
Fore
SplineSet
150 275 m 0
 150 156 206 100 325 100 c 0
 444 100 500 156 500 225 c 0
 500 294 444 350 325 350 c 0
 226 350 150 344 150 275 c 0
50 275 m 0
 50 542 252 800 500 800 c 1
 500 700 l 1
 355 700 230 580 177 430 c 1
 219 444 270 450 325 450 c 0
 499 450 600 349 600 225 c 0
 600 101 499 0 325 0 c 0
 151 0 50 101 50 275 c 0
EndSplineSet
Validated: 1
EndChar

StartChar: seven.pnum.onum
Encoding: 394 -1 394
Width: 650
Flags: HMW
LayerCount: 2
Fore
SplineSet
50 500 m 1
 50 600 l 1
 600 600 l 1
 600 500 l 1
 450 350 350 50 350 -200 c 1
 250 -200 l 1
 250 90 350 370 480 500 c 1
 50 500 l 1
EndSplineSet
Validated: 1
EndChar

StartChar: eight.pnum.onum
Encoding: 395 -1 395
Width: 650
Flags: HMW
LayerCount: 2
Fore
SplineSet
150 575 m 0
 150 506 206 450 325 450 c 0
 444 450 500 506 500 575 c 0
 500 644 444 700 325 700 c 0
 206 700 150 644 150 575 c 0
150 225 m 0
 150 156 206 100 325 100 c 0
 444 100 500 156 500 225 c 0
 500 294 444 350 325 350 c 0
 206 350 150 294 150 225 c 0
50 225 m 0
 50 296 82 359 145 400 c 1
 82 441 50 504 50 575 c 0
 50 699 151 800 325 800 c 0
 499 800 600 699 600 575 c 0
 600 504 568 441 505 400 c 1
 568 359 600 296 600 225 c 0
 600 101 499 0 325 0 c 0
 151 0 50 101 50 225 c 0
EndSplineSet
Validated: 1
EndChar

StartChar: nine.pnum.onum
Encoding: 396 -1 396
Width: 650
Flags: HMW
LayerCount: 2
Fore
SplineSet
150 375 m 0
 150 306 206 250 325 250 c 0
 424 250 500 256 500 325 c 0
 500 444 444 500 325 500 c 0
 206 500 150 444 150 375 c 0
50 375 m 0
 50 499 151 600 325 600 c 0
 499 600 600 499 600 325 c 0
 600 58 398 -200 150 -200 c 1
 150 -100 l 1
 295 -100 420 20 473 170 c 1
 431 156 380 150 325 150 c 0
 151 150 50 251 50 375 c 0
EndSplineSet
Validated: 1
EndChar

StartChar: zero.pnum.onum.zero
Encoding: 397 -1 397
Width: 650
Flags: HMW
LayerCount: 2
Fore
SplineSet
325 500 m 1
 417 130 l 1
 467 165 500 229 500 300 c 0
 500 410 422 500 325 500 c 1
150 300 m 0
 150 190 228 100 325 100 c 1
 233 470 l 1
 183 435 150 371 150 300 c 0
50 300 m 0
 50 466 173 600 325 600 c 0
 477 600 600 466 600 300 c 0
 600 134 477 0 325 0 c 0
 173 0 50 134 50 300 c 0
EndSplineSet
Validated: 1
EndChar

StartChar: uni01A7
Encoding: 398 423 398
Width: 480
Flags: HMW
LayerCount: 2
Fore
SplineSet
46 734 m 1
 87 775 143 800 205 800 c 0
 329 800 430 699 430 575 c 0
 430 421 150 324 150 225 c 0
 150 156 206 100 275 100 c 0
 309 100 340 114 363 137 c 1
 434 66 l 1
 393 25 337 0 275 0 c 0
 151 0 50 101 50 225 c 0
 50 379 330 476 330 575 c 0
 330 644 274 700 205 700 c 0
 171 700 140 686 117 663 c 1
 46 734 l 1
EndSplineSet
Validated: 1
EndChar

StartChar: uni01A8
Encoding: 399 424 399
Width: 395
Flags: HMW
LayerCount: 2
Fore
SplineSet
46 549 m 1
 78 581 122 600 170 600 c 0
 267 600 345 522 345 425 c 0
 345 308 150 236 150 175 c 0
 150 134 184 100 225 100 c 0
 245 100 264 108 278 122 c 1
 349 51 l 1
 317 19 273 0 225 0 c 0
 128 0 50 78 50 175 c 0
 50 292 245 364 245 425 c 0
 245 466 211 500 170 500 c 0
 150 500 131 492 117 478 c 1
 46 549 l 1
EndSplineSet
Validated: 1
EndChar

StartChar: uni0417
Encoding: 400 1047 400
Width: 650
Flags: HMW
LayerCount: 2
Fore
SplineSet
50 225 m 1
 150 225 l 1
 150 156 206 100 325 100 c 0
 444 100 500 156 500 225 c 0
 500 294 444 350 325 350 c 2
 250 350 l 1
 250 450 l 1
 325 450 l 2
 444 450 500 506 500 575 c 0
 500 644 444 700 325 700 c 0
 206 700 150 644 150 575 c 1
 50 575 l 1
 50 800 l 1
 150 800 l 1
 150 745 l 1
 195 783 254 800 325 800 c 0
 499 800 600 699 600 575 c 0
 600 504 568 441 505 400 c 1
 568 359 600 296 600 225 c 0
 600 101 499 0 325 0 c 0
 151 0 50 101 50 225 c 1
EndSplineSet
Validated: 1
EndChar

StartChar: uni0437
Encoding: 401 1079 401
Width: 550
Flags: HMW
LayerCount: 2
Fore
SplineSet
50 175 m 1
 150 175 l 1
 150 134 206 100 275 100 c 0
 344 100 400 134 400 175 c 0
 400 216 344 250 275 250 c 2
 225 250 l 1
 225 350 l 1
 275 350 l 2
 344 350 400 384 400 425 c 0
 400 466 344 500 275 500 c 0
 206 500 150 466 150 425 c 1
 50 425 l 1
 50 522 151 600 275 600 c 0
 399 600 500 522 500 425 c 0
 500 376 475 332 413 300 c 1
 475 268 500 224 500 175 c 0
 500 78 399 0 275 0 c 0
 151 0 50 78 50 175 c 1
EndSplineSet
Validated: 1
EndChar

StartChar: uni0427
Encoding: 402 1063 402
Width: 700
Flags: HMW
LayerCount: 2
Fore
SplineSet
50 590 m 2
 50 800 l 1
 150 800 l 1
 150 590 l 2
 150 480 240 390 350 390 c 0
 460 390 550 480 550 590 c 2
 550 800 l 1
 650 800 l 1
 650 0 l 1
 550 0 l 1
 550 376 l 1
 497 319 427 290 350 290 c 0
 184 290 50 424 50 590 c 2
EndSplineSet
Validated: 1
EndChar

StartChar: uni0447
Encoding: 403 1095 403
Width: 700
Flags: HMW
LayerCount: 2
Fore
SplineSet
50 490 m 2
 50 600 l 1
 150 600 l 1
 150 490 l 2
 150 380 240 290 350 290 c 0
 460 290 550 380 550 490 c 2
 550 600 l 1
 650 600 l 1
 650 0 l 1
 550 0 l 1
 550 276 l 1
 497 219 427 190 350 190 c 0
 184 190 50 324 50 490 c 2
EndSplineSet
Validated: 1
EndChar

StartChar: uni01BC
Encoding: 404 444 404
Width: 650
Flags: HMW
LayerCount: 2
Fore
SplineSet
50 225 m 1
 150 225 l 1
 150 156 206 100 325 100 c 0
 422 100 500 175 500 275 c 0
 500 375 422 450 325 450 c 0
 248 450 180 416 170 375 c 1
 70 395 l 1
 123 700 l 1
 50 700 l 1
 50 800 l 1
 600 800 l 1
 600 700 l 1
 226 700 l 1
 196 523 l 1
 234 540 277 550 325 550 c 0
 477 550 600 431 600 275 c 0
 600 119 477 0 325 0 c 0
 151 0 50 101 50 225 c 1
EndSplineSet
Validated: 1
EndChar

StartChar: uni01BD
Encoding: 405 445 405
Width: 550
Flags: HMW
LayerCount: 2
Fore
SplineSet
50 175 m 1
 150 175 l 1
 150 126 186 100 275 100 c 0
 342 100 400 130 400 200 c 0
 400 270 342 300 275 300 c 0
 217 300 180 280 170 255 c 1
 70 275 l 1
 123 500 l 1
 50 500 l 1
 50 600 l 1
 500 600 l 1
 500 500 l 1
 226 500 l 1
 200 390 l 1
 223 396 248 400 275 400 c 0
 397 400 500 326 500 200 c 0
 500 74 397 0 275 0 c 0
 131 0 50 71 50 175 c 1
EndSplineSet
Validated: 1
EndChar

StartChar: uni0184
Encoding: 406 388 406
Width: 700
Flags: HMW
LayerCount: 2
Fore
SplineSet
50 650 m 1
 50 750 l 1
 250 800 l 1
 250 450 l 1
 425 450 l 2
 549 450 650 349 650 225 c 0
 650 101 549 0 425 0 c 2
 150 0 l 1
 150 675 l 1
 50 650 l 1
250 100 m 1
 425 100 l 2
 494 100 550 156 550 225 c 0
 550 294 494 350 425 350 c 2
 250 350 l 1
 250 100 l 1
EndSplineSet
Validated: 1
EndChar

StartChar: uni0185
Encoding: 407 389 407
Width: 700
Flags: HMW
LayerCount: 2
Fore
SplineSet
250 300 m 0
 250 190 340 100 450 100 c 0
 560 100 650 190 650 300 c 0
 650 410 560 500 450 500 c 0
 340 500 250 410 250 300 c 0
50 650 m 1
 50 750 l 1
 250 800 l 1
 250 519 l 1
 303 571 374 600 450 600 c 0
 616 600 750 466 750 300 c 0
 750 134 616 0 450 0 c 0
 374 0 303 29 250 81 c 1
 250 0 l 1
 150 0 l 1
 150 675 l 1
 50 650 l 1
EndSplineSet
Validated: 1
EndChar

StartChar: franc
Encoding: 408 8355 408
Width: 650
Flags: HMW
LayerCount: 2
Fore
SplineSet
50 100 m 1
 50 200 l 1
 150 200 l 1
 150 800 l 1
 600 800 l 1
 600 700 l 1
 250 700 l 1
 250 450 l 1
 500 450 l 1
 500 350 l 1
 250 350 l 1
 250 200 l 1
 400 200 l 1
 400 100 l 1
 250 100 l 1
 250 0 l 1
 150 0 l 1
 150 100 l 1
 50 100 l 1
EndSplineSet
Validated: 1
EndChar

StartChar: lira
Encoding: 409 8356 409
Width: 800
Flags: HMW
LayerCount: 2
Fore
SplineSet
50 150 m 0
 50 233 140 300 250 300 c 0
 274 300 302 293 333 282 c 1
 329 304 324 327 320 350 c 1
 210 350 l 1
 210 450 l 1
 301 450 l 1
 298 468 296 485 294 500 c 1
 210 500 l 1
 210 600 l 1
 295 600 l 1
 319 713 421 800 540 800 c 0
 623 800 698 766 752 712 c 1
 681 641 l 1
 645 677 595 700 540 700 c 0
 477 700 421 657 399 600 c 1
 560 600 l 1
 560 500 l 1
 394 500 l 1
 396 485 398 468 401 450 c 1
 560 450 l 1
 560 350 l 1
 420 350 l 1
 428 309 436 267 442 231 c 1
 553 173 671 100 750 100 c 1
 750 0 l 1
 673 0 557 71 448 128 c 1
 434 55 350 0 250 0 c 0
 140 0 50 67 50 150 c 0
150 150 m 0
 150 122 195 100 250 100 c 0
 305 100 350 122 350 150 c 0
 350 158 350 166 349 175 c 1
 312 190 278 200 250 200 c 0
 195 200 150 178 150 150 c 0
EndSplineSet
Validated: 1
EndChar

StartChar: peseta
Encoding: 410 8359 410
Width: 780
Flags: HMW
LayerCount: 2
Fore
SplineSet
530 0 m 1
 530 100 l 1
 558 100 580 122 580 150 c 2
 580 200 l 2
 580 283 647 350 730 350 c 1
 730 250 l 1
 702 250 680 228 680 200 c 2
 680 150 l 2
 680 67 613 0 530 0 c 1
250 190 m 1
 250 290 l 1
 330 290 l 1
 330 350 l 1
 430 350 l 1
 430 290 l 1
 510 290 l 1
 510 190 l 1
 430 190 l 1
 430 0 l 1
 330 0 l 1
 330 190 l 1
 250 190 l 1
50 0 m 1
 50 800 l 1
 425 800 l 2
 549 800 650 729 650 625 c 0
 650 521 549 450 425 450 c 2
 150 450 l 1
 150 0 l 1
 50 0 l 1
150 550 m 1
 425 550 l 2
 494 550 550 576 550 625 c 0
 550 674 494 700 425 700 c 2
 150 700 l 1
 150 550 l 1
EndSplineSet
Validated: 1
EndChar

StartChar: uni20A9
Encoding: 411 8361 411
Width: 1100
Flags: HMW
LayerCount: 2
Fore
SplineSet
761 250 m 1
 790 150 l 1
 815 250 l 1
 761 250 l 1
285 250 m 1
 310 150 l 1
 339 250 l 1
 285 250 l 1
521 550 m 1
 579 550 l 1
 550 650 l 1
 521 550 l 1
462 350 m 1
 638 350 l 1
 608 450 l 1
 492 450 l 1
 462 350 l 1
702 450 m 1
 732 350 l 1
 839 350 l 1
 864 450 l 1
 702 450 l 1
236 450 m 1
 261 350 l 1
 368 350 l 1
 398 450 l 1
 236 450 l 1
50 250 m 1
 50 350 l 1
 162 350 l 1
 138 450 l 1
 50 450 l 1
 50 550 l 1
 112 550 l 1
 50 800 l 1
 150 800 l 1
 212 550 l 1
 427 550 l 1
 500 800 l 1
 600 800 l 1
 673 550 l 1
 888 550 l 1
 950 800 l 1
 1050 800 l 1
 988 550 l 1
 1050 550 l 1
 1050 450 l 1
 962 450 l 1
 938 350 l 1
 1050 350 l 1
 1050 250 l 1
 912 250 l 1
 850 0 l 1
 740 0 l 1
 667 250 l 1
 433 250 l 1
 360 0 l 1
 250 0 l 1
 187 250 l 1
 50 250 l 1
EndSplineSet
Validated: 1
EndChar

StartChar: uni20AA
Encoding: 412 8362 412
Width: 800
Flags: HMW
LayerCount: 2
Fore
SplineSet
250 0 m 1
 250 410 l 1
 305 410 350 365 350 310 c 2
 350 100 l 1
 450 100 l 2
 560 100 650 190 650 300 c 2
 650 600 l 1
 750 600 l 1
 750 300 l 2
 750 134 616 0 450 0 c 2
 250 0 l 1
50 0 m 1
 50 600 l 1
 250 600 l 2
 416 600 550 466 550 300 c 0
 550 245 505 200 450 200 c 1
 450 300 l 2
 450 410 360 500 250 500 c 2
 150 500 l 1
 150 0 l 1
 50 0 l 1
EndSplineSet
Validated: 1
EndChar

StartChar: dong
Encoding: 413 8363 413
Width: 800
Flags: HMW
LayerCount: 2
Fore
SplineSet
150 300 m 0
 150 190 240 100 350 100 c 0
 460 100 550 190 550 300 c 0
 550 410 460 500 350 500 c 0
 240 500 150 410 150 300 c 0
50 300 m 0
 50 466 184 600 350 600 c 0
 426 600 497 571 550 519 c 1
 550 650 l 1
 400 650 l 1
 400 750 l 1
 550 750 l 1
 550 800 l 1
 650 800 l 1
 650 750 l 1
 750 750 l 1
 750 650 l 1
 650 650 l 1
 650 0 l 1
 550 0 l 1
 550 81 l 1
 497 29 426 0 350 0 c 0
 184 0 50 134 50 300 c 0
100 -100 m 1
 600 -100 l 1
 600 -200 l 1
 100 -200 l 1
 100 -100 l 1
EndSplineSet
Validated: 1
EndChar

StartChar: uni20AE
Encoding: 414 8366 414
Width: 700
Flags: HMW
LayerCount: 2
Fore
SplineSet
50 700 m 1
 50 800 l 1
 650 800 l 1
 650 700 l 1
 400 700 l 1
 400 560 l 1
 600 600 l 1
 600 500 l 1
 400 460 l 1
 400 360 l 1
 600 400 l 1
 600 300 l 1
 400 260 l 1
 400 0 l 1
 300 0 l 1
 300 240 l 1
 100 200 l 1
 100 300 l 1
 300 340 l 1
 300 440 l 1
 100 400 l 1
 100 500 l 1
 300 540 l 1
 300 700 l 1
 50 700 l 1
EndSplineSet
Validated: 1
EndChar

StartChar: uni20B1
Encoding: 415 8369 415
Width: 800
Flags: HMW
LayerCount: 2
Fore
SplineSet
250 350 m 1
 425 350 l 2
 467 350 503 360 526 400 c 1
 250 400 l 1
 250 350 l 1
250 650 m 1
 526 650 l 1
 503 690 467 700 425 700 c 2
 250 700 l 1
 250 650 l 1
250 500 m 1
 550 500 l 1
 550 550 l 1
 250 550 l 1
 250 500 l 1
50 400 m 1
 50 500 l 1
 150 500 l 1
 150 550 l 1
 50 550 l 1
 50 650 l 1
 150 650 l 1
 150 800 l 1
 425 800 l 2
 519 800 601 759 634 650 c 1
 750 650 l 1
 750 550 l 1
 650 550 l 1
 650 500 l 1
 750 500 l 1
 750 400 l 1
 634 400 l 1
 601 291 519 250 425 250 c 2
 250 250 l 1
 250 0 l 1
 150 0 l 1
 150 400 l 1
 50 400 l 1
EndSplineSet
Validated: 1
EndChar

StartChar: uni20B3
Encoding: 416 8371 416
Width: 700
Flags: HMW
LayerCount: 2
Fore
SplineSet
286 450 m 1
 414 450 l 1
 350 660 l 1
 286 450 l 1
226 250 m 1
 474 250 l 1
 444 350 l 1
 256 350 l 1
 226 250 l 1
50 0 m 1
 97 150 l 1
 50 150 l 1
 50 250 l 1
 128 250 l 1
 159 350 l 1
 50 350 l 1
 50 450 l 1
 191 450 l 1
 300 800 l 1
 400 800 l 1
 509 450 l 1
 650 450 l 1
 650 350 l 1
 541 350 l 1
 572 250 l 1
 650 250 l 1
 650 150 l 1
 603 150 l 1
 650 0 l 1
 550 0 l 1
 505 150 l 1
 195 150 l 1
 150 0 l 1
 50 0 l 1
EndSplineSet
Validated: 1
EndChar

StartChar: uni20B4
Encoding: 417 8372 417
Width: 480
Flags: HMW
LayerCount: 2
Fore
SplineSet
46 734 m 1
 87 775 143 800 205 800 c 0
 329 800 430 699 430 575 c 0
 430 484 333 413 253 350 c 1
 430 350 l 1
 430 250 l 1
 156 250 l 1
 152 242 150 233 150 225 c 0
 150 156 206 100 275 100 c 0
 309 100 340 114 363 137 c 1
 434 66 l 1
 393 25 337 0 275 0 c 0
 151 0 50 101 50 225 c 0
 50 316 147 387 227 450 c 1
 50 450 l 1
 50 550 l 1
 324 550 l 1
 328 558 330 567 330 575 c 0
 330 644 274 700 205 700 c 0
 171 700 140 686 117 663 c 1
 46 734 l 1
EndSplineSet
Validated: 1
EndChar

StartChar: uni20BA
Encoding: 418 8378 418
Width: 650
Flags: HMW
LayerCount: 2
Fore
SplineSet
50 400 m 1
 50 500 l 1
 150 500 l 1
 150 600 l 1
 50 600 l 1
 50 700 l 1
 150 700 l 1
 150 800 l 1
 250 800 l 1
 250 700 l 1
 400 700 l 1
 400 600 l 1
 250 600 l 1
 250 500 l 1
 400 500 l 1
 400 400 l 1
 250 400 l 1
 250 154 l 1
 600 310 l 1
 600 200 l 1
 150 0 l 1
 150 400 l 1
 50 400 l 1
EndSplineSet
Validated: 1
EndChar

StartChar: uni20BD
Encoding: 419 8381 419
Width: 700
Flags: HMW
LayerCount: 2
Fore
SplineSet
50 100 m 1
 50 200 l 1
 150 200 l 1
 150 800 l 1
 425 800 l 2
 549 800 650 699 650 575 c 0
 650 451 549 350 425 350 c 2
 250 350 l 1
 250 200 l 1
 400 200 l 1
 400 100 l 1
 250 100 l 1
 250 0 l 1
 150 0 l 1
 150 100 l 1
 50 100 l 1
250 450 m 1
 425 450 l 2
 494 450 550 506 550 575 c 0
 550 644 494 700 425 700 c 2
 250 700 l 1
 250 450 l 1
EndSplineSet
Validated: 1
EndChar

StartChar: uni20BF
Encoding: 420 8383 420
Width: 600
Flags: HMW
LayerCount: 2
Fore
SplineSet
50 0 m 1
 50 800 l 1
 150 800 l 1
 150 900 l 1
 250 900 l 1
 250 800 l 1
 300 800 l 1
 300 900 l 1
 400 900 l 1
 400 787 l 1
 487 756 550 673 550 575 c 0
 550 504 518 441 455 400 c 1
 518 359 550 296 550 225 c 0
 550 127 487 44 400 13 c 1
 400 -100 l 1
 300 -100 l 1
 300 -0 l 1
 250 0 l 1
 250 -100 l 1
 150 -100 l 1
 150 -0 l 1
 50 0 l 1
150 450 m 1
 325 450 l 2
 394 450 450 506 450 575 c 0
 450 644 394 700 325 700 c 2
 150 700 l 1
 150 450 l 1
150 100 m 1
 325 100 l 2
 394 100 450 156 450 225 c 0
 450 294 394 350 325 350 c 2
 150 350 l 1
 150 100 l 1
EndSplineSet
Validated: 1
EndChar

StartChar: uni20C0
Encoding: 421 8384 421
Width: 610
Flags: HMW
LayerCount: 2
Fore
SplineSet
50 500 m 0
 50 666 184 800 350 800 c 0
 433 800 508 766 562 712 c 1
 491 641 l 1
 455 677 405 700 350 700 c 0
 240 700 150 610 150 500 c 0
 150 390 240 300 350 300 c 0
 404 300 454 322 490 357 c 1
 560 286 l 1
 506 233 432 200 350 200 c 0
 184 200 50 334 50 500 c 0
50 0 m 1
 50 100 l 1
 560 100 l 1
 560 0 l 1
 50 0 l 1
EndSplineSet
Validated: 1
EndChar

StartChar: SF100000
Encoding: 422 9472 422
Width: 1200
Flags: HMW
LayerCount: 2
Fore
SplineSet
0 350 m 1
 0 450 l 1
 1200 450 l 1
 1200 350 l 1
 0 350 l 1
EndSplineSet
Validated: 1
EndChar

StartChar: SF110000
Encoding: 423 9474 423
Width: 1200
Flags: HMW
LayerCount: 2
Fore
SplineSet
550 -200 m 1
 550 1000 l 1
 650 1000 l 1
 650 -200 l 1
 550 -200 l 1
EndSplineSet
Validated: 1
EndChar

StartChar: SF010000
Encoding: 424 9484 424
Width: 1200
Flags: HMW
LayerCount: 2
Fore
SplineSet
550 -200 m 1
 550 450 l 1
 1200 450 l 1
 1200 350 l 1
 650 350 l 1
 650 -200 l 1
 550 -200 l 1
EndSplineSet
Validated: 1
EndChar

StartChar: SF030000
Encoding: 425 9488 425
Width: 1200
Flags: HMW
LayerCount: 2
Fore
SplineSet
0 350 m 1
 0 450 l 1
 650 450 l 1
 650 -200 l 1
 550 -200 l 1
 550 350 l 1
 0 350 l 1
EndSplineSet
Validated: 1
EndChar

StartChar: SF020000
Encoding: 426 9492 426
Width: 1200
Flags: HMW
LayerCount: 2
Fore
SplineSet
550 350 m 1
 550 1000 l 1
 650 1000 l 1
 650 450 l 1
 1200 450 l 1
 1200 350 l 1
 550 350 l 1
EndSplineSet
Validated: 1
EndChar

StartChar: SF040000
Encoding: 427 9496 427
Width: 1200
Flags: HMW
LayerCount: 2
Fore
SplineSet
0 350 m 1
 0 450 l 1
 550 450 l 1
 550 1000 l 1
 650 1000 l 1
 650 350 l 1
 0 350 l 1
EndSplineSet
Validated: 1
EndChar

StartChar: SF080000
Encoding: 428 9500 428
Width: 1200
Flags: HMW
LayerCount: 2
Fore
SplineSet
550 -200 m 1
 550 1000 l 1
 650 1000 l 1
 650 450 l 1
 1200 450 l 1
 1200 350 l 1
 650 350 l 1
 650 -200 l 1
 550 -200 l 1
EndSplineSet
Validated: 1
EndChar

StartChar: SF090000
Encoding: 429 9508 429
Width: 1200
Flags: HMW
LayerCount: 2
Fore
SplineSet
0 350 m 1
 0 450 l 1
 550 450 l 1
 550 1000 l 1
 650 1000 l 1
 650 -200 l 1
 550 -200 l 1
 550 350 l 1
 0 350 l 1
EndSplineSet
Validated: 1
EndChar

StartChar: SF060000
Encoding: 430 9516 430
Width: 1200
Flags: HMW
LayerCount: 2
Fore
SplineSet
0 350 m 1
 0 450 l 1
 1200 450 l 1
 1200 350 l 1
 650 350 l 1
 650 -200 l 1
 550 -200 l 1
 550 350 l 1
 0 350 l 1
EndSplineSet
Validated: 1
EndChar

StartChar: SF070000
Encoding: 431 9524 431
Width: 1200
Flags: HMW
LayerCount: 2
Fore
SplineSet
0 350 m 1
 0 450 l 1
 550 450 l 1
 550 1000 l 1
 650 1000 l 1
 650 450 l 1
 1200 450 l 1
 1200 350 l 1
 0 350 l 1
EndSplineSet
Validated: 1
EndChar

StartChar: SF050000
Encoding: 432 9532 432
Width: 1200
Flags: HMW
LayerCount: 2
Fore
SplineSet
0 350 m 1
 0 450 l 1
 550 450 l 1
 550 1000 l 1
 650 1000 l 1
 650 450 l 1
 1200 450 l 1
 1200 350 l 1
 650 350 l 1
 650 -200 l 1
 550 -200 l 1
 550 350 l 1
 0 350 l 1
EndSplineSet
Validated: 1
EndChar

StartChar: SF430000
Encoding: 433 9552 433
Width: 1200
Flags: HMW
LayerCount: 2
Fore
SplineSet
0 450 m 1
 0 550 l 1
 1200 550 l 1
 1200 450 l 1
 0 450 l 1
0 250 m 1
 0 350 l 1
 1200 350 l 1
 1200 250 l 1
 0 250 l 1
EndSplineSet
Validated: 1
EndChar

StartChar: SF240000
Encoding: 434 9553 434
Width: 1200
Flags: HMW
LayerCount: 2
Fore
SplineSet
650 -200 m 1
 650 1000 l 1
 750 1000 l 1
 750 -200 l 1
 650 -200 l 1
450 -200 m 1
 450 1000 l 1
 550 1000 l 1
 550 -200 l 1
 450 -200 l 1
EndSplineSet
Validated: 1
EndChar

StartChar: SF510000
Encoding: 435 9554 435
Width: 1200
Flags: HMW
LayerCount: 2
Fore
SplineSet
550 -200 m 1
 550 550 l 1
 1200 550 l 1
 1200 450 l 1
 650 450 l 1
 650 350 l 1
 1200 350 l 1
 1200 250 l 1
 650 250 l 1
 650 -200 l 1
 550 -200 l 1
EndSplineSet
Validated: 1
EndChar

StartChar: SF520000
Encoding: 436 9555 436
Width: 1200
Flags: HMW
LayerCount: 2
Fore
SplineSet
450 -200 m 1
 450 450 l 1
 1200 450 l 1
 1200 350 l 1
 750 350 l 1
 750 -200 l 1
 650 -200 l 1
 650 350 l 1
 550 350 l 1
 550 -200 l 1
 450 -200 l 1
EndSplineSet
Validated: 1
EndChar

StartChar: SF390000
Encoding: 437 9556 437
Width: 1200
Flags: HMW
LayerCount: 2
Fore
SplineSet
450 -200 m 1
 450 550 l 1
 1200 550 l 1
 1200 450 l 1
 550 450 l 1
 550 -200 l 1
 450 -200 l 1
650 -200 m 1
 650 350 l 1
 1200 350 l 1
 1200 250 l 1
 750 250 l 1
 750 -200 l 1
 650 -200 l 1
EndSplineSet
Validated: 1
EndChar

StartChar: SF220000
Encoding: 438 9557 438
Width: 1200
Flags: HMW
LayerCount: 2
Fore
SplineSet
0 250 m 1
 0 350 l 1
 550 350 l 1
 550 450 l 1
 0 450 l 1
 0 550 l 1
 650 550 l 1
 650 -200 l 1
 550 -200 l 1
 550 250 l 1
 0 250 l 1
EndSplineSet
Validated: 1
EndChar

StartChar: SF210000
Encoding: 439 9558 439
Width: 1200
Flags: HMW
LayerCount: 2
Fore
SplineSet
0 350 m 1
 0 450 l 1
 750 450 l 1
 750 -200 l 1
 650 -200 l 1
 650 350 l 1
 550 350 l 1
 550 -200 l 1
 450 -200 l 1
 450 350 l 1
 0 350 l 1
EndSplineSet
Validated: 1
EndChar

StartChar: SF250000
Encoding: 440 9559 440
Width: 1200
Flags: HMW
LayerCount: 2
Fore
SplineSet
0 450 m 1
 0 550 l 1
 750 550 l 1
 750 -200 l 1
 650 -200 l 1
 650 450 l 1
 0 450 l 1
0 250 m 1
 0 350 l 1
 550 350 l 1
 550 -200 l 1
 450 -200 l 1
 450 250 l 1
 0 250 l 1
EndSplineSet
Validated: 1
EndChar

StartChar: SF500000
Encoding: 441 9560 441
Width: 1200
Flags: HMW
LayerCount: 2
Fore
SplineSet
550 250 m 1
 550 1000 l 1
 650 1000 l 1
 650 550 l 1
 1200 550 l 1
 1200 450 l 1
 650 450 l 1
 650 350 l 1
 1200 350 l 1
 1200 250 l 1
 550 250 l 1
EndSplineSet
Validated: 1
EndChar

StartChar: SF490000
Encoding: 442 9561 442
Width: 1200
Flags: HMW
LayerCount: 2
Fore
SplineSet
450 350 m 1
 450 1000 l 1
 550 1000 l 1
 550 450 l 1
 650 450 l 1
 650 1000 l 1
 750 1000 l 1
 750 450 l 1
 1200 450 l 1
 1200 350 l 1
 450 350 l 1
EndSplineSet
Validated: 1
EndChar

StartChar: SF380000
Encoding: 443 9562 443
Width: 1200
Flags: HMW
LayerCount: 2
Fore
SplineSet
450 250 m 1
 450 1000 l 1
 550 1000 l 1
 550 350 l 1
 1200 350 l 1
 1200 250 l 1
 450 250 l 1
650 450 m 1
 650 1000 l 1
 750 1000 l 1
 750 550 l 1
 1200 550 l 1
 1200 450 l 1
 650 450 l 1
EndSplineSet
Validated: 1
EndChar

StartChar: SF280000
Encoding: 444 9563 444
Width: 1200
Flags: HMW
LayerCount: 2
Fore
SplineSet
0 250 m 1
 0 350 l 1
 550 350 l 1
 550 450 l 1
 0 450 l 1
 0 550 l 1
 550 550 l 1
 550 1000 l 1
 650 1000 l 1
 650 250 l 1
 0 250 l 1
EndSplineSet
Validated: 1
EndChar

StartChar: SF270000
Encoding: 445 9564 445
Width: 1200
Flags: HMW
LayerCount: 2
Fore
SplineSet
0 350 m 1
 0 450 l 1
 450 450 l 1
 450 1000 l 1
 550 1000 l 1
 550 450 l 1
 650 450 l 1
 650 1000 l 1
 750 1000 l 1
 750 350 l 1
 0 350 l 1
EndSplineSet
Validated: 1
EndChar

StartChar: SF260000
Encoding: 446 9565 446
Width: 1200
Flags: HMW
LayerCount: 2
Fore
SplineSet
0 450 m 1
 0 550 l 1
 450 550 l 1
 450 1000 l 1
 550 1000 l 1
 550 450 l 1
 0 450 l 1
0 250 m 1
 0 350 l 1
 650 350 l 1
 650 1000 l 1
 750 1000 l 1
 750 250 l 1
 0 250 l 1
EndSplineSet
Validated: 1
EndChar

StartChar: SF360000
Encoding: 447 9566 447
Width: 1200
Flags: HMW
LayerCount: 2
Fore
SplineSet
550 -200 m 1
 550 1000 l 1
 650 1000 l 1
 650 550 l 1
 1200 550 l 1
 1200 450 l 1
 650 450 l 1
 650 350 l 1
 1200 350 l 1
 1200 250 l 1
 650 250 l 1
 650 -200 l 1
 550 -200 l 1
EndSplineSet
Validated: 1
EndChar

StartChar: SF370000
Encoding: 448 9567 448
Width: 1200
Flags: HMW
LayerCount: 2
Fore
SplineSet
450 -200 m 1
 450 1000 l 1
 550 1000 l 1
 550 -200 l 1
 450 -200 l 1
650 -200 m 1
 650 1000 l 1
 750 1000 l 1
 750 450 l 1
 1200 450 l 1
 1200 350 l 1
 750 350 l 1
 750 -200 l 1
 650 -200 l 1
EndSplineSet
Validated: 1
EndChar

StartChar: SF420000
Encoding: 449 9568 449
Width: 1200
Flags: HMW
LayerCount: 2
Fore
SplineSet
650 450 m 1
 650 1000 l 1
 750 1000 l 1
 750 550 l 1
 1200 550 l 1
 1200 450 l 1
 650 450 l 1
650 -200 m 1
 650 350 l 1
 1200 350 l 1
 1200 250 l 1
 750 250 l 1
 750 -200 l 1
 650 -200 l 1
450 -200 m 1
 450 1000 l 1
 550 1000 l 1
 550 -200 l 1
 450 -200 l 1
EndSplineSet
Validated: 1
EndChar

StartChar: SF190000
Encoding: 450 9569 450
Width: 1200
Flags: HMW
LayerCount: 2
Fore
SplineSet
0 250 m 1
 0 350 l 1
 550 350 l 1
 550 450 l 1
 0 450 l 1
 0 550 l 1
 550 550 l 1
 550 1000 l 1
 650 1000 l 1
 650 -200 l 1
 550 -200 l 1
 550 250 l 1
 0 250 l 1
EndSplineSet
Validated: 1
EndChar

StartChar: SF200000
Encoding: 451 9570 451
Width: 1200
Flags: HMW
LayerCount: 2
Fore
SplineSet
650 -200 m 1
 650 1000 l 1
 750 1000 l 1
 750 -200 l 1
 650 -200 l 1
0 350 m 1
 0 450 l 1
 450 450 l 1
 450 1000 l 1
 550 1000 l 1
 550 -200 l 1
 450 -200 l 1
 450 350 l 1
 0 350 l 1
EndSplineSet
Validated: 1
EndChar

StartChar: SF230000
Encoding: 452 9571 452
Width: 1200
Flags: HMW
LayerCount: 2
Fore
SplineSet
0 250 m 1
 0 350 l 1
 550 350 l 1
 550 -200 l 1
 450 -200 l 1
 450 250 l 1
 0 250 l 1
0 450 m 1
 0 550 l 1
 450 550 l 1
 450 1000 l 1
 550 1000 l 1
 550 450 l 1
 0 450 l 1
650 -200 m 1
 650 1000 l 1
 750 1000 l 1
 750 -200 l 1
 650 -200 l 1
EndSplineSet
Validated: 1
EndChar

StartChar: SF470000
Encoding: 453 9572 453
Width: 1200
Flags: HMW
LayerCount: 2
Fore
SplineSet
0 250 m 1
 0 350 l 1
 1200 350 l 1
 1200 250 l 1
 650 250 l 1
 650 -200 l 1
 550 -200 l 1
 550 250 l 1
 0 250 l 1
0 450 m 1
 0 550 l 1
 1200 550 l 1
 1200 450 l 1
 0 450 l 1
EndSplineSet
Validated: 1
EndChar

StartChar: SF480000
Encoding: 454 9573 454
Width: 1200
Flags: HMW
LayerCount: 2
Fore
SplineSet
0 350 m 1
 0 450 l 1
 1200 450 l 1
 1200 350 l 1
 750 350 l 1
 750 -200 l 1
 650 -200 l 1
 650 350 l 1
 550 350 l 1
 550 -200 l 1
 450 -200 l 1
 450 350 l 1
 0 350 l 1
EndSplineSet
Validated: 1
EndChar

StartChar: SF410000
Encoding: 455 9574 455
Width: 1200
Flags: HMW
LayerCount: 2
Fore
SplineSet
0 450 m 1
 0 550 l 1
 1200 550 l 1
 1200 450 l 1
 0 450 l 1
0 250 m 1
 0 350 l 1
 550 350 l 1
 550 -200 l 1
 450 -200 l 1
 450 250 l 1
 0 250 l 1
650 -200 m 1
 650 350 l 1
 1200 350 l 1
 1200 250 l 1
 750 250 l 1
 750 -200 l 1
 650 -200 l 1
EndSplineSet
Validated: 1
EndChar

StartChar: SF450000
Encoding: 456 9575 456
Width: 1200
Flags: HMW
LayerCount: 2
Fore
SplineSet
0 450 m 1
 0 550 l 1
 550 550 l 1
 550 1000 l 1
 650 1000 l 1
 650 550 l 1
 1200 550 l 1
 1200 450 l 1
 0 450 l 1
0 250 m 1
 0 350 l 1
 1200 350 l 1
 1200 250 l 1
 0 250 l 1
EndSplineSet
Validated: 1
EndChar

StartChar: SF460000
Encoding: 457 9576 457
Width: 1200
Flags: HMW
LayerCount: 2
Fore
SplineSet
0 350 m 1
 0 450 l 1
 450 450 l 1
 450 1000 l 1
 550 1000 l 1
 550 450 l 1
 650 450 l 1
 650 1000 l 1
 750 1000 l 1
 750 450 l 1
 1200 450 l 1
 1200 350 l 1
 0 350 l 1
EndSplineSet
Validated: 1
EndChar

StartChar: SF400000
Encoding: 458 9577 458
Width: 1200
Flags: HMW
LayerCount: 2
Fore
SplineSet
0 250 m 1
 0 350 l 1
 1200 350 l 1
 1200 250 l 1
 0 250 l 1
0 450 m 1
 0 550 l 1
 450 550 l 1
 450 1000 l 1
 550 1000 l 1
 550 450 l 1
 0 450 l 1
650 450 m 1
 650 1000 l 1
 750 1000 l 1
 750 550 l 1
 1200 550 l 1
 1200 450 l 1
 650 450 l 1
EndSplineSet
Validated: 1
EndChar

StartChar: SF540000
Encoding: 459 9578 459
Width: 1200
Flags: HMW
LayerCount: 2
Fore
SplineSet
0 450 m 1
 0 550 l 1
 550 550 l 1
 550 1000 l 1
 650 1000 l 1
 650 550 l 1
 1200 550 l 1
 1200 450 l 1
 0 450 l 1
0 250 m 1
 0 350 l 1
 1200 350 l 1
 1200 250 l 1
 650 250 l 1
 650 -200 l 1
 550 -200 l 1
 550 250 l 1
 0 250 l 1
EndSplineSet
Validated: 1
EndChar

StartChar: SF530000
Encoding: 460 9579 460
Width: 1200
Flags: HMW
LayerCount: 2
Fore
SplineSet
650 -200 m 1
 650 1000 l 1
 750 1000 l 1
 750 450 l 1
 1200 450 l 1
 1200 350 l 1
 750 350 l 1
 750 -200 l 1
 650 -200 l 1
0 350 m 1
 0 450 l 1
 450 450 l 1
 450 1000 l 1
 550 1000 l 1
 550 -200 l 1
 450 -200 l 1
 450 350 l 1
 0 350 l 1
EndSplineSet
Validated: 1
EndChar

StartChar: SF440000
Encoding: 461 9580 461
Width: 1200
Flags: HMW
LayerCount: 2
Fore
SplineSet
0 450 m 1
 0 550 l 1
 450 550 l 1
 450 1000 l 1
 550 1000 l 1
 550 450 l 1
 0 450 l 1
0 250 m 1
 0 350 l 1
 550 350 l 1
 550 -200 l 1
 450 -200 l 1
 450 250 l 1
 0 250 l 1
650 -200 m 1
 650 350 l 1
 1200 350 l 1
 1200 250 l 1
 750 250 l 1
 750 -200 l 1
 650 -200 l 1
650 450 m 1
 650 1000 l 1
 750 1000 l 1
 750 550 l 1
 1200 550 l 1
 1200 450 l 1
 650 450 l 1
EndSplineSet
Validated: 1
EndChar

StartChar: uni2574
Encoding: 462 9588 462
Width: 1200
Flags: HMW
LayerCount: 2
Fore
SplineSet
0 350 m 1
 0 450 l 1
 650 450 l 1
 650 350 l 1
 0 350 l 1
EndSplineSet
Validated: 1
EndChar

StartChar: uni2575
Encoding: 463 9589 463
Width: 1200
Flags: HMW
LayerCount: 2
Fore
SplineSet
550 350 m 1
 550 1000 l 1
 650 1000 l 1
 650 350 l 1
 550 350 l 1
EndSplineSet
Validated: 1
EndChar

StartChar: uni2576
Encoding: 464 9590 464
Width: 1200
Flags: HMW
LayerCount: 2
Fore
SplineSet
550 350 m 1
 550 450 l 1
 1200 450 l 1
 1200 350 l 1
 550 350 l 1
EndSplineSet
Validated: 1
EndChar

StartChar: uni2577
Encoding: 465 9591 465
Width: 1200
Flags: HMW
LayerCount: 2
Fore
SplineSet
550 -200 m 1
 550 450 l 1
 650 450 l 1
 650 -200 l 1
 550 -200 l 1
EndSplineSet
Validated: 1
EndChar

StartChar: upblock
Encoding: 466 9600 466
Width: 1200
Flags: HMW
LayerCount: 2
Fore
SplineSet
0 400 m 1
 0 1000 l 1
 1200 1000 l 1
 1200 400 l 1
 0 400 l 1
EndSplineSet
Validated: 1
EndChar

StartChar: dnblock
Encoding: 467 9604 467
Width: 1200
Flags: HMW
LayerCount: 2
Fore
SplineSet
0 -200 m 1
 0 400 l 1
 1200 400 l 1
 1200 -200 l 1
 0 -200 l 1
EndSplineSet
Validated: 1
EndChar

StartChar: block
Encoding: 468 9608 468
Width: 1200
Flags: HMW
LayerCount: 2
Fore
SplineSet
0 -200 m 1
 0 1000 l 1
 1200 1000 l 1
 1200 -200 l 1
 0 -200 l 1
EndSplineSet
Validated: 1
EndChar

StartChar: lfblock
Encoding: 469 9612 469
Width: 1200
Flags: HMW
LayerCount: 2
Fore
SplineSet
0 -200 m 1
 0 1000 l 1
 600 1000 l 1
 600 -200 l 1
 0 -200 l 1
EndSplineSet
Validated: 1
EndChar

StartChar: rtblock
Encoding: 470 9616 470
Width: 1200
Flags: HMW
LayerCount: 2
Fore
SplineSet
600 -200 m 1
 600 1000 l 1
 1200 1000 l 1
 1200 -200 l 1
 600 -200 l 1
EndSplineSet
Validated: 1
EndChar

StartChar: ltshade
Encoding: 471 9617 471
Width: 1200
Flags: HMW
LayerCount: 2
Fore
SplineSet
0 900 m 1
 0 1000 l 1
 100 1000 l 1
 100 900 l 1
 0 900 l 1
100 700 m 1
 100 800 l 1
 200 800 l 1
 200 700 l 1
 100 700 l 1
200 900 m 1
 200 1000 l 1
 300 1000 l 1
 300 900 l 1
 200 900 l 1
300 700 m 1
 300 800 l 1
 400 800 l 1
 400 700 l 1
 300 700 l 1
0 500 m 1
 0 600 l 1
 100 600 l 1
 100 500 l 1
 0 500 l 1
100 300 m 1
 100 400 l 1
 200 400 l 1
 200 300 l 1
 100 300 l 1
200 500 m 1
 200 600 l 1
 300 600 l 1
 300 500 l 1
 200 500 l 1
300 300 m 1
 300 400 l 1
 400 400 l 1
 400 300 l 1
 300 300 l 1
0 100 m 1
 0 200 l 1
 100 200 l 1
 100 100 l 1
 0 100 l 1
100 0 m 1
 200 0 l 1
 200 -100 l 1
 100 -100 l 1
 100 0 l 1
200 100 m 1
 200 200 l 1
 300 200 l 1
 300 100 l 1
 200 100 l 1
300 0 m 1
 400 0 l 1
 400 -100 l 1
 300 -100 l 1
 300 0 l 1
400 900 m 1
 400 1000 l 1
 500 1000 l 1
 500 900 l 1
 400 900 l 1
500 700 m 1
 500 800 l 1
 600 800 l 1
 600 700 l 1
 500 700 l 1
600 900 m 1
 600 1000 l 1
 700 1000 l 1
 700 900 l 1
 600 900 l 1
700 700 m 1
 700 800 l 1
 800 800 l 1
 800 700 l 1
 700 700 l 1
400 500 m 1
 400 600 l 1
 500 600 l 1
 500 500 l 1
 400 500 l 1
500 300 m 1
 500 400 l 1
 600 400 l 1
 600 300 l 1
 500 300 l 1
600 500 m 1
 600 600 l 1
 700 600 l 1
 700 500 l 1
 600 500 l 1
700 300 m 1
 700 400 l 1
 800 400 l 1
 800 300 l 1
 700 300 l 1
400 100 m 1
 400 200 l 1
 500 200 l 1
 500 100 l 1
 400 100 l 1
500 0 m 1
 600 0 l 1
 600 -100 l 1
 500 -100 l 1
 500 0 l 1
600 100 m 1
 600 200 l 1
 700 200 l 1
 700 100 l 1
 600 100 l 1
700 0 m 1
 800 0 l 1
 800 -100 l 1
 700 -100 l 1
 700 0 l 1
800 900 m 1
 800 1000 l 1
 900 1000 l 1
 900 900 l 1
 800 900 l 1
900 700 m 1
 900 800 l 1
 1000 800 l 1
 1000 700 l 1
 900 700 l 1
1000 900 m 1
 1000 1000 l 1
 1100 1000 l 1
 1100 900 l 1
 1000 900 l 1
1100 700 m 1
 1100 800 l 1
 1200 800 l 1
 1200 700 l 1
 1100 700 l 1
800 500 m 1
 800 600 l 1
 900 600 l 1
 900 500 l 1
 800 500 l 1
900 300 m 1
 900 400 l 1
 1000 400 l 1
 1000 300 l 1
 900 300 l 1
1000 500 m 1
 1000 600 l 1
 1100 600 l 1
 1100 500 l 1
 1000 500 l 1
1100 300 m 1
 1100 400 l 1
 1200 400 l 1
 1200 300 l 1
 1100 300 l 1
800 100 m 1
 800 200 l 1
 900 200 l 1
 900 100 l 1
 800 100 l 1
900 0 m 1
 1000 0 l 1
 1000 -100 l 1
 900 -100 l 1
 900 0 l 1
1000 100 m 1
 1000 200 l 1
 1100 200 l 1
 1100 100 l 1
 1000 100 l 1
1100 0 m 1
 1200 0 l 1
 1200 -100 l 1
 1100 -100 l 1
 1100 0 l 1
EndSplineSet
Validated: 1
EndChar

StartChar: shade
Encoding: 472 9618 472
Width: 1200
Flags: HMW
LayerCount: 2
Fore
SplineSet
1000 100 m 1
 1000 200 l 1
 1100 200 l 1
 1100 100 l 1
 1000 100 l 1
1100 -100 m 1
 1200 -100 l 1
 1200 -200 l 1
 1100 -200 l 1
 1100 -100 l 1
1000 0 m 1
 1100 0 l 1
 1100 -100 l 1
 1000 -100 l 1
 1000 0 l 1
900 -100 m 1
 1000 -100 l 1
 1000 -200 l 1
 900 -200 l 1
 900 -100 l 1
800 0 m 1
 900 0 l 1
 900 -100 l 1
 800 -100 l 1
 800 0 l 1
1100 0 m 1
 1100 100 l 1
 1200 100 l 1
 1200 0 l 1
 1100 0 l 1
900 0 m 1
 900 100 l 1
 1000 100 l 1
 1000 0 l 1
 900 0 l 1
800 100 m 1
 800 200 l 1
 900 200 l 1
 900 100 l 1
 800 100 l 1
700 -100 m 1
 800 -100 l 1
 800 -200 l 1
 700 -200 l 1
 700 -100 l 1
600 0 m 1
 700 0 l 1
 700 -100 l 1
 600 -100 l 1
 600 0 l 1
500 -100 m 1
 600 -100 l 1
 600 -200 l 1
 500 -200 l 1
 500 -100 l 1
400 0 m 1
 500 0 l 1
 500 -100 l 1
 400 -100 l 1
 400 0 l 1
700 0 m 1
 700 100 l 1
 800 100 l 1
 800 0 l 1
 700 0 l 1
600 100 m 1
 600 200 l 1
 700 200 l 1
 700 100 l 1
 600 100 l 1
500 0 m 1
 500 100 l 1
 600 100 l 1
 600 0 l 1
 500 0 l 1
400 100 m 1
 400 200 l 1
 500 200 l 1
 500 100 l 1
 400 100 l 1
300 -100 m 1
 400 -100 l 1
 400 -200 l 1
 300 -200 l 1
 300 -100 l 1
200 0 m 1
 300 0 l 1
 300 -100 l 1
 200 -100 l 1
 200 0 l 1
100 -100 m 1
 200 -100 l 1
 200 -200 l 1
 100 -200 l 1
 100 -100 l 1
0 0 m 1
 100 0 l 1
 100 -100 l 1
 0 -100 l 1
 0 0 l 1
300 0 m 1
 300 100 l 1
 400 100 l 1
 400 0 l 1
 300 0 l 1
200 100 m 1
 200 200 l 1
 300 200 l 1
 300 100 l 1
 200 100 l 1
100 0 m 1
 100 100 l 1
 200 100 l 1
 200 0 l 1
 100 0 l 1
0 100 m 1
 0 200 l 1
 100 200 l 1
 100 100 l 1
 0 100 l 1
1100 200 m 1
 1100 300 l 1
 1200 300 l 1
 1200 200 l 1
 1100 200 l 1
1000 300 m 1
 1000 400 l 1
 1100 400 l 1
 1100 300 l 1
 1000 300 l 1
900 200 m 1
 900 300 l 1
 1000 300 l 1
 1000 200 l 1
 900 200 l 1
800 300 m 1
 800 400 l 1
 900 400 l 1
 900 300 l 1
 800 300 l 1
1100 400 m 1
 1100 500 l 1
 1200 500 l 1
 1200 400 l 1
 1100 400 l 1
1000 500 m 1
 1000 600 l 1
 1100 600 l 1
 1100 500 l 1
 1000 500 l 1
900 400 m 1
 900 500 l 1
 1000 500 l 1
 1000 400 l 1
 900 400 l 1
800 500 m 1
 800 600 l 1
 900 600 l 1
 900 500 l 1
 800 500 l 1
1100 600 m 1
 1100 700 l 1
 1200 700 l 1
 1200 600 l 1
 1100 600 l 1
1000 700 m 1
 1000 800 l 1
 1100 800 l 1
 1100 700 l 1
 1000 700 l 1
900 600 m 1
 900 700 l 1
 1000 700 l 1
 1000 600 l 1
 900 600 l 1
800 700 m 1
 800 800 l 1
 900 800 l 1
 900 700 l 1
 800 700 l 1
1100 800 m 1
 1100 900 l 1
 1200 900 l 1
 1200 800 l 1
 1100 800 l 1
1000 900 m 1
 1000 1000 l 1
 1100 1000 l 1
 1100 900 l 1
 1000 900 l 1
900 800 m 1
 900 900 l 1
 1000 900 l 1
 1000 800 l 1
 900 800 l 1
800 900 m 1
 800 1000 l 1
 900 1000 l 1
 900 900 l 1
 800 900 l 1
700 200 m 1
 700 300 l 1
 800 300 l 1
 800 200 l 1
 700 200 l 1
600 300 m 1
 600 400 l 1
 700 400 l 1
 700 300 l 1
 600 300 l 1
500 200 m 1
 500 300 l 1
 600 300 l 1
 600 200 l 1
 500 200 l 1
400 300 m 1
 400 400 l 1
 500 400 l 1
 500 300 l 1
 400 300 l 1
700 400 m 1
 700 500 l 1
 800 500 l 1
 800 400 l 1
 700 400 l 1
600 500 m 1
 600 600 l 1
 700 600 l 1
 700 500 l 1
 600 500 l 1
500 400 m 1
 500 500 l 1
 600 500 l 1
 600 400 l 1
 500 400 l 1
400 500 m 1
 400 600 l 1
 500 600 l 1
 500 500 l 1
 400 500 l 1
700 600 m 1
 700 700 l 1
 800 700 l 1
 800 600 l 1
 700 600 l 1
600 700 m 1
 600 800 l 1
 700 800 l 1
 700 700 l 1
 600 700 l 1
500 600 m 1
 500 700 l 1
 600 700 l 1
 600 600 l 1
 500 600 l 1
400 700 m 1
 400 800 l 1
 500 800 l 1
 500 700 l 1
 400 700 l 1
700 800 m 1
 700 900 l 1
 800 900 l 1
 800 800 l 1
 700 800 l 1
600 900 m 1
 600 1000 l 1
 700 1000 l 1
 700 900 l 1
 600 900 l 1
500 800 m 1
 500 900 l 1
 600 900 l 1
 600 800 l 1
 500 800 l 1
400 900 m 1
 400 1000 l 1
 500 1000 l 1
 500 900 l 1
 400 900 l 1
300 200 m 1
 300 300 l 1
 400 300 l 1
 400 200 l 1
 300 200 l 1
200 300 m 1
 200 400 l 1
 300 400 l 1
 300 300 l 1
 200 300 l 1
100 200 m 1
 100 300 l 1
 200 300 l 1
 200 200 l 1
 100 200 l 1
0 300 m 1
 0 400 l 1
 100 400 l 1
 100 300 l 1
 0 300 l 1
300 400 m 1
 300 500 l 1
 400 500 l 1
 400 400 l 1
 300 400 l 1
200 500 m 1
 200 600 l 1
 300 600 l 1
 300 500 l 1
 200 500 l 1
100 400 m 1
 100 500 l 1
 200 500 l 1
 200 400 l 1
 100 400 l 1
0 500 m 1
 0 600 l 1
 100 600 l 1
 100 500 l 1
 0 500 l 1
300 600 m 1
 300 700 l 1
 400 700 l 1
 400 600 l 1
 300 600 l 1
200 700 m 1
 200 800 l 1
 300 800 l 1
 300 700 l 1
 200 700 l 1
100 600 m 1
 100 700 l 1
 200 700 l 1
 200 600 l 1
 100 600 l 1
0 700 m 1
 0 800 l 1
 100 800 l 1
 100 700 l 1
 0 700 l 1
300 800 m 1
 300 900 l 1
 400 900 l 1
 400 800 l 1
 300 800 l 1
200 900 m 1
 200 1000 l 1
 300 1000 l 1
 300 900 l 1
 200 900 l 1
100 800 m 1
 100 900 l 1
 200 900 l 1
 200 800 l 1
 100 800 l 1
0 900 m 1
 0 1000 l 1
 100 1000 l 1
 100 900 l 1
 0 900 l 1
EndSplineSet
Validated: 5
EndChar

StartChar: dkshade
Encoding: 473 9619 473
Width: 1200
Flags: HMW
LayerCount: 2
Fore
SplineSet
100 400 m 1
 200 400 l 1
 200 500 l 1
 100 500 l 1
 100 400 l 1
300 400 m 1
 400 400 l 1
 400 500 l 1
 300 500 l 1
 300 400 l 1
500 400 m 1
 600 400 l 1
 600 500 l 1
 500 500 l 1
 500 400 l 1
700 400 m 1
 800 400 l 1
 800 500 l 1
 700 500 l 1
 700 400 l 1
900 400 m 1
 1000 400 l 1
 1000 500 l 1
 900 500 l 1
 900 400 l 1
200 200 m 1
 300 200 l 1
 300 300 l 1
 200 300 l 1
 200 200 l 1
400 200 m 1
 500 200 l 1
 500 300 l 1
 400 300 l 1
 400 200 l 1
600 200 m 1
 700 200 l 1
 700 300 l 1
 600 300 l 1
 600 200 l 1
800 200 m 1
 900 200 l 1
 900 300 l 1
 800 300 l 1
 800 200 l 1
1000 200 m 1
 1100 200 l 1
 1100 300 l 1
 1000 300 l 1
 1000 200 l 1
200 600 m 1
 300 600 l 1
 300 700 l 1
 200 700 l 1
 200 600 l 1
400 600 m 1
 500 600 l 1
 500 700 l 1
 400 700 l 1
 400 600 l 1
600 600 m 1
 700 600 l 1
 700 700 l 1
 600 700 l 1
 600 600 l 1
800 600 m 1
 900 600 l 1
 900 700 l 1
 800 700 l 1
 800 600 l 1
1000 600 m 1
 1100 600 l 1
 1100 700 l 1
 1000 700 l 1
 1000 600 l 1
100 0 m 1
 200 -0 l 1
 200 100 l 1
 100 100 l 1
 100 0 l 1
300 0 m 1
 400 0 l 1
 400 100 l 1
 300 100 l 1
 300 0 l 1
500 0 m 1
 600 0 l 1
 600 100 l 1
 500 100 l 1
 500 0 l 1
700 0 m 1
 800 0 l 1
 800 100 l 1
 700 100 l 1
 700 0 l 1
900 0 m 1
 1000 0 l 1
 1000 100 l 1
 900 100 l 1
 900 0 l 1
100 800 m 1
 200 800 l 1
 200 900 l 1
 100 900 l 1
 100 800 l 1
300 800 m 1
 400 800 l 1
 400 900 l 1
 300 900 l 1
 300 800 l 1
500 800 m 1
 600 800 l 1
 600 900 l 1
 500 900 l 1
 500 800 l 1
700 800 m 1
 800 800 l 1
 800 900 l 1
 700 900 l 1
 700 800 l 1
900 800 m 1
 1000 800 l 1
 1000 900 l 1
 900 900 l 1
 900 800 l 1
0 -100 m 1
 0 200 l 1
 100 200 l 1
 100 300 l 1
 0 300 l 1
 0 600 l 1
 100 600 l 1
 100 700 l 1
 0 700 l 1
 0 1000 l 1
 1200 1000 l 1
 1200 900 l 1
 1100 900 l 1
 1100 800 l 1
 1200 800 l 1
 1200 500 l 1
 1100 500 l 1
 1100 400 l 1
 1200 400 l 1
 1200 100 l 1
 1100 100 l 1
 1100 0 l 1
 1200 0 l 1
 1200 -200 l 1
 1100 -200 l 1
 1100 -100 l 1
 1000 -100 l 1
 1000 -200 l 1
 900 -200 l 1
 900 -100 l 1
 800 -100 l 1
 800 -200 l 1
 700 -200 l 1
 700 -100 l 1
 600 -100 l 1
 600 -200 l 1
 500 -200 l 1
 500 -100 l 1
 400 -100 l 1
 400 -200 l 1
 300 -200 l 1
 300 -100 l 1
 200 -100 l 1
 200 -200 l 1
 100 -200 l 1
 100 -100 l 1
 0 -100 l 1
EndSplineSet
Validated: 1
EndChar

StartChar: uni2596
Encoding: 474 9622 474
Width: 1200
Flags: HMW
LayerCount: 2
Fore
SplineSet
0 -200 m 1
 0 400 l 1
 600 400 l 1
 600 -200 l 1
 0 -200 l 1
EndSplineSet
Validated: 1
EndChar

StartChar: uni2597
Encoding: 475 9623 475
Width: 1200
Flags: HMW
LayerCount: 2
Fore
SplineSet
600 -200 m 1
 600 400 l 1
 1200 400 l 1
 1200 -200 l 1
 600 -200 l 1
EndSplineSet
Validated: 1
EndChar

StartChar: uni2598
Encoding: 476 9624 476
Width: 1200
Flags: HMW
LayerCount: 2
Fore
SplineSet
0 400 m 1
 0 1000 l 1
 600 1000 l 1
 600 400 l 1
 0 400 l 1
EndSplineSet
Validated: 1
EndChar

StartChar: uni2599
Encoding: 477 9625 477
Width: 1200
Flags: HMW
LayerCount: 2
Fore
SplineSet
0 -200 m 1
 0 1000 l 1
 600 1000 l 1
 600 400 l 1
 1200 400 l 1
 1200 -200 l 1
 0 -200 l 1
EndSplineSet
Validated: 1
EndChar

StartChar: uni259A
Encoding: 478 9626 478
Width: 1200
Flags: HMW
LayerCount: 2
Fore
SplineSet
0 400 m 1
 0 1000 l 1
 600 1000 l 1
 600 400 l 1
 0 400 l 1
600 -200 m 1
 600 400 l 1
 1200 400 l 1
 1200 -200 l 1
 600 -200 l 1
EndSplineSet
Validated: 5
EndChar

StartChar: uni259B
Encoding: 479 9627 479
Width: 1200
Flags: HMW
LayerCount: 2
Fore
SplineSet
0 -200 m 1
 0 1000 l 1
 1200 1000 l 1
 1200 400 l 1
 600 400 l 1
 600 -200 l 1
 0 -200 l 1
EndSplineSet
Validated: 1
EndChar

StartChar: uni259C
Encoding: 480 9628 480
Width: 1200
Flags: HMW
LayerCount: 2
Fore
SplineSet
0 400 m 1
 0 1000 l 1
 1200 1000 l 1
 1200 -200 l 1
 600 -200 l 1
 600 400 l 1
 0 400 l 1
EndSplineSet
Validated: 1
EndChar

StartChar: uni259D
Encoding: 481 9629 481
Width: 1200
Flags: HMW
LayerCount: 2
Fore
SplineSet
600 400 m 1
 600 1000 l 1
 1200 1000 l 1
 1200 400 l 1
 600 400 l 1
EndSplineSet
Validated: 1
EndChar

StartChar: uni259E
Encoding: 482 9630 482
Width: 1200
Flags: HMW
LayerCount: 2
Fore
SplineSet
600 400 m 1
 600 1000 l 1
 1200 1000 l 1
 1200 400 l 1
 600 400 l 1
0 -200 m 1
 0 400 l 1
 600 400 l 1
 600 -200 l 1
 0 -200 l 1
EndSplineSet
Validated: 5
EndChar

StartChar: uni259F
Encoding: 483 9631 483
Width: 1200
Flags: HMW
LayerCount: 2
Fore
SplineSet
0 -200 m 1
 0 400 l 1
 600 400 l 1
 600 1000 l 1
 1200 1000 l 1
 1200 -200 l 1
 0 -200 l 1
EndSplineSet
Validated: 1
EndChar

StartChar: uni1E9E
Encoding: 484 7838 484
Width: 650
Flags: HMW
LayerCount: 2
Fore
SplineSet
50 0 m 1
 50 575 l 2
 50 699 151 800 325 800 c 2
 600 800 l 1
 600 575 l 2
 600 504 568 441 505 400 c 1
 568 359 600 296 600 225 c 0
 600 101 499 0 325 0 c 0
 288 0 255 10 225 18 c 1
 225 118 l 1
 251 107 284 100 325 100 c 0
 444 100 500 156 500 225 c 0
 500 294 444 350 325 350 c 2
 250 350 l 1
 250 450 l 1
 325 450 l 2
 444 450 500 506 500 575 c 2
 500 700 l 1
 325 700 l 2
 206 700 150 644 150 575 c 2
 150 0 l 1
 50 0 l 1
EndSplineSet
Validated: 1
EndChar

StartChar: uni2E3A
Encoding: 485 11834 485
Width: 2400
Flags: HMW
LayerCount: 2
Fore
SplineSet
0 350 m 1
 0 450 l 1
 2400 450 l 1
 2400 350 l 1
 0 350 l 1
EndSplineSet
Validated: 1
EndChar

StartChar: uni2E3B
Encoding: 486 11835 486
Width: 3600
Flags: HMW
LayerCount: 2
Fore
SplineSet
0 350 m 1
 0 450 l 1
 3600 450 l 1
 3600 350 l 1
 0 350 l 1
EndSplineSet
Validated: 1
EndChar

StartChar: Lslash
Encoding: 487 321 487
Width: 650
Flags: HMW
LayerCount: 2
Fore
SplineSet
50 330 m 1
 50 430 l 1
 150 447 l 1
 150 800 l 1
 250 800 l 1
 250 464 l 1
 400 490 l 1
 400 390 l 1
 250 364 l 1
 250 100 l 1
 600 100 l 1
 600 0 l 1
 150 0 l 1
 150 347 l 1
 50 330 l 1
EndSplineSet
Validated: 1
EndChar

StartChar: lslash
Encoding: 488 322 488
Width: 400
Flags: HMW
LayerCount: 2
Fore
SplineSet
50 330 m 1
 50 430 l 1
 150 447 l 1
 150 800 l 1
 250 800 l 1
 250 463 l 1
 350 480 l 1
 350 380 l 1
 250 363 l 1
 250 0 l 1
 150 0 l 1
 150 347 l 1
 50 330 l 1
EndSplineSet
Validated: 1
EndChar

StartChar: minus
Encoding: 489 8722 489
Width: 450
Flags: HMW
LayerCount: 2
Fore
SplineSet
50 350 m 1
 50 450 l 1
 400 450 l 1
 400 350 l 1
 50 350 l 1
EndSplineSet
Validated: 1
EndChar

StartChar: uniFB00
Encoding: 490 64256 490
Width: 700
Flags: HMW
LayerCount: 2
Fore
SplineSet
50 500 m 1
 50 600 l 1
 150 600 l 1
 150 710 240 800 350 800 c 1
 350 700 l 1
 295 700 250 655 250 600 c 1
 450 600 l 1
 450 710 540 800 650 800 c 1
 650 700 l 1
 595 700 550 655 550 600 c 1
 650 600 l 1
 650 500 l 1
 550 500 l 1
 550 0 l 1
 450 0 l 1
 450 500 l 1
 250 500 l 1
 250 0 l 1
 150 0 l 1
 150 500 l 1
 50 500 l 1
EndSplineSet
Validated: 1
EndChar

StartChar: uniFB03
Encoding: 491 64259 491
Width: 900
Flags: HMW
LayerCount: 2
Fore
SplineSet
50 500 m 1
 50 600 l 1
 150 600 l 1
 150 710 240 800 350 800 c 1
 350 700 l 1
 295 700 250 655 250 600 c 1
 450 600 l 1
 450 710 540 800 650 800 c 2
 750 800 l 1
 750 700 l 1
 650 700 l 2
 595 700 550 655 550 600 c 1
 850 600 l 1
 850 0 l 1
 750 0 l 1
 750 500 l 1
 550 500 l 1
 550 0 l 1
 450 0 l 1
 450 500 l 1
 250 500 l 1
 250 0 l 1
 150 0 l 1
 150 500 l 1
 50 500 l 1
EndSplineSet
Validated: 1
EndChar

StartChar: uniFB04
Encoding: 492 64260 492
Width: 900
Flags: HMW
LayerCount: 2
Fore
SplineSet
50 500 m 1
 50 600 l 1
 150 600 l 1
 150 710 240 800 350 800 c 1
 350 700 l 1
 295 700 250 655 250 600 c 1
 450 600 l 1
 450 710 540 800 650 800 c 2
 850 800 l 1
 850 0 l 1
 750 0 l 1
 750 700 l 1
 650 700 l 2
 595 700 550 655 550 600 c 1
 650 600 l 1
 650 500 l 1
 550 500 l 1
 550 0 l 1
 450 0 l 1
 450 500 l 1
 250 500 l 1
 250 0 l 1
 150 0 l 1
 150 500 l 1
 50 500 l 1
EndSplineSet
Validated: 1
EndChar

StartChar: uni2010
Encoding: 493 8208 493
Width: 450
Flags: HMW
LayerCount: 2
Fore
SplineSet
50 350 m 1
 50 450 l 1
 400 450 l 1
 400 350 l 1
 50 350 l 1
EndSplineSet
Validated: 1
EndChar

StartChar: therefore
Encoding: 494 8756 494
Width: 600
Flags: HMW
LayerCount: 2
Fore
SplineSet
250 550 m 1
 250 650 l 1
 350 650 l 1
 350 550 l 1
 250 550 l 1
450 150 m 1
 450 250 l 1
 550 250 l 1
 550 150 l 1
 450 150 l 1
50 150 m 1
 50 250 l 1
 150 250 l 1
 150 150 l 1
 50 150 l 1
EndSplineSet
Validated: 1
EndChar

StartChar: male
Encoding: 495 9794 495
Width: 900
Flags: HMW
LayerCount: 2
Fore
SplineSet
150 300 m 0
 150 190 240 100 350 100 c 0
 460 100 550 190 550 300 c 0
 550 410 460 500 350 500 c 0
 240 500 150 410 150 300 c 0
50 300 m 0
 50 466 184 600 350 600 c 0
 415 600 475 580 524 545 c 1
 679 700 l 1
 450 700 l 1
 450 800 l 1
 850 800 l 1
 850 400 l 1
 750 400 l 1
 750 629 l 1
 595 474 l 1
 630 425 650 365 650 300 c 0
 650 134 516 0 350 0 c 0
 184 0 50 134 50 300 c 0
EndSplineSet
Validated: 1
EndChar

StartChar: female
Encoding: 496 9792 496
Width: 700
Flags: HMW
LayerCount: 2
Fore
SplineSet
150 550 m 0
 150 450 240 390 350 390 c 0
 460 390 550 450 550 550 c 0
 550 650 460 700 350 700 c 0
 240 700 150 650 150 550 c 0
50 550 m 0
 50 706 184 800 350 800 c 0
 516 800 650 706 650 550 c 0
 650 410 542 312 400 293 c 1
 400 190 l 1
 580 190 l 1
 580 90 l 1
 400 90 l 1
 400 0 l 1
 300 0 l 1
 300 90 l 1
 120 90 l 1
 120 190 l 1
 300 190 l 1
 300 293 l 1
 158 312 50 410 50 550 c 0
EndSplineSet
Validated: 1
EndChar

StartChar: minute
Encoding: 497 8242 497
Width: 200
Flags: HMW
LayerCount: 2
Fore
SplineSet
50 600 m 1
 50 800 l 1
 150 800 l 1
 120 600 l 1
 50 600 l 1
EndSplineSet
Validated: 1
EndChar

StartChar: second
Encoding: 498 8243 498
Width: 400
Flags: HMW
LayerCount: 2
Fore
SplineSet
250 600 m 1
 250 800 l 1
 350 800 l 1
 320 600 l 1
 250 600 l 1
50 600 m 1
 50 800 l 1
 150 800 l 1
 120 600 l 1
 50 600 l 1
EndSplineSet
Validated: 1
EndChar

StartChar: circle
Encoding: 499 9675 499
Width: 700
Flags: HMW
LayerCount: 2
Fore
SplineSet
50 400 m 0
 50 566 184 700 350 700 c 0
 516 700 650 566 650 400 c 0
 650 234 516 100 350 100 c 0
 184 100 50 234 50 400 c 0
150 400 m 0
 150 290 240 200 350 200 c 0
 460 200 550 290 550 400 c 0
 550 510 460 600 350 600 c 0
 240 600 150 510 150 400 c 0
EndSplineSet
Validated: 1
EndChar

StartChar: H18533
Encoding: 500 9679 500
Width: 700
Flags: HMW
LayerCount: 2
Fore
SplineSet
50 400 m 0
 50 566 184 700 350 700 c 0
 516 700 650 566 650 400 c 0
 650 234 516 100 350 100 c 0
 184 100 50 234 50 400 c 0
EndSplineSet
Validated: 1
EndChar

StartChar: twodotenleader
Encoding: 501 8229 501
Width: 400
Flags: HMW
LayerCount: 2
Fore
SplineSet
50 0 m 1
 50 100 l 1
 150 100 l 1
 150 0 l 1
 50 0 l 1
250 0 m 1
 250 100 l 1
 350 100 l 1
 350 0 l 1
 250 0 l 1
EndSplineSet
Validated: 1
EndChar

StartChar: uni2016
Encoding: 502 8214 502
Width: 400
Flags: HMW
LayerCount: 2
Fore
SplineSet
250 -200 m 1
 250 800 l 1
 350 800 l 1
 350 -200 l 1
 250 -200 l 1
50 -200 m 1
 50 800 l 1
 150 800 l 1
 150 -200 l 1
 50 -200 l 1
EndSplineSet
Validated: 1
EndChar

StartChar: H22073
Encoding: 503 9633 503
Width: 700
Flags: HMW
LayerCount: 2
Fore
SplineSet
50 100 m 1
 50 700 l 1
 650 700 l 1
 650 100 l 1
 50 100 l 1
150 200 m 1
 550 200 l 1
 550 600 l 1
 150 600 l 1
 150 200 l 1
EndSplineSet
Validated: 1
EndChar

StartChar: filledbox
Encoding: 504 9632 504
Width: 700
Flags: HMW
LayerCount: 2
Fore
SplineSet
50 100 m 1
 50 700 l 1
 650 700 l 1
 650 100 l 1
 50 100 l 1
EndSplineSet
Validated: 1
EndChar

StartChar: triagup
Encoding: 505 9650 505
Width: 700
Flags: HMW
LayerCount: 2
Fore
SplineSet
50 100 m 1
 350 700 l 1
 650 100 l 1
 50 100 l 1
EndSplineSet
Validated: 1
EndChar

StartChar: triagdn
Encoding: 506 9660 506
Width: 700
Flags: HMW
LayerCount: 2
Fore
SplineSet
50 700 m 1
 650 700 l 1
 350 100 l 1
 50 700 l 1
EndSplineSet
Validated: 1
EndChar

StartChar: uni203B
Encoding: 507 8251 507
Width: 700
Flags: HMW
LayerCount: 2
Fore
SplineSet
300 600 m 1
 300 700 l 1
 400 700 l 1
 400 600 l 1
 300 600 l 1
50 350 m 1
 50 450 l 1
 150 450 l 1
 150 350 l 1
 50 350 l 1
129 250 m 1
 279 400 l 1
 129 550 l 1
 200 621 l 1
 350 471 l 1
 500 621 l 1
 571 550 l 1
 421 400 l 1
 571 250 l 1
 500 179 l 1
 350 329 l 1
 200 179 l 1
 129 250 l 1
550 350 m 1
 550 450 l 1
 650 450 l 1
 650 350 l 1
 550 350 l 1
300 100 m 1
 300 200 l 1
 400 200 l 1
 400 100 l 1
 300 100 l 1
EndSplineSet
Validated: 1
EndChar

StartChar: arrowright
Encoding: 508 8594 508
Width: 900
Flags: HMW
LayerCount: 2
Fore
SplineSet
50 350 m 1
 50 450 l 1
 650 450 l 1
 650 600 l 1
 850 400 l 1
 650 200 l 1
 650 350 l 1
 50 350 l 1
EndSplineSet
Validated: 1
EndChar

StartChar: arrowleft
Encoding: 509 8592 509
Width: 900
Flags: HMW
LayerCount: 2
Fore
SplineSet
50 400 m 1
 250 600 l 1
 250 450 l 1
 850 450 l 1
 850 350 l 1
 250 350 l 1
 250 200 l 1
 50 400 l 1
EndSplineSet
Validated: 1
EndChar

StartChar: arrowup
Encoding: 510 8593 510
Width: 500
Flags: HMW
LayerCount: 2
Fore
SplineSet
50 600 m 1
 250 800 l 1
 450 600 l 1
 300 600 l 1
 300 0 l 1
 200 0 l 1
 200 600 l 1
 50 600 l 1
EndSplineSet
Validated: 1
EndChar

StartChar: arrowdown
Encoding: 511 8595 511
Width: 500
Flags: HMW
LayerCount: 2
Fore
SplineSet
50 200 m 1
 200 200 l 1
 200 800 l 1
 300 800 l 1
 300 200 l 1
 450 200 l 1
 250 0 l 1
 50 200 l 1
EndSplineSet
Validated: 1
EndChar

StartChar: union
Encoding: 512 8746 512
Width: 700
Flags: HMW
LayerCount: 2
Fore
SplineSet
50 400 m 2
 50 700 l 1
 150 700 l 1
 150 400 l 2
 150 290 240 200 350 200 c 0
 460 200 550 290 550 400 c 2
 550 700 l 1
 650 700 l 1
 650 400 l 2
 650 234 516 100 350 100 c 0
 184 100 50 234 50 400 c 2
EndSplineSet
Validated: 1
EndChar

StartChar: intersection
Encoding: 513 8745 513
Width: 700
Flags: HMW
LayerCount: 2
Fore
SplineSet
50 100 m 1
 50 400 l 2
 50 566 184 700 350 700 c 0
 516 700 650 566 650 400 c 2
 650 100 l 1
 550 100 l 1
 550 400 l 2
 550 510 460 600 350 600 c 0
 240 600 150 510 150 400 c 2
 150 100 l 1
 50 100 l 1
EndSplineSet
Validated: 1
EndChar

StartChar: logicaland
Encoding: 514 8743 514
Width: 700
Flags: HMW
LayerCount: 2
Fore
SplineSet
50 100 m 1
 300 700 l 1
 400 700 l 1
 650 100 l 1
 550 100 l 1
 350 590 l 1
 150 100 l 1
 50 100 l 1
EndSplineSet
Validated: 1
EndChar

StartChar: logicalor
Encoding: 515 8744 515
Width: 700
Flags: HMW
LayerCount: 2
Fore
SplineSet
50 700 m 1
 150 700 l 1
 350 210 l 1
 550 700 l 1
 650 700 l 1
 400 100 l 1
 300 100 l 1
 50 700 l 1
EndSplineSet
Validated: 1
EndChar

StartChar: universal
Encoding: 516 8704 516
Width: 700
Flags: HMW
LayerCount: 2
Fore
SplineSet
50 800 m 1
 150 800 l 1
 195 650 l 1
 505 650 l 1
 550 800 l 1
 650 800 l 1
 400 0 l 1
 300 0 l 1
 50 800 l 1
226 550 m 1
 350 140 l 1
 474 550 l 1
 226 550 l 1
EndSplineSet
Validated: 1
EndChar

StartChar: existential
Encoding: 517 8707 517
Width: 550
Flags: HMW
LayerCount: 2
Fore
SplineSet
50 0 m 1
 50 100 l 1
 400 100 l 1
 400 350 l 1
 150 350 l 1
 150 450 l 1
 400 450 l 1
 400 700 l 1
 50 700 l 1
 50 800 l 1
 500 800 l 1
 500 0 l 1
 50 0 l 1
EndSplineSet
Validated: 1
EndChar

StartChar: gradient
Encoding: 518 8711 518
Width: 700
Flags: HMW
LayerCount: 2
Fore
SplineSet
50 800 m 1
 650 800 l 1
 400 0 l 1
 300 0 l 1
 50 800 l 1
180 700 m 1
 350 140 l 1
 520 700 l 1
 180 700 l 1
EndSplineSet
Validated: 1
EndChar

